<svg width="3200" height="1600" viewBox="0 0 3200 1600" fill="none" xmlns="http://www.w3.org/2000/svg">
<rect width="3200" height="1600" fill="#1A212B"/>
<path fill-rule="evenodd" clip-rule="evenodd" d="M160 0C160 88.3656 88.3656 160 0 160C0 71.6344 71.6344 0 160 0Z" fill="#27313F"/>
<path fill-rule="evenodd" clip-rule="evenodd" d="M80 880L-3.49691e-06 880C-1.56562e-06 924.183 35.8172 960 80 960L160 960C160 915.817 124.183 880 80 880Z" fill="#27313F"/>
<path fill-rule="evenodd" clip-rule="evenodd" d="M80 800L-3.49691e-06 800C-1.56562e-06 844.183 35.8172 880 80 880L160 880C160 835.817 124.183 800 80 800Z" fill="#27313F" fill-opacity="0.5"/>
<path d="M960 80C960 124.183 924.183 160 880 160C835.817 160 800 124.183 800 80C800 35.8172 835.817 0 880 0C924.183 0 960 35.8172 960 80ZM840 80C840 102.091 857.909 120 880 120C902.091 120 920 102.091 920 80C920 57.9086 902.091 40 880 40C857.909 40 840 57.9086 840 80Z" fill="#27313F"/>
<path fill-rule="evenodd" clip-rule="evenodd" d="M960 800C960 888.366 888.366 960 800 960C800 871.634 871.634 800 960 800Z" fill="#27313F"/>
<path d="M1680 0C1669.49 -1.2528e-07 1659.09 2.06926 1649.39 6.08964C1639.68 10.11 1630.86 16.0028 1623.43 23.4315C1616 30.8601 1610.11 39.6793 1606.09 49.3853C1602.07 59.0914 1600 69.4943 1600 80L1680 80V0Z" fill="#27313F" fill-opacity="0.5"/>
<path d="M1680 160C1690.51 160 1700.91 157.931 1710.61 153.91C1720.32 149.89 1729.14 143.997 1736.57 136.569C1744 129.14 1749.89 120.321 1753.91 110.615C1757.93 100.909 1760 90.5057 1760 80L1680 80L1680 160Z" fill="#27313F"/>
<path d="M1760 880C1760 924.183 1724.18 960 1680 960C1635.82 960 1600 924.183 1600 880C1600 835.817 1635.82 800 1680 800C1724.18 800 1760 835.817 1760 880ZM1640 880C1640 902.091 1657.91 920 1680 920C1702.09 920 1720 902.091 1720 880C1720 857.909 1702.09 840 1680 840C1657.91 840 1640 857.909 1640 880Z" fill="#27313F"/>
<path fill-rule="evenodd" clip-rule="evenodd" d="M2560 160C2471.63 160 2400 88.3656 2400 -6.99382e-06C2488.37 -3.13124e-06 2560 71.6344 2560 160Z" fill="#27313F"/>
<path fill-rule="evenodd" clip-rule="evenodd" d="M2480 720C2480 764.183 2444.18 800 2400 800C2400 755.817 2435.82 720 2480 720Z" fill="#27313F" fill-opacity="0.5"/>
<path fill-rule="evenodd" clip-rule="evenodd" d="M2480 640C2480 684.183 2444.18 720 2400 720C2400 675.817 2435.82 640 2480 640Z" fill="#27313F" fill-opacity="0.5"/>
<path fill-rule="evenodd" clip-rule="evenodd" d="M2560 720C2560 764.183 2524.18 800 2480 800C2480 755.817 2515.82 720 2560 720Z" fill="#27313F"/>
<path fill-rule="evenodd" clip-rule="evenodd" d="M2560 640C2560 684.183 2524.18 720 2480 720C2480 675.817 2515.82 640 2560 640Z" fill="#27313F"/>
<circle cx="80" cy="240" r="80" fill="#27313F"/>
<path fill-rule="evenodd" clip-rule="evenodd" d="M80 1040C80 1084.18 44.1828 1120 0 1120C0 1075.82 35.8172 1040 80 1040Z" fill="#27313F"/>
<path fill-rule="evenodd" clip-rule="evenodd" d="M80 1040C35.8172 1040 -1.93129e-06 1004.18 0 960C44.1828 960 80 995.817 80 1040Z" fill="#27313F" fill-opacity="0.5"/>
<path fill-rule="evenodd" clip-rule="evenodd" d="M160 1120C115.817 1120 80 1084.18 80 1040C124.183 1040 160 1075.82 160 1120Z" fill="#27313F" fill-opacity="0.5"/>
<path fill-rule="evenodd" clip-rule="evenodd" d="M160 960C160 1004.18 124.183 1040 80 1040C80 995.817 115.817 960 160 960Z" fill="#27313F"/>
<path fill-rule="evenodd" clip-rule="evenodd" d="M880 240L960 240C960 195.817 924.183 160 880 160L800 160C800 204.183 835.817 240 880 240Z" fill="#27313F"/>
<path fill-rule="evenodd" clip-rule="evenodd" d="M880 240L960 240C960 284.183 924.183 320 880 320L800 320C800 275.817 835.817 240 880 240Z" fill="#27313F" fill-opacity="0.5"/>
<circle cx="840" cy="1080" r="40" fill="#27313F" fill-opacity="0.5"/>
<circle cx="920" cy="1000" r="40" fill="#27313F" fill-opacity="0.5"/>
<circle cx="920" cy="1080" r="40" fill="#27313F"/>
<circle cx="840" cy="1000" r="40" fill="#27313F"/>
<path fill-rule="evenodd" clip-rule="evenodd" d="M1680 240C1680 284.183 1644.18 320 1600 320C1600 275.817 1635.82 240 1680 240Z" fill="#27313F" fill-opacity="0.5"/>
<path fill-rule="evenodd" clip-rule="evenodd" d="M1680 160C1680 204.183 1644.18 240 1600 240C1600 195.817 1635.82 160 1680 160Z" fill="#27313F" fill-opacity="0.5"/>
<path fill-rule="evenodd" clip-rule="evenodd" d="M1760 240C1760 284.183 1724.18 320 1680 320C1680 275.817 1715.82 240 1760 240Z" fill="#27313F"/>
<path fill-rule="evenodd" clip-rule="evenodd" d="M1760 160C1760 204.183 1724.18 240 1680 240C1680 195.817 1715.82 160 1760 160Z" fill="#27313F"/>
<path d="M1760 960C1738.72 960 1718.31 968.429 1703.26 983.431C1688.21 998.434 1679.76 1018.78 1679.76 1040C1679.76 1061.22 1688.21 1081.57 1703.26 1096.57C1718.31 1111.57 1738.72 1120 1760 1120L1760 1040V960Z" fill="#27313F" fill-opacity="0.5"/>
<path d="M1600 1120C1621.28 1120 1641.69 1111.57 1656.74 1096.57C1671.79 1081.57 1680.24 1061.22 1680.24 1040C1680.24 1018.78 1671.79 998.434 1656.74 983.431C1641.69 968.429 1621.28 960 1600 960L1600 1040L1600 1120Z" fill="#27313F"/>
<path d="M2400 320C2421.22 320 2441.57 311.571 2456.57 296.569C2471.57 281.566 2480 261.217 2480 240C2480 218.783 2471.57 198.434 2456.57 183.431C2441.57 168.429 2421.22 160 2400 160L2400 200C2410.61 200 2420.78 204.214 2428.28 211.716C2435.79 219.217 2440 229.391 2440 240C2440 250.609 2435.79 260.783 2428.28 268.284C2420.78 275.786 2410.61 280 2400 280L2400 320Z" fill="#27313F"/>
<path d="M2560 160C2538.78 160 2518.43 168.429 2503.43 183.431C2488.43 198.434 2480 218.783 2480 240C2480 261.217 2488.43 281.566 2503.43 296.569C2518.43 311.571 2538.78 320 2560 320L2560 280C2549.39 280 2539.22 275.786 2531.72 268.284C2524.21 260.783 2520 250.609 2520 240C2520 229.391 2524.21 219.217 2531.72 211.716C2539.22 204.214 2549.39 200 2560 200V160Z" fill="#27313F" fill-opacity="0.5"/>
<path fill-rule="evenodd" clip-rule="evenodd" d="M2480 880C2480 924.183 2444.18 960 2400 960C2400 915.817 2435.82 880 2480 880Z" fill="#27313F" fill-opacity="0.5"/>
<path fill-rule="evenodd" clip-rule="evenodd" d="M2480 800C2480 844.183 2444.18 880 2400 880C2400 835.817 2435.82 800 2480 800Z" fill="#27313F" fill-opacity="0.5"/>
<path fill-rule="evenodd" clip-rule="evenodd" d="M2560 880C2560 924.183 2524.18 960 2480 960C2480 915.817 2515.82 880 2560 880Z" fill="#27313F"/>
<path fill-rule="evenodd" clip-rule="evenodd" d="M2560 800C2560 844.183 2524.18 880 2480 880C2480 835.817 2515.82 800 2560 800Z" fill="#27313F"/>
<path d="M160 320C138.988 320 118.183 324.139 98.7706 332.179C79.3586 340.22 61.7203 352.006 46.8629 366.863C32.0055 381.72 20.22 399.359 12.1793 418.771C4.13852 438.183 -3.17265e-06 458.989 0 480L160 480V320Z" fill="#27313F"/>
<path d="M160 1200C160 1244.18 124.183 1280 80 1280C35.8172 1280 0 1244.18 0 1200C0 1155.82 35.8172 1120 80 1120C124.183 1120 160 1155.82 160 1200ZM40 1200C40 1222.09 57.9086 1240 80 1240C102.091 1240 120 1222.09 120 1200C120 1177.91 102.091 1160 80 1160C57.9086 1160 40 1177.91 40 1200Z" fill="#27313F"/>
<path fill-rule="evenodd" clip-rule="evenodd" d="M960 480C871.634 480 800 408.366 800 320C888.366 320 960 391.634 960 480Z" fill="#27313F"/>
<path d="M960 1120C938.988 1120 918.183 1124.14 898.771 1132.18C879.359 1140.22 861.72 1152.01 846.863 1166.86C832.006 1181.72 820.22 1199.36 812.179 1218.77C804.139 1238.18 800 1258.99 800 1280L960 1280V1120Z" fill="#27313F"/>
<path d="M1600 480C1621.22 480 1641.57 471.571 1656.57 456.569C1671.57 441.566 1680 421.217 1680 400C1680 378.783 1671.57 358.434 1656.57 343.431C1641.57 328.429 1621.22 320 1600 320L1600 360C1610.61 360 1620.78 364.214 1628.28 371.716C1635.79 379.217 1640 389.391 1640 400C1640 410.609 1635.79 420.783 1628.28 428.284C1620.78 435.786 1610.61 440 1600 440L1600 480Z" fill="#27313F" fill-opacity="0.5"/>
<path d="M1680 480C1701.22 480 1721.57 471.571 1736.57 456.569C1751.57 441.566 1760 421.217 1760 400C1760 378.783 1751.57 358.434 1736.57 343.431C1721.57 328.429 1701.22 320 1680 320L1680 360C1690.61 360 1700.78 364.214 1708.28 371.716C1715.79 379.217 1720 389.391 1720 400C1720 410.609 1715.79 420.783 1708.28 428.284C1700.78 435.786 1690.61 440 1680 440L1680 480Z" fill="#27313F"/>
<path fill-rule="evenodd" clip-rule="evenodd" d="M1760 1200C1715.82 1200 1680 1164.18 1680 1120C1724.18 1120 1760 1155.82 1760 1200Z" fill="#27313F"/>
<path fill-rule="evenodd" clip-rule="evenodd" d="M1680 1280C1680 1235.82 1715.82 1200 1760 1200C1760 1244.18 1724.18 1280 1680 1280Z" fill="#27313F"/>
<path fill-rule="evenodd" clip-rule="evenodd" d="M1680 1200C1635.82 1200 1600 1164.18 1600 1120C1644.18 1120 1680 1155.82 1680 1200Z" fill="#27313F" fill-opacity="0.5"/>
<path fill-rule="evenodd" clip-rule="evenodd" d="M1600 1280C1600 1235.82 1635.82 1200 1680 1200C1680 1244.18 1644.18 1280 1600 1280Z" fill="#27313F" fill-opacity="0.5"/>
<path d="M2560 320C2538.72 320 2518.31 328.429 2503.26 343.431C2488.21 358.434 2479.76 378.783 2479.76 400C2479.76 421.217 2488.21 441.566 2503.26 456.569C2518.31 471.571 2538.72 480 2560 480L2560 400V320Z" fill="#27313F" fill-opacity="0.5"/>
<path d="M2400 480C2421.28 480 2441.69 471.571 2456.74 456.569C2471.79 441.566 2480.24 421.217 2480.24 400C2480.24 378.783 2471.79 358.434 2456.74 343.431C2441.69 328.429 2421.28 320 2400 320L2400 400L2400 480Z" fill="#27313F"/>
<path d="M2400 1280C2421.22 1280 2441.57 1271.57 2456.57 1256.57C2471.57 1241.57 2480 1221.22 2480 1200C2480 1178.78 2471.57 1158.43 2456.57 1143.43C2441.57 1128.43 2421.22 1120 2400 1120L2400 1160C2410.61 1160 2420.78 1164.21 2428.28 1171.72C2435.79 1179.22 2440 1189.39 2440 1200C2440 1210.61 2435.79 1220.78 2428.28 1228.28C2420.78 1235.79 2410.61 1240 2400 1240L2400 1280Z" fill="#27313F" fill-opacity="0.5"/>
<path d="M2480 1280C2501.22 1280 2521.57 1271.57 2536.57 1256.57C2551.57 1241.57 2560 1221.22 2560 1200C2560 1178.78 2551.57 1158.43 2536.57 1143.43C2521.57 1128.43 2501.22 1120 2480 1120L2480 1160C2490.61 1160 2500.78 1164.21 2508.28 1171.72C2515.79 1179.22 2520 1189.39 2520 1200C2520 1210.61 2515.79 1220.78 2508.28 1228.28C2500.78 1235.79 2490.61 1240 2480 1240L2480 1280Z" fill="#27313F"/>
<path fill-rule="evenodd" clip-rule="evenodd" d="M-3.49691e-06 560C44.1828 560 80 595.817 80 640C35.8172 640 -1.56562e-06 604.183 -3.49691e-06 560Z" fill="#27313F"/>
<path fill-rule="evenodd" clip-rule="evenodd" d="M80 480C80 524.183 44.1828 560 0 560C0 515.817 35.8172 480 80 480Z" fill="#27313F"/>
<path fill-rule="evenodd" clip-rule="evenodd" d="M80 560C124.183 560 160 595.817 160 640C115.817 640 80 604.183 80 560Z" fill="#27313F" fill-opacity="0.5"/>
<path fill-rule="evenodd" clip-rule="evenodd" d="M160 480C160 524.183 124.183 560 80 560C80 515.817 115.817 480 160 480Z" fill="#27313F" fill-opacity="0.5"/>
<path fill-rule="evenodd" clip-rule="evenodd" d="M80 1360L80 1280C35.8172 1280 -6.26248e-06 1315.82 -1.39876e-05 1360L-2.79753e-05 1440C44.1828 1440 80 1404.18 80 1360Z" fill="#27313F"/>
<path fill-rule="evenodd" clip-rule="evenodd" d="M80 1360L80 1280C124.183 1280 160 1315.82 160 1360L160 1440C115.817 1440 80 1404.18 80 1360Z" fill="#27313F" fill-opacity="0.5"/>
<path d="M960 560C960 604.183 924.183 640 880 640C835.817 640 800 604.183 800 560C800 515.817 835.817 480 880 480C924.183 480 960 515.817 960 560ZM840 560C840 582.091 857.909 600 880 600C902.091 600 920 582.091 920 560C920 537.909 902.091 520 880 520C857.909 520 840 537.909 840 560Z" fill="#27313F"/>
<path fill-rule="evenodd" clip-rule="evenodd" d="M800 1360C844.183 1360 880 1395.82 880 1440C835.817 1440 800 1404.18 800 1360Z" fill="#27313F"/>
<path fill-rule="evenodd" clip-rule="evenodd" d="M880 1280C880 1324.18 844.183 1360 800 1360C800 1315.82 835.817 1280 880 1280Z" fill="#27313F"/>
<path fill-rule="evenodd" clip-rule="evenodd" d="M880 1360C924.183 1360 960 1395.82 960 1440C915.817 1440 880 1404.18 880 1360Z" fill="#27313F" fill-opacity="0.5"/>
<path fill-rule="evenodd" clip-rule="evenodd" d="M960 1280C960 1324.18 924.183 1360 880 1360C880 1315.82 915.817 1280 960 1280Z" fill="#27313F" fill-opacity="0.5"/>
<path fill-rule="evenodd" clip-rule="evenodd" d="M1680 560L1760 560C1760 515.817 1724.18 480 1680 480L1600 480C1600 524.183 1635.82 560 1680 560Z" fill="#27313F"/>
<path fill-rule="evenodd" clip-rule="evenodd" d="M1680 640L1760 640C1760 595.817 1724.18 560 1680 560L1600 560C1600 604.183 1635.82 640 1680 640Z" fill="#27313F" fill-opacity="0.5"/>
<path d="M1760 1360C1760 1404.18 1724.18 1440 1680 1440C1635.82 1440 1600 1404.18 1600 1360C1600 1315.82 1635.82 1280 1680 1280C1724.18 1280 1760 1315.82 1760 1360ZM1640 1360C1640 1382.09 1657.91 1400 1680 1400C1702.09 1400 1720 1382.09 1720 1360C1720 1337.91 1702.09 1320 1680 1320C1657.91 1320 1640 1337.91 1640 1360Z" fill="#27313F"/>
<path fill-rule="evenodd" clip-rule="evenodd" d="M2480 640C2435.82 640 2400 604.183 2400 560C2444.18 560 2480 595.817 2480 640Z" fill="#27313F" fill-opacity="0.5"/>
<path fill-rule="evenodd" clip-rule="evenodd" d="M2480 480C2480 524.183 2444.18 560 2400 560C2400 515.817 2435.82 480 2480 480Z" fill="#27313F"/>
<path fill-rule="evenodd" clip-rule="evenodd" d="M2560 560C2560 604.183 2524.18 640 2480 640C2480 595.817 2515.82 560 2560 560Z" fill="#27313F"/>
<path fill-rule="evenodd" clip-rule="evenodd" d="M2560 560C2515.82 560 2480 524.183 2480 480C2524.18 480 2560 515.817 2560 560Z" fill="#27313F" fill-opacity="0.5"/>
<path fill-rule="evenodd" clip-rule="evenodd" d="M2480 1360V1280C2435.82 1280 2400 1315.82 2400 1360V1440C2444.18 1440 2480 1404.18 2480 1360Z" fill="#27313F"/>
<path fill-rule="evenodd" clip-rule="evenodd" d="M2560 1360V1280C2515.82 1280 2480 1315.82 2480 1360V1440C2524.18 1440 2560 1404.18 2560 1360Z" fill="#27313F" fill-opacity="0.5"/>
<path d="M0 800C21.2173 800 41.5656 791.571 56.5685 776.569C71.5715 761.566 80 741.217 80 720C80 698.783 71.5715 678.434 56.5686 663.431C41.5657 648.429 21.2173 640 2.92464e-05 640L1.81201e-05 680C10.6087 680 20.7828 684.214 28.2843 691.716C35.7857 699.217 40 709.391 40 720C40 730.609 35.7857 740.783 28.2843 748.284C20.7828 755.786 10.6087 760 3.49691e-06 760L0 800Z" fill="#27313F" fill-opacity="0.5"/>
<path d="M80 800C101.217 800 121.566 791.571 136.569 776.569C151.571 761.566 160 741.217 160 720C160 698.783 151.571 678.434 136.569 663.431C121.566 648.429 101.217 640 80 640L80 680C90.6087 680 100.783 684.214 108.284 691.716C115.786 699.217 120 709.391 120 720C120 730.609 115.786 740.783 108.284 748.284C100.783 755.786 90.6087 760 80 760L80 800Z" fill="#27313F"/>
<path fill-rule="evenodd" clip-rule="evenodd" d="M160 1440C160 1528.37 88.3656 1600 0 1600C0 1511.63 71.6344 1440 160 1440Z" fill="#27313F"/>
<path fill-rule="evenodd" clip-rule="evenodd" d="M880 720L880 800C924.183 800 960 764.183 960 720L960 640C915.817 640 880 675.817 880 720Z" fill="#27313F"/>
<path fill-rule="evenodd" clip-rule="evenodd" d="M880 720L880 800C835.817 800 800 764.183 800 720L800 640C844.183 640 880 675.817 880 720Z" fill="#27313F" fill-opacity="0.5"/>
<path d="M800 1600C821.217 1600 841.566 1591.57 856.569 1576.57C871.571 1561.57 880 1541.22 880 1520C880 1498.78 871.571 1478.43 856.569 1463.43C841.566 1448.43 821.217 1440 800 1440L800 1480C810.609 1480 820.783 1484.21 828.284 1491.72C835.786 1499.22 840 1509.39 840 1520C840 1530.61 835.786 1540.78 828.284 1548.28C820.783 1555.79 810.609 1560 800 1560L800 1600Z" fill="#27313F" fill-opacity="0.5"/>
<path d="M880 1600C901.217 1600 921.566 1591.57 936.569 1576.57C951.571 1561.57 960 1541.22 960 1520C960 1498.78 951.571 1478.43 936.569 1463.43C921.566 1448.43 901.217 1440 880 1440L880 1480C890.609 1480 900.783 1484.21 908.284 1491.72C915.786 1499.22 920 1509.39 920 1520C920 1530.61 915.786 1540.78 908.284 1548.28C900.783 1555.79 890.609 1560 880 1560L880 1600Z" fill="#27313F"/>
<path fill-rule="evenodd" clip-rule="evenodd" d="M1680 720C1680 764.183 1644.18 800 1600 800C1600 755.817 1635.82 720 1680 720Z" fill="#27313F"/>
<path fill-rule="evenodd" clip-rule="evenodd" d="M1680 720C1635.82 720 1600 684.183 1600 640C1644.18 640 1680 675.817 1680 720Z" fill="#27313F" fill-opacity="0.5"/>
<path fill-rule="evenodd" clip-rule="evenodd" d="M1760 800C1715.82 800 1680 764.183 1680 720C1724.18 720 1760 755.817 1760 800Z" fill="#27313F" fill-opacity="0.5"/>
<path fill-rule="evenodd" clip-rule="evenodd" d="M1760 640C1760 684.183 1724.18 720 1680 720C1680 675.817 1715.82 640 1760 640Z" fill="#27313F"/>
<path fill-rule="evenodd" clip-rule="evenodd" d="M1680 1520L1680 1600C1724.18 1600 1760 1564.18 1760 1520L1760 1440C1715.82 1440 1680 1475.82 1680 1520Z" fill="#27313F"/>
<path fill-rule="evenodd" clip-rule="evenodd" d="M1680 1520L1680 1600C1635.82 1600 1600 1564.18 1600 1520L1600 1440C1644.18 1440 1680 1475.82 1680 1520Z" fill="#27313F" fill-opacity="0.5"/>
<path fill-rule="evenodd" clip-rule="evenodd" d="M2560 960C2560 1048.37 2488.37 1120 2400 1120C2400 1031.63 2471.63 960 2560 960Z" fill="#27313F"/>
<path fill-rule="evenodd" clip-rule="evenodd" d="M2480 1520C2480 1564.18 2444.18 1600 2400 1600C2400 1555.82 2435.82 1520 2480 1520Z" fill="#27313F"/>
<path fill-rule="evenodd" clip-rule="evenodd" d="M2480 1520C2435.82 1520 2400 1484.18 2400 1440C2444.18 1440 2480 1475.82 2480 1520Z" fill="#27313F" fill-opacity="0.5"/>
<path fill-rule="evenodd" clip-rule="evenodd" d="M2560 1600C2515.82 1600 2480 1564.18 2480 1520C2524.18 1520 2560 1555.82 2560 1600Z" fill="#27313F" fill-opacity="0.5"/>
<path fill-rule="evenodd" clip-rule="evenodd" d="M2560 1440C2560 1484.18 2524.18 1520 2480 1520C2480 1475.82 2515.82 1440 2560 1440Z" fill="#27313F"/>
<path d="M320 0C298.719 -2.53014e-07 278.31 8.42855 263.262 23.4315C248.214 38.4344 239.76 58.7827 239.76 80C239.76 101.217 248.214 121.566 263.262 136.569C278.31 151.571 298.719 160 320 160L320 80V0Z" fill="#27313F" fill-opacity="0.5"/>
<path d="M160 160C181.281 160 201.69 151.571 216.738 136.569C231.786 121.566 240.24 101.217 240.24 80C240.24 58.7827 231.786 38.4344 216.738 23.4315C201.69 8.42855 181.281 2.31131e-06 160 -3.00031e-06L160 80L160 160Z" fill="#27313F"/>
<circle cx="200" cy="920" r="40" fill="#27313F" fill-opacity="0.5"/>
<circle cx="280" cy="840" r="40" fill="#27313F" fill-opacity="0.5"/>
<circle cx="280" cy="920" r="40" fill="#27313F"/>
<circle cx="200" cy="840" r="40" fill="#27313F"/>
<path fill-rule="evenodd" clip-rule="evenodd" d="M960 80C1004.18 80 1040 115.817 1040 160C995.817 160 960 124.183 960 80Z" fill="#27313F"/>
<path fill-rule="evenodd" clip-rule="evenodd" d="M1040 0C1040 44.1828 1004.18 80 960 80C960 35.8172 995.817 0 1040 0Z" fill="#27313F"/>
<path fill-rule="evenodd" clip-rule="evenodd" d="M1040 80C1084.18 80 1120 115.817 1120 160C1075.82 160 1040 124.183 1040 80Z" fill="#27313F" fill-opacity="0.5"/>
<path fill-rule="evenodd" clip-rule="evenodd" d="M1120 0C1120 44.1828 1084.18 80 1040 80C1040 35.8172 1075.82 0 1120 0Z" fill="#27313F" fill-opacity="0.5"/>
<path d="M1120 800C1098.72 800 1078.31 808.429 1063.26 823.431C1048.21 838.434 1039.76 858.783 1039.76 880C1039.76 901.217 1048.21 921.566 1063.26 936.569C1078.31 951.571 1098.72 960 1120 960L1120 880V800Z" fill="#27313F" fill-opacity="0.5"/>
<path d="M960 960C981.281 960 1001.69 951.571 1016.74 936.569C1031.79 921.566 1040.24 901.217 1040.24 880C1040.24 858.783 1031.79 838.434 1016.74 823.431C1001.69 808.429 981.281 800 960 800L960 880L960 960Z" fill="#27313F"/>
<path d="M1760 160C1781.22 160 1801.57 151.571 1816.57 136.569C1831.57 121.566 1840 101.217 1840 80C1840 58.7827 1831.57 38.4344 1816.57 23.4315C1801.57 8.42854 1781.22 -1.6822e-06 1760 -6.99382e-06L1760 40C1770.61 40 1780.78 44.2143 1788.28 51.7157C1795.79 59.2172 1800 69.3913 1800 80C1800 90.6087 1795.79 100.783 1788.28 108.284C1780.78 115.786 1770.61 120 1760 120L1760 160Z" fill="#27313F" fill-opacity="0.5"/>
<path d="M1840 160C1861.22 160 1881.57 151.571 1896.57 136.569C1911.57 121.566 1920 101.217 1920 80C1920 58.7827 1911.57 38.4344 1896.57 23.4315C1881.57 8.42854 1861.22 -1.6822e-06 1840 -6.99382e-06L1840 40C1850.61 40 1860.78 44.2143 1868.28 51.7157C1875.79 59.2172 1880 69.3913 1880 80C1880 90.6087 1875.79 100.783 1868.28 108.284C1860.78 115.786 1850.61 120 1840 120L1840 160Z" fill="#27313F"/>
<path fill-rule="evenodd" clip-rule="evenodd" d="M1760 880C1804.18 880 1840 915.817 1840 960C1795.82 960 1760 924.183 1760 880Z" fill="#27313F"/>
<path fill-rule="evenodd" clip-rule="evenodd" d="M1840 800C1840 844.183 1804.18 880 1760 880C1760 835.817 1795.82 800 1840 800Z" fill="#27313F"/>
<path fill-rule="evenodd" clip-rule="evenodd" d="M1840 880C1884.18 880 1920 915.817 1920 960C1875.82 960 1840 924.183 1840 880Z" fill="#27313F" fill-opacity="0.5"/>
<path fill-rule="evenodd" clip-rule="evenodd" d="M1920 800C1920 844.183 1884.18 880 1840 880C1840 835.817 1875.82 800 1920 800Z" fill="#27313F" fill-opacity="0.5"/>
<path d="M2720 0C2698.72 -2.53014e-07 2678.31 8.42855 2663.26 23.4315C2648.21 38.4344 2639.76 58.7827 2639.76 80C2639.76 101.217 2648.21 121.566 2663.26 136.569C2678.31 151.571 2698.72 160 2720 160L2720 80V0Z" fill="#27313F" fill-opacity="0.5"/>
<path d="M2560 160C2581.28 160 2601.69 151.571 2616.74 136.569C2631.79 121.566 2640.24 101.217 2640.24 80C2640.24 58.7827 2631.79 38.4344 2616.74 23.4315C2601.69 8.42855 2581.28 2.31131e-06 2560 -3.00031e-06L2560 80L2560 160Z" fill="#27313F"/>
<path fill-rule="evenodd" clip-rule="evenodd" d="M2640 720V640C2595.82 640 2560 675.817 2560 720V800C2604.18 800 2640 764.183 2640 720Z" fill="#27313F"/>
<path fill-rule="evenodd" clip-rule="evenodd" d="M2720 720V640C2675.82 640 2640 675.817 2640 720V800C2684.18 800 2720 764.183 2720 720Z" fill="#27313F" fill-opacity="0.5"/>
<path fill-rule="evenodd" clip-rule="evenodd" d="M240 320C195.817 320 160 284.183 160 240C204.183 240 240 275.817 240 320Z" fill="#27313F" fill-opacity="0.5"/>
<path fill-rule="evenodd" clip-rule="evenodd" d="M240 160C240 204.183 204.183 240 160 240C160 195.817 195.817 160 240 160Z" fill="#27313F"/>
<path fill-rule="evenodd" clip-rule="evenodd" d="M320 240C320 284.183 284.183 320 240 320C240 275.817 275.817 240 320 240Z" fill="#27313F"/>
<path fill-rule="evenodd" clip-rule="evenodd" d="M320 240C275.817 240 240 204.183 240 160C284.183 160 320 195.817 320 240Z" fill="#27313F" fill-opacity="0.5"/>
<path d="M320 1120C320 1098.99 315.861 1078.18 307.821 1058.77C299.78 1039.36 287.994 1021.72 273.137 1006.86C258.28 992.006 240.641 980.22 221.229 972.179C201.817 964.139 181.011 960 160 960L160 1120L320 1120Z" fill="#27313F"/>
<path d="M960 160C960 181.217 968.429 201.566 983.431 216.569C998.434 231.571 1018.78 240 1040 240C1061.22 240 1081.57 231.571 1096.57 216.569C1111.57 201.566 1120 181.217 1120 160L1080 160C1080 170.609 1075.79 180.783 1068.28 188.284C1060.78 195.786 1050.61 200 1040 200C1029.39 200 1019.22 195.786 1011.72 188.284C1004.21 180.783 1000 170.609 1000 160L960 160Z" fill="#27313F"/>
<path d="M1120 320C1120 298.783 1111.57 278.434 1096.57 263.431C1081.57 248.429 1061.22 240 1040 240C1018.78 240 998.434 248.429 983.431 263.431C968.429 278.434 960 298.783 960 320L1000 320C1000 309.391 1004.21 299.217 1011.72 291.716C1019.22 284.214 1029.39 280 1040 280C1050.61 280 1060.78 284.214 1068.28 291.716C1075.79 299.217 1080 309.391 1080 320L1120 320Z" fill="#27313F" fill-opacity="0.5"/>
<path fill-rule="evenodd" clip-rule="evenodd" d="M1040 1120C995.817 1120 960 1084.18 960 1040C1004.18 1040 1040 1075.82 1040 1120Z" fill="#27313F" fill-opacity="0.5"/>
<path fill-rule="evenodd" clip-rule="evenodd" d="M1040 960C1040 1004.18 1004.18 1040 960 1040C960 995.817 995.817 960 1040 960Z" fill="#27313F"/>
<path fill-rule="evenodd" clip-rule="evenodd" d="M1120 1040C1120 1084.18 1084.18 1120 1040 1120C1040 1075.82 1075.82 1040 1120 1040Z" fill="#27313F"/>
<path fill-rule="evenodd" clip-rule="evenodd" d="M1120 1040C1075.82 1040 1040 1004.18 1040 960C1084.18 960 1120 995.817 1120 1040Z" fill="#27313F" fill-opacity="0.5"/>
<path fill-rule="evenodd" clip-rule="evenodd" d="M1840 240V160C1795.82 160 1760 195.817 1760 240V320C1804.18 320 1840 284.183 1840 240Z" fill="#27313F"/>
<path fill-rule="evenodd" clip-rule="evenodd" d="M1920 240V160C1875.82 160 1840 195.817 1840 240V320C1884.18 320 1920 284.183 1920 240Z" fill="#27313F" fill-opacity="0.5"/>
<circle cx="1840" cy="1040" r="80" fill="#27313F"/>
<path fill-rule="evenodd" clip-rule="evenodd" d="M2640 320C2595.82 320 2560 284.183 2560 240C2604.18 240 2640 275.817 2640 320Z" fill="#27313F" fill-opacity="0.5"/>
<path fill-rule="evenodd" clip-rule="evenodd" d="M2640 160C2640 204.183 2604.18 240 2560 240C2560 195.817 2595.82 160 2640 160Z" fill="#27313F"/>
<path fill-rule="evenodd" clip-rule="evenodd" d="M2720 240C2720 284.183 2684.18 320 2640 320C2640 275.817 2675.82 240 2720 240Z" fill="#27313F"/>
<path fill-rule="evenodd" clip-rule="evenodd" d="M2720 240C2675.82 240 2640 204.183 2640 160C2684.18 160 2720 195.817 2720 240Z" fill="#27313F" fill-opacity="0.5"/>
<circle cx="2600" cy="920" r="40" fill="#27313F" fill-opacity="0.5"/>
<circle cx="2680" cy="840" r="40" fill="#27313F" fill-opacity="0.5"/>
<circle cx="2680" cy="920" r="40" fill="#27313F"/>
<circle cx="2600" cy="840" r="40" fill="#27313F"/>
<circle cx="240" cy="400" r="80" fill="#27313F"/>
<path fill-rule="evenodd" clip-rule="evenodd" d="M160 1200C204.183 1200 240 1235.82 240 1280C195.817 1280 160 1244.18 160 1200Z" fill="#27313F"/>
<path fill-rule="evenodd" clip-rule="evenodd" d="M240 1120C240 1164.18 204.183 1200 160 1200C160 1155.82 195.817 1120 240 1120Z" fill="#27313F"/>
<path fill-rule="evenodd" clip-rule="evenodd" d="M240 1200C284.183 1200 320 1235.82 320 1280C275.817 1280 240 1244.18 240 1200Z" fill="#27313F" fill-opacity="0.5"/>
<path fill-rule="evenodd" clip-rule="evenodd" d="M320 1120C320 1164.18 284.183 1200 240 1200C240 1155.82 275.817 1120 320 1120Z" fill="#27313F" fill-opacity="0.5"/>
<path d="M1120 320C1098.72 320 1078.31 328.429 1063.26 343.431C1048.21 358.434 1039.76 378.783 1039.76 400C1039.76 421.217 1048.21 441.566 1063.26 456.569C1078.31 471.571 1098.72 480 1120 480L1120 400V320Z" fill="#27313F" fill-opacity="0.5"/>
<path d="M960 480C981.281 480 1001.69 471.571 1016.74 456.569C1031.79 441.566 1040.24 421.217 1040.24 400C1040.24 378.783 1031.79 358.434 1016.74 343.431C1001.69 328.429 981.281 320 960 320L960 400L960 480Z" fill="#27313F"/>
<path d="M1120 1200C1120 1244.18 1084.18 1280 1040 1280C995.817 1280 960 1244.18 960 1200C960 1155.82 995.817 1120 1040 1120C1084.18 1120 1120 1155.82 1120 1200ZM1000 1200C1000 1222.09 1017.91 1240 1040 1240C1062.09 1240 1080 1222.09 1080 1200C1080 1177.91 1062.09 1160 1040 1160C1017.91 1160 1000 1177.91 1000 1200Z" fill="#27313F"/>
<path fill-rule="evenodd" clip-rule="evenodd" d="M1840 400C1795.82 400 1760 364.183 1760 320C1804.18 320 1840 355.817 1840 400Z" fill="#27313F"/>
<path fill-rule="evenodd" clip-rule="evenodd" d="M1840 400C1840 355.817 1875.82 320 1920 320C1920 364.183 1884.18 400 1840 400Z" fill="#27313F" fill-opacity="0.5"/>
<path fill-rule="evenodd" clip-rule="evenodd" d="M1760 480C1760 435.817 1795.82 400 1840 400C1840 444.183 1804.18 480 1760 480Z" fill="#27313F" fill-opacity="0.5"/>
<path fill-rule="evenodd" clip-rule="evenodd" d="M1920 480C1875.82 480 1840 444.183 1840 400C1884.18 400 1920 435.817 1920 480Z" fill="#27313F"/>
<path fill-rule="evenodd" clip-rule="evenodd" d="M1840 1200L1840 1280C1884.18 1280 1920 1244.18 1920 1200L1920 1120C1875.82 1120 1840 1155.82 1840 1200Z" fill="#27313F"/>
<path fill-rule="evenodd" clip-rule="evenodd" d="M1840 1200L1840 1280C1795.82 1280 1760 1244.18 1760 1200L1760 1120C1804.18 1120 1840 1155.82 1840 1200Z" fill="#27313F" fill-opacity="0.5"/>
<circle cx="2640" cy="400" r="80" fill="#27313F"/>
<path fill-rule="evenodd" clip-rule="evenodd" d="M2640 1200C2640 1244.18 2604.18 1280 2560 1280C2560 1235.82 2595.82 1200 2640 1200Z" fill="#27313F"/>
<path fill-rule="evenodd" clip-rule="evenodd" d="M2640 1200C2595.82 1200 2560 1164.18 2560 1120C2604.18 1120 2640 1155.82 2640 1200Z" fill="#27313F" fill-opacity="0.5"/>
<path fill-rule="evenodd" clip-rule="evenodd" d="M2720 1280C2675.82 1280 2640 1244.18 2640 1200C2684.18 1200 2720 1235.82 2720 1280Z" fill="#27313F" fill-opacity="0.5"/>
<path fill-rule="evenodd" clip-rule="evenodd" d="M2720 1120C2720 1164.18 2684.18 1200 2640 1200C2640 1155.82 2675.82 1120 2720 1120Z" fill="#27313F"/>
<path fill-rule="evenodd" clip-rule="evenodd" d="M240 560L240 640C284.183 640 320 604.183 320 560L320 480C275.817 480 240 515.817 240 560Z" fill="#27313F"/>
<path fill-rule="evenodd" clip-rule="evenodd" d="M240 560L240 640C195.817 640 160 604.183 160 560L160 480C204.183 480 240 515.817 240 560Z" fill="#27313F" fill-opacity="0.5"/>
<path d="M160 1280C160 1301.22 168.429 1321.57 183.431 1336.57C198.434 1351.57 218.783 1360 240 1360C261.217 1360 281.566 1351.57 296.569 1336.57C311.571 1321.57 320 1301.22 320 1280L280 1280C280 1290.61 275.786 1300.78 268.284 1308.28C260.783 1315.79 250.609 1320 240 1320C229.391 1320 219.217 1315.79 211.716 1308.28C204.214 1300.78 200 1290.61 200 1280L160 1280Z" fill="#27313F"/>
<path d="M320 1440C320 1418.78 311.571 1398.43 296.569 1383.43C281.566 1368.43 261.217 1360 240 1360C218.783 1360 198.434 1368.43 183.431 1383.43C168.429 1398.43 160 1418.78 160 1440L200 1440C200 1429.39 204.214 1419.22 211.716 1411.72C219.217 1404.21 229.391 1400 240 1400C250.609 1400 260.783 1404.21 268.284 1411.72C275.786 1419.22 280 1429.39 280 1440L320 1440Z" fill="#27313F" fill-opacity="0.5"/>
<path fill-rule="evenodd" clip-rule="evenodd" d="M1040 640C995.817 640 960 604.183 960 560C1004.18 560 1040 595.817 1040 640Z" fill="#27313F" fill-opacity="0.5"/>
<path fill-rule="evenodd" clip-rule="evenodd" d="M1040 480C1040 524.183 1004.18 560 960 560C960 515.817 995.817 480 1040 480Z" fill="#27313F"/>
<path fill-rule="evenodd" clip-rule="evenodd" d="M1120 560C1120 604.183 1084.18 640 1040 640C1040 595.817 1075.82 560 1120 560Z" fill="#27313F"/>
<path fill-rule="evenodd" clip-rule="evenodd" d="M1120 560C1075.82 560 1040 524.183 1040 480C1084.18 480 1120 515.817 1120 560Z" fill="#27313F" fill-opacity="0.5"/>
<path fill-rule="evenodd" clip-rule="evenodd" d="M1040 1360L1040 1440C1084.18 1440 1120 1404.18 1120 1360L1120 1280C1075.82 1280 1040 1315.82 1040 1360Z" fill="#27313F"/>
<path fill-rule="evenodd" clip-rule="evenodd" d="M1040 1360L1040 1440C995.817 1440 960 1404.18 960 1360L960 1280C1004.18 1280 1040 1315.82 1040 1360Z" fill="#27313F" fill-opacity="0.5"/>
<circle cx="1800" cy="600" r="40" fill="#27313F" fill-opacity="0.5"/>
<circle cx="1880" cy="520" r="40" fill="#27313F" fill-opacity="0.5"/>
<circle cx="1880" cy="600" r="40" fill="#27313F"/>
<circle cx="1800" cy="520" r="40" fill="#27313F"/>
<path fill-rule="evenodd" clip-rule="evenodd" d="M1840 1440C1795.82 1440 1760 1404.18 1760 1360C1804.18 1360 1840 1395.82 1840 1440Z" fill="#27313F" fill-opacity="0.5"/>
<path fill-rule="evenodd" clip-rule="evenodd" d="M1840 1280C1840 1324.18 1804.18 1360 1760 1360C1760 1315.82 1795.82 1280 1840 1280Z" fill="#27313F"/>
<path fill-rule="evenodd" clip-rule="evenodd" d="M1920 1360C1920 1404.18 1884.18 1440 1840 1440C1840 1395.82 1875.82 1360 1920 1360Z" fill="#27313F"/>
<path fill-rule="evenodd" clip-rule="evenodd" d="M1920 1360C1875.82 1360 1840 1324.18 1840 1280C1884.18 1280 1920 1315.82 1920 1360Z" fill="#27313F" fill-opacity="0.5"/>
<path d="M2640 480C2629.49 480 2619.09 482.069 2609.39 486.09C2599.68 490.11 2590.86 496.003 2583.43 503.431C2576 510.86 2570.11 519.679 2566.09 529.385C2562.07 539.091 2560 549.494 2560 560L2640 560V480Z" fill="#27313F" fill-opacity="0.5"/>
<path d="M2640 640C2650.51 640 2660.91 637.931 2670.61 633.91C2680.32 629.89 2689.14 623.997 2696.57 616.569C2704 609.14 2709.89 600.321 2713.91 590.615C2717.93 580.909 2720 570.506 2720 560L2640 560L2640 640Z" fill="#27313F"/>
<circle cx="2600" cy="1400" r="40" fill="#27313F" fill-opacity="0.5"/>
<circle cx="2680" cy="1320" r="40" fill="#27313F" fill-opacity="0.5"/>
<circle cx="2680" cy="1400" r="40" fill="#27313F"/>
<circle cx="2600" cy="1320" r="40" fill="#27313F"/>
<path fill-rule="evenodd" clip-rule="evenodd" d="M320 640C320 728.366 248.366 800 160 800C160 711.634 231.634 640 320 640Z" fill="#27313F"/>
<path d="M320 1440C298.719 1440 278.31 1448.43 263.262 1463.43C248.214 1478.43 239.76 1498.78 239.76 1520C239.76 1541.22 248.214 1561.57 263.262 1576.57C278.31 1591.57 298.719 1600 320 1600L320 1520V1440Z" fill="#27313F" fill-opacity="0.5"/>
<path d="M160 1600C181.281 1600 201.69 1591.57 216.738 1576.57C231.786 1561.57 240.24 1541.22 240.24 1520C240.24 1498.78 231.786 1478.43 216.738 1463.43C201.69 1448.43 181.281 1440 160 1440L160 1520L160 1600Z" fill="#27313F"/>
<path d="M960 800C981.217 800 1001.57 791.571 1016.57 776.569C1031.57 761.566 1040 741.217 1040 720C1040 698.783 1031.57 678.434 1016.57 663.431C1001.57 648.429 981.217 640 960 640L960 680C970.609 680 980.783 684.214 988.284 691.716C995.786 699.217 1000 709.391 1000 720C1000 730.609 995.786 740.783 988.284 748.284C980.783 755.786 970.609 760 960 760L960 800Z" fill="#27313F"/>
<path d="M1120 640C1098.78 640 1078.43 648.429 1063.43 663.431C1048.43 678.434 1040 698.783 1040 720C1040 741.217 1048.43 761.566 1063.43 776.569C1078.43 791.571 1098.78 800 1120 800L1120 760C1109.39 760 1099.22 755.786 1091.72 748.284C1084.21 740.783 1080 730.609 1080 720C1080 709.391 1084.21 699.217 1091.72 691.716C1099.22 684.214 1109.39 680 1120 680V640Z" fill="#27313F" fill-opacity="0.5"/>
<path fill-rule="evenodd" clip-rule="evenodd" d="M1120 1600C1031.63 1600 960 1528.37 960 1440C1048.37 1440 1120 1511.63 1120 1600Z" fill="#27313F"/>
<path d="M1920 800C1920 778.988 1915.86 758.183 1907.82 738.771C1899.78 719.359 1887.99 701.72 1873.14 686.863C1858.28 672.006 1840.64 660.22 1821.23 652.179C1801.82 644.139 1781.01 640 1760 640L1760 800L1920 800Z" fill="#27313F"/>
<path d="M1760 1600C1781.22 1600 1801.57 1591.57 1816.57 1576.57C1831.57 1561.57 1840 1541.22 1840 1520C1840 1498.78 1831.57 1478.43 1816.57 1463.43C1801.57 1448.43 1781.22 1440 1760 1440L1760 1480C1770.61 1480 1780.78 1484.21 1788.28 1491.72C1795.79 1499.22 1800 1509.39 1800 1520C1800 1530.61 1795.79 1540.78 1788.28 1548.28C1780.78 1555.79 1770.61 1560 1760 1560L1760 1600Z" fill="#27313F"/>
<path d="M1920 1440C1898.78 1440 1878.43 1448.43 1863.43 1463.43C1848.43 1478.43 1840 1498.78 1840 1520C1840 1541.22 1848.43 1561.57 1863.43 1576.57C1878.43 1591.57 1898.78 1600 1920 1600L1920 1560C1909.39 1560 1899.22 1555.79 1891.72 1548.28C1884.21 1540.78 1880 1530.61 1880 1520C1880 1509.39 1884.21 1499.22 1891.72 1491.72C1899.22 1484.21 1909.39 1480 1920 1480V1440Z" fill="#27313F" fill-opacity="0.5"/>
<path fill-rule="evenodd" clip-rule="evenodd" d="M2640 1040V960C2595.82 960 2560 995.817 2560 1040V1120C2604.18 1120 2640 1084.18 2640 1040Z" fill="#27313F"/>
<path fill-rule="evenodd" clip-rule="evenodd" d="M2720 1040V960C2675.82 960 2640 995.817 2640 1040V1120C2684.18 1120 2720 1084.18 2720 1040Z" fill="#27313F" fill-opacity="0.5"/>
<path d="M2720 1440C2698.99 1440 2678.18 1444.14 2658.77 1452.18C2639.36 1460.22 2621.72 1472.01 2606.86 1486.86C2592.01 1501.72 2580.22 1519.36 2572.18 1538.77C2564.14 1558.18 2560 1578.99 2560 1600L2720 1600V1440Z" fill="#27313F"/>
<circle cx="400" cy="80" r="80" fill="#27313F"/>
<path fill-rule="evenodd" clip-rule="evenodd" d="M400 960C355.817 960 320 924.183 320 880C364.183 880 400 915.817 400 960Z" fill="#27313F" fill-opacity="0.5"/>
<path fill-rule="evenodd" clip-rule="evenodd" d="M400 800C400 844.183 364.183 880 320 880C320 835.817 355.817 800 400 800Z" fill="#27313F"/>
<path fill-rule="evenodd" clip-rule="evenodd" d="M480 880C480 924.183 444.183 960 400 960C400 915.817 435.817 880 480 880Z" fill="#27313F"/>
<path fill-rule="evenodd" clip-rule="evenodd" d="M480 880C435.817 880 400 844.183 400 800C444.183 800 480 835.817 480 880Z" fill="#27313F" fill-opacity="0.5"/>
<path fill-rule="evenodd" clip-rule="evenodd" d="M1200 80L1200 160C1244.18 160 1280 124.183 1280 80L1280 0C1235.82 -3.86258e-06 1200 35.8172 1200 80Z" fill="#27313F"/>
<path fill-rule="evenodd" clip-rule="evenodd" d="M1200 80L1200 160C1155.82 160 1120 124.183 1120 80L1120 0C1164.18 3.86258e-06 1200 35.8172 1200 80Z" fill="#27313F" fill-opacity="0.5"/>
<circle cx="1200" cy="880" r="80" fill="#27313F"/>
<path fill-rule="evenodd" clip-rule="evenodd" d="M2000 80C2000 124.183 1964.18 160 1920 160C1920 115.817 1955.82 80 2000 80Z" fill="#27313F"/>
<path fill-rule="evenodd" clip-rule="evenodd" d="M2000 80C1955.82 80 1920 44.1828 1920 -3.49691e-06C1964.18 -1.56562e-06 2000 35.8172 2000 80Z" fill="#27313F" fill-opacity="0.5"/>
<path fill-rule="evenodd" clip-rule="evenodd" d="M2080 160C2035.82 160 2000 124.183 2000 80C2044.18 80 2080 115.817 2080 160Z" fill="#27313F" fill-opacity="0.5"/>
<path fill-rule="evenodd" clip-rule="evenodd" d="M2080 0C2080 44.1828 2044.18 80 2000 80C2000 35.8172 2035.82 0 2080 0Z" fill="#27313F"/>
<path fill-rule="evenodd" clip-rule="evenodd" d="M2000 880L2000 960C2044.18 960 2080 924.183 2080 880L2080 800C2035.82 800 2000 835.817 2000 880Z" fill="#27313F"/>
<path fill-rule="evenodd" clip-rule="evenodd" d="M2000 880L2000 960C1955.82 960 1920 924.183 1920 880L1920 800C1964.18 800 2000 835.817 2000 880Z" fill="#27313F" fill-opacity="0.5"/>
<circle cx="2800" cy="80" r="80" fill="#27313F"/>
<path fill-rule="evenodd" clip-rule="evenodd" d="M2800 880C2800 924.183 2764.18 960 2720 960C2720 915.817 2755.82 880 2800 880Z" fill="#27313F"/>
<path fill-rule="evenodd" clip-rule="evenodd" d="M2800 880C2755.82 880 2720 844.183 2720 800C2764.18 800 2800 835.817 2800 880Z" fill="#27313F" fill-opacity="0.5"/>
<path fill-rule="evenodd" clip-rule="evenodd" d="M2880 960C2835.82 960 2800 924.183 2800 880C2844.18 880 2880 915.817 2880 960Z" fill="#27313F" fill-opacity="0.5"/>
<path fill-rule="evenodd" clip-rule="evenodd" d="M2880 800C2880 844.183 2844.18 880 2800 880C2800 835.817 2835.82 800 2880 800Z" fill="#27313F"/>
<path d="M400 160C389.494 160 379.091 162.069 369.385 166.09C359.679 170.11 350.86 176.003 343.431 183.431C336.003 190.86 330.11 199.679 326.09 209.385C322.069 219.091 320 229.494 320 240L400 240V160Z" fill="#27313F" fill-opacity="0.5"/>
<path d="M400 320C410.506 320 420.909 317.931 430.615 313.91C440.321 309.89 449.14 303.997 456.569 296.569C463.997 289.14 469.89 280.321 473.91 270.615C477.931 260.909 480 250.506 480 240L400 240L400 320Z" fill="#27313F"/>
<path d="M480 1040C480 1084.18 444.183 1120 400 1120C355.817 1120 320 1084.18 320 1040C320 995.817 355.817 960 400 960C444.183 960 480 995.817 480 1040ZM360 1040C360 1062.09 377.909 1080 400 1080C422.091 1080 440 1062.09 440 1040C440 1017.91 422.091 1000 400 1000C377.909 1000 360 1017.91 360 1040Z" fill="#27313F"/>
<path fill-rule="evenodd" clip-rule="evenodd" d="M1280 160C1280 248.366 1208.37 320 1120 320C1120 231.634 1191.63 160 1280 160Z" fill="#27313F"/>
<path d="M1200 960C1189.49 960 1179.09 962.069 1169.39 966.09C1159.68 970.11 1150.86 976.003 1143.43 983.431C1136 990.86 1130.11 999.679 1126.09 1009.39C1122.07 1019.09 1120 1029.49 1120 1040L1200 1040V960Z" fill="#27313F" fill-opacity="0.5"/>
<path d="M1200 1120C1210.51 1120 1220.91 1117.93 1230.61 1113.91C1240.32 1109.89 1249.14 1104 1256.57 1096.57C1264 1089.14 1269.89 1080.32 1273.91 1070.61C1277.93 1060.91 1280 1050.51 1280 1040L1200 1040L1200 1120Z" fill="#27313F"/>
<circle cx="1960" cy="280" r="40" fill="#27313F" fill-opacity="0.5"/>
<circle cx="2040" cy="200" r="40" fill="#27313F" fill-opacity="0.5"/>
<circle cx="2040" cy="280" r="40" fill="#27313F"/>
<circle cx="1960" cy="200" r="40" fill="#27313F"/>
<path fill-rule="evenodd" clip-rule="evenodd" d="M2080 960C2080 1048.37 2008.37 1120 1920 1120C1920 1031.63 1991.63 960 2080 960Z" fill="#27313F"/>
<path d="M2800 160C2789.49 160 2779.09 162.069 2769.39 166.09C2759.68 170.11 2750.86 176.003 2743.43 183.431C2736 190.86 2730.11 199.679 2726.09 209.385C2722.07 219.091 2720 229.494 2720 240L2800 240V160Z" fill="#27313F" fill-opacity="0.5"/>
<path d="M2800 320C2810.51 320 2820.91 317.931 2830.61 313.91C2840.32 309.89 2849.14 303.997 2856.57 296.569C2864 289.14 2869.89 280.321 2873.91 270.615C2877.93 260.909 2880 250.506 2880 240L2800 240L2800 320Z" fill="#27313F"/>
<circle cx="2760" cy="1080" r="40" fill="#27313F" fill-opacity="0.5"/>
<circle cx="2840" cy="1000" r="40" fill="#27313F" fill-opacity="0.5"/>
<circle cx="2840" cy="1080" r="40" fill="#27313F"/>
<circle cx="2760" cy="1000" r="40" fill="#27313F"/>
<path fill-rule="evenodd" clip-rule="evenodd" d="M400 400C400 444.183 364.183 480 320 480C320 435.817 355.817 400 400 400Z" fill="#27313F" fill-opacity="0.5"/>
<path fill-rule="evenodd" clip-rule="evenodd" d="M400 320C400 364.183 364.183 400 320 400C320 355.817 355.817 320 400 320Z" fill="#27313F" fill-opacity="0.5"/>
<path fill-rule="evenodd" clip-rule="evenodd" d="M480 400C480 444.183 444.183 480 400 480C400 435.817 435.817 400 480 400Z" fill="#27313F"/>
<path fill-rule="evenodd" clip-rule="evenodd" d="M480 320C480 364.183 444.183 400 400 400C400 355.817 435.817 320 480 320Z" fill="#27313F"/>
<path fill-rule="evenodd" clip-rule="evenodd" d="M400 1200L480 1200C480 1155.82 444.183 1120 400 1120L320 1120C320 1164.18 355.817 1200 400 1200Z" fill="#27313F"/>
<path fill-rule="evenodd" clip-rule="evenodd" d="M400 1200L480 1200C480 1244.18 444.183 1280 400 1280L320 1280C320 1235.82 355.817 1200 400 1200Z" fill="#27313F" fill-opacity="0.5"/>
<circle cx="1200" cy="400" r="80" fill="#27313F"/>
<path fill-rule="evenodd" clip-rule="evenodd" d="M1200 1200C1200 1244.18 1164.18 1280 1120 1280C1120 1235.82 1155.82 1200 1200 1200Z" fill="#27313F" fill-opacity="0.5"/>
<path fill-rule="evenodd" clip-rule="evenodd" d="M1200 1120C1200 1164.18 1164.18 1200 1120 1200C1120 1155.82 1155.82 1120 1200 1120Z" fill="#27313F" fill-opacity="0.5"/>
<path fill-rule="evenodd" clip-rule="evenodd" d="M1280 1200C1280 1244.18 1244.18 1280 1200 1280C1200 1235.82 1235.82 1200 1280 1200Z" fill="#27313F"/>
<path fill-rule="evenodd" clip-rule="evenodd" d="M1280 1120C1280 1164.18 1244.18 1200 1200 1200C1200 1155.82 1235.82 1120 1280 1120Z" fill="#27313F"/>
<path d="M2080 320C2058.99 320 2038.18 324.139 2018.77 332.179C1999.36 340.22 1981.72 352.006 1966.86 366.863C1952.01 381.72 1940.22 399.359 1932.18 418.771C1924.14 438.183 1920 458.989 1920 480L2080 480V320Z" fill="#27313F"/>
<path d="M1920 1280C1941.22 1280 1961.57 1271.57 1976.57 1256.57C1991.57 1241.57 2000 1221.22 2000 1200C2000 1178.78 1991.57 1158.43 1976.57 1143.43C1961.57 1128.43 1941.22 1120 1920 1120L1920 1160C1930.61 1160 1940.78 1164.21 1948.28 1171.72C1955.79 1179.22 1960 1189.39 1960 1200C1960 1210.61 1955.79 1220.78 1948.28 1228.28C1940.78 1235.79 1930.61 1240 1920 1240L1920 1280Z" fill="#27313F"/>
<path d="M2080 1120C2058.78 1120 2038.43 1128.43 2023.43 1143.43C2008.43 1158.43 2000 1178.78 2000 1200C2000 1221.22 2008.43 1241.57 2023.43 1256.57C2038.43 1271.57 2058.78 1280 2080 1280L2080 1240C2069.39 1240 2059.22 1235.79 2051.72 1228.28C2044.21 1220.78 2040 1210.61 2040 1200C2040 1189.39 2044.21 1179.22 2051.72 1171.72C2059.22 1164.21 2069.39 1160 2080 1160V1120Z" fill="#27313F" fill-opacity="0.5"/>
<path fill-rule="evenodd" clip-rule="evenodd" d="M2800 400C2800 444.183 2764.18 480 2720 480C2720 435.817 2755.82 400 2800 400Z" fill="#27313F" fill-opacity="0.5"/>
<path fill-rule="evenodd" clip-rule="evenodd" d="M2800 320C2800 364.183 2764.18 400 2720 400C2720 355.817 2755.82 320 2800 320Z" fill="#27313F" fill-opacity="0.5"/>
<path fill-rule="evenodd" clip-rule="evenodd" d="M2880 400C2880 444.183 2844.18 480 2800 480C2800 435.817 2835.82 400 2880 400Z" fill="#27313F"/>
<path fill-rule="evenodd" clip-rule="evenodd" d="M2880 320C2880 364.183 2844.18 400 2800 400C2800 355.817 2835.82 320 2880 320Z" fill="#27313F"/>
<path d="M2880 1120C2858.99 1120 2838.18 1124.14 2818.77 1132.18C2799.36 1140.22 2781.72 1152.01 2766.86 1166.86C2752.01 1181.72 2740.22 1199.36 2732.18 1218.77C2724.14 1238.18 2720 1258.99 2720 1280L2880 1280V1120Z" fill="#27313F"/>
<path d="M320 640C341.217 640 361.566 631.571 376.569 616.569C391.571 601.566 400 581.217 400 560C400 538.783 391.571 518.434 376.569 503.431C361.566 488.429 341.217 480 320 480L320 520C330.609 520 340.783 524.214 348.284 531.716C355.786 539.217 360 549.391 360 560C360 570.609 355.786 580.783 348.284 588.284C340.783 595.786 330.609 600 320 600L320 640Z" fill="#27313F"/>
<path d="M480 480C458.783 480 438.434 488.429 423.431 503.431C408.429 518.434 400 538.783 400 560C400 581.217 408.429 601.566 423.431 616.569C438.434 631.571 458.783 640 480 640L480 600C469.391 600 459.217 595.786 451.716 588.284C444.214 580.783 440 570.609 440 560C440 549.391 444.214 539.217 451.716 531.716C459.217 524.214 469.391 520 480 520V480Z" fill="#27313F" fill-opacity="0.5"/>
<path fill-rule="evenodd" clip-rule="evenodd" d="M480 1440C391.634 1440 320 1368.37 320 1280C408.366 1280 480 1351.63 480 1440Z" fill="#27313F"/>
<path d="M1200 480C1189.49 480 1179.09 482.069 1169.39 486.09C1159.68 490.11 1150.86 496.003 1143.43 503.431C1136 510.86 1130.11 519.679 1126.09 529.385C1122.07 539.091 1120 549.494 1120 560L1200 560V480Z" fill="#27313F" fill-opacity="0.5"/>
<path d="M1200 640C1210.51 640 1220.91 637.931 1230.61 633.91C1240.32 629.89 1249.14 623.997 1256.57 616.569C1264 609.14 1269.89 600.321 1273.91 590.615C1277.93 580.909 1280 570.506 1280 560L1200 560L1200 640Z" fill="#27313F"/>
<path d="M1120 1440C1141.22 1440 1161.57 1431.57 1176.57 1416.57C1191.57 1401.57 1200 1381.22 1200 1360C1200 1338.78 1191.57 1318.43 1176.57 1303.43C1161.57 1288.43 1141.22 1280 1120 1280L1120 1320C1130.61 1320 1140.78 1324.21 1148.28 1331.72C1155.79 1339.22 1160 1349.39 1160 1360C1160 1370.61 1155.79 1380.78 1148.28 1388.28C1140.78 1395.79 1130.61 1400 1120 1400L1120 1440Z" fill="#27313F"/>
<path d="M1280 1280C1258.78 1280 1238.43 1288.43 1223.43 1303.43C1208.43 1318.43 1200 1338.78 1200 1360C1200 1381.22 1208.43 1401.57 1223.43 1416.57C1238.43 1431.57 1258.78 1440 1280 1440L1280 1400C1269.39 1400 1259.22 1395.79 1251.72 1388.28C1244.21 1380.78 1240 1370.61 1240 1360C1240 1349.39 1244.21 1339.22 1251.72 1331.72C1259.22 1324.21 1269.39 1320 1280 1320V1280Z" fill="#27313F" fill-opacity="0.5"/>
<path fill-rule="evenodd" clip-rule="evenodd" d="M2000 640C2000 595.817 2035.82 560 2080 560C2080 604.183 2044.18 640 2000 640Z" fill="#27313F"/>
<path fill-rule="evenodd" clip-rule="evenodd" d="M1920 560C1964.18 560 2000 595.817 2000 640C1955.82 640 1920 604.183 1920 560Z" fill="#27313F"/>
<path fill-rule="evenodd" clip-rule="evenodd" d="M2000 560C2000 515.817 2035.82 480 2080 480C2080 524.183 2044.18 560 2000 560Z" fill="#27313F" fill-opacity="0.5"/>
<path fill-rule="evenodd" clip-rule="evenodd" d="M1920 480C1964.18 480 2000 515.817 2000 560C1955.82 560 1920 524.183 1920 480Z" fill="#27313F" fill-opacity="0.5"/>
<path d="M2000 1280C1989.49 1280 1979.09 1282.07 1969.39 1286.09C1959.68 1290.11 1950.86 1296 1943.43 1303.43C1936 1310.86 1930.11 1319.68 1926.09 1329.39C1922.07 1339.09 1920 1349.49 1920 1360L2000 1360V1280Z" fill="#27313F" fill-opacity="0.5"/>
<path d="M2000 1440C2010.51 1440 2020.91 1437.93 2030.61 1433.91C2040.32 1429.89 2049.14 1424 2056.57 1416.57C2064 1409.14 2069.89 1400.32 2073.91 1390.61C2077.93 1380.91 2080 1370.51 2080 1360L2000 1360L2000 1440Z" fill="#27313F"/>
<path d="M2720 640C2741.22 640 2761.57 631.571 2776.57 616.569C2791.57 601.566 2800 581.217 2800 560C2800 538.783 2791.57 518.434 2776.57 503.431C2761.57 488.429 2741.22 480 2720 480L2720 520C2730.61 520 2740.78 524.214 2748.28 531.716C2755.79 539.217 2760 549.391 2760 560C2760 570.609 2755.79 580.783 2748.28 588.284C2740.78 595.786 2730.61 600 2720 600L2720 640Z" fill="#27313F" fill-opacity="0.5"/>
<path d="M2800 640C2821.22 640 2841.57 631.571 2856.57 616.569C2871.57 601.566 2880 581.217 2880 560C2880 538.783 2871.57 518.434 2856.57 503.431C2841.57 488.429 2821.22 480 2800 480L2800 520C2810.61 520 2820.78 524.214 2828.28 531.716C2835.79 539.217 2840 549.391 2840 560C2840 570.609 2835.79 580.783 2828.28 588.284C2820.78 595.786 2810.61 600 2800 600L2800 640Z" fill="#27313F"/>
<path fill-rule="evenodd" clip-rule="evenodd" d="M2800 1440C2800 1395.82 2835.82 1360 2880 1360C2880 1404.18 2844.18 1440 2800 1440Z" fill="#27313F"/>
<path fill-rule="evenodd" clip-rule="evenodd" d="M2720 1360C2764.18 1360 2800 1395.82 2800 1440C2755.82 1440 2720 1404.18 2720 1360Z" fill="#27313F"/>
<path fill-rule="evenodd" clip-rule="evenodd" d="M2800 1360C2800 1315.82 2835.82 1280 2880 1280C2880 1324.18 2844.18 1360 2800 1360Z" fill="#27313F" fill-opacity="0.5"/>
<path fill-rule="evenodd" clip-rule="evenodd" d="M2720 1280C2764.18 1280 2800 1315.82 2800 1360C2755.82 1360 2720 1324.18 2720 1280Z" fill="#27313F" fill-opacity="0.5"/>
<path d="M480 640C458.719 640 438.31 648.429 423.262 663.431C408.214 678.434 399.76 698.783 399.76 720C399.76 741.217 408.214 761.566 423.262 776.569C438.31 791.571 458.719 800 480 800L480 720V640Z" fill="#27313F" fill-opacity="0.5"/>
<path d="M320 800C341.281 800 361.69 791.571 376.738 776.569C391.786 761.566 400.24 741.217 400.24 720C400.24 698.783 391.786 678.434 376.738 663.431C361.69 648.429 341.281 640 320 640L320 720L320 800Z" fill="#27313F"/>
<circle cx="400" cy="1520" r="80" fill="#27313F"/>
<path fill-rule="evenodd" clip-rule="evenodd" d="M1200 720C1200 764.183 1164.18 800 1120 800C1120 755.817 1155.82 720 1200 720Z" fill="#27313F" fill-opacity="0.5"/>
<path fill-rule="evenodd" clip-rule="evenodd" d="M1200 640C1200 684.183 1164.18 720 1120 720C1120 675.817 1155.82 640 1200 640Z" fill="#27313F" fill-opacity="0.5"/>
<path fill-rule="evenodd" clip-rule="evenodd" d="M1280 720C1280 764.183 1244.18 800 1200 800C1200 755.817 1235.82 720 1280 720Z" fill="#27313F"/>
<path fill-rule="evenodd" clip-rule="evenodd" d="M1280 640C1280 684.183 1244.18 720 1200 720C1200 675.817 1235.82 640 1280 640Z" fill="#27313F"/>
<path d="M1280 1440C1258.72 1440 1238.31 1448.43 1223.26 1463.43C1208.21 1478.43 1199.76 1498.78 1199.76 1520C1199.76 1541.22 1208.21 1561.57 1223.26 1576.57C1238.31 1591.57 1258.72 1600 1280 1600L1280 1520V1440Z" fill="#27313F" fill-opacity="0.5"/>
<path d="M1120 1600C1141.28 1600 1161.69 1591.57 1176.74 1576.57C1191.79 1561.57 1200.24 1541.22 1200.24 1520C1200.24 1498.78 1191.79 1478.43 1176.74 1463.43C1161.69 1448.43 1141.28 1440 1120 1440L1120 1520L1120 1600Z" fill="#27313F"/>
<path d="M2080 720C2080 764.183 2044.18 800 2000 800C1955.82 800 1920 764.183 1920 720C1920 675.817 1955.82 640 2000 640C2044.18 640 2080 675.817 2080 720ZM1960 720C1960 742.091 1977.91 760 2000 760C2022.09 760 2040 742.091 2040 720C2040 697.909 2022.09 680 2000 680C1977.91 680 1960 697.909 1960 720Z" fill="#27313F"/>
<path fill-rule="evenodd" clip-rule="evenodd" d="M2000 1520C2000 1564.18 1964.18 1600 1920 1600C1920 1555.82 1955.82 1520 2000 1520Z" fill="#27313F" fill-opacity="0.5"/>
<path fill-rule="evenodd" clip-rule="evenodd" d="M2000 1440C2000 1484.18 1964.18 1520 1920 1520C1920 1475.82 1955.82 1440 2000 1440Z" fill="#27313F" fill-opacity="0.5"/>
<path fill-rule="evenodd" clip-rule="evenodd" d="M2080 1520C2080 1564.18 2044.18 1600 2000 1600C2000 1555.82 2035.82 1520 2080 1520Z" fill="#27313F"/>
<path fill-rule="evenodd" clip-rule="evenodd" d="M2080 1440C2080 1484.18 2044.18 1520 2000 1520C2000 1475.82 2035.82 1440 2080 1440Z" fill="#27313F"/>
<path fill-rule="evenodd" clip-rule="evenodd" d="M2800 720V640C2755.82 640 2720 675.817 2720 720V800C2764.18 800 2800 764.183 2800 720Z" fill="#27313F"/>
<path fill-rule="evenodd" clip-rule="evenodd" d="M2880 720V640C2835.82 640 2800 675.817 2800 720V800C2844.18 800 2880 764.183 2880 720Z" fill="#27313F" fill-opacity="0.5"/>
<path d="M2880 1520C2880 1564.18 2844.18 1600 2800 1600C2755.82 1600 2720 1564.18 2720 1520C2720 1475.82 2755.82 1440 2800 1440C2844.18 1440 2880 1475.82 2880 1520ZM2760 1520C2760 1542.09 2777.91 1560 2800 1560C2822.09 1560 2840 1542.09 2840 1520C2840 1497.91 2822.09 1480 2800 1480C2777.91 1480 2760 1497.91 2760 1520Z" fill="#27313F"/>
<path fill-rule="evenodd" clip-rule="evenodd" d="M560 80C560 124.183 524.183 160 480 160C480 115.817 515.817 80 560 80Z" fill="#27313F"/>
<path fill-rule="evenodd" clip-rule="evenodd" d="M560 80C515.817 80 480 44.1828 480 -3.49691e-06C524.183 -1.56562e-06 560 35.8172 560 80Z" fill="#27313F" fill-opacity="0.5"/>
<path fill-rule="evenodd" clip-rule="evenodd" d="M640 160C595.817 160 560 124.183 560 80C604.183 80 640 115.817 640 160Z" fill="#27313F" fill-opacity="0.5"/>
<path fill-rule="evenodd" clip-rule="evenodd" d="M640 0C640 44.1828 604.183 80 560 80C560 35.8172 595.817 0 640 0Z" fill="#27313F"/>
<path d="M560 800C549.494 800 539.091 802.069 529.385 806.09C519.679 810.11 510.86 816.003 503.431 823.431C496.003 830.86 490.11 839.679 486.09 849.385C482.069 859.091 480 869.494 480 880L560 880V800Z" fill="#27313F" fill-opacity="0.5"/>
<path d="M560 960C570.506 960 580.909 957.931 590.615 953.91C600.321 949.89 609.14 943.997 616.569 936.569C623.997 929.14 629.89 920.321 633.91 910.615C637.931 900.909 640 890.506 640 880L560 880L560 960Z" fill="#27313F"/>
<path d="M1280 160C1301.22 160 1321.57 151.571 1336.57 136.569C1351.57 121.566 1360 101.217 1360 80C1360 58.7827 1351.57 38.4344 1336.57 23.4315C1321.57 8.42854 1301.22 -1.6822e-06 1280 -6.99382e-06L1280 40C1290.61 40 1300.78 44.2143 1308.28 51.7157C1315.79 59.2172 1320 69.3913 1320 80C1320 90.6087 1315.79 100.783 1308.28 108.284C1300.78 115.786 1290.61 120 1280 120L1280 160Z" fill="#27313F"/>
<path d="M1440 0C1418.78 -2.53014e-07 1398.43 8.42855 1383.43 23.4315C1368.43 38.4344 1360 58.7827 1360 80C1360 101.217 1368.43 121.566 1383.43 136.569C1398.43 151.571 1418.78 160 1440 160L1440 120C1429.39 120 1419.22 115.786 1411.72 108.284C1404.21 100.783 1400 90.6087 1400 80C1400 69.3913 1404.21 59.2172 1411.72 51.7157C1419.22 44.2143 1429.39 40 1440 40V0Z" fill="#27313F" fill-opacity="0.5"/>
<path fill-rule="evenodd" clip-rule="evenodd" d="M1360 880C1315.82 880 1280 844.183 1280 800C1324.18 800 1360 835.817 1360 880Z" fill="#27313F"/>
<path fill-rule="evenodd" clip-rule="evenodd" d="M1360 880C1360 835.817 1395.82 800 1440 800C1440 844.183 1404.18 880 1360 880Z" fill="#27313F" fill-opacity="0.5"/>
<path fill-rule="evenodd" clip-rule="evenodd" d="M1280 960C1280 915.817 1315.82 880 1360 880C1360 924.183 1324.18 960 1280 960Z" fill="#27313F" fill-opacity="0.5"/>
<path fill-rule="evenodd" clip-rule="evenodd" d="M1440 960C1395.82 960 1360 924.183 1360 880C1404.18 880 1440 915.817 1440 960Z" fill="#27313F"/>
<path d="M2240 0C2218.99 -2.5056e-07 2198.18 4.13852 2178.77 12.1793C2159.36 20.22 2141.72 32.0055 2126.86 46.8629C2112.01 61.7203 2100.22 79.3586 2092.18 98.7707C2084.14 118.183 2080 138.989 2080 160L2240 160V0Z" fill="#27313F"/>
<path d="M2080 960C2101.22 960 2121.57 951.571 2136.57 936.569C2151.57 921.566 2160 901.217 2160 880C2160 858.783 2151.57 838.434 2136.57 823.431C2121.57 808.429 2101.22 800 2080 800L2080 840C2090.61 840 2100.78 844.214 2108.28 851.716C2115.79 859.217 2120 869.391 2120 880C2120 890.609 2115.79 900.783 2108.28 908.284C2100.78 915.786 2090.61 920 2080 920L2080 960Z" fill="#27313F"/>
<path d="M2240 800C2218.78 800 2198.43 808.429 2183.43 823.431C2168.43 838.434 2160 858.783 2160 880C2160 901.217 2168.43 921.566 2183.43 936.569C2198.43 951.571 2218.78 960 2240 960L2240 920C2229.39 920 2219.22 915.786 2211.72 908.284C2204.21 900.783 2200 890.609 2200 880C2200 869.391 2204.21 859.217 2211.72 851.716C2219.22 844.214 2229.39 840 2240 840V800Z" fill="#27313F" fill-opacity="0.5"/>
<path fill-rule="evenodd" clip-rule="evenodd" d="M2880 80C2924.18 80 2960 115.817 2960 160C2915.82 160 2880 124.183 2880 80Z" fill="#27313F"/>
<path fill-rule="evenodd" clip-rule="evenodd" d="M2960 0C2960 44.1828 2924.18 80 2880 80C2880 35.8172 2915.82 0 2960 0Z" fill="#27313F"/>
<path fill-rule="evenodd" clip-rule="evenodd" d="M2960 80C3004.18 80 3040 115.817 3040 160C2995.82 160 2960 124.183 2960 80Z" fill="#27313F" fill-opacity="0.5"/>
<path fill-rule="evenodd" clip-rule="evenodd" d="M3040 0C3040 44.1828 3004.18 80 2960 80C2960 35.8172 2995.82 0 3040 0Z" fill="#27313F" fill-opacity="0.5"/>
<path d="M2880 960C2901.01 960 2921.82 955.861 2941.23 947.821C2960.64 939.78 2978.28 927.994 2993.14 913.137C3007.99 898.28 3019.78 880.641 3027.82 861.229C3035.86 841.817 3040 821.011 3040 800L2880 800L2880 960Z" fill="#27313F"/>
<path d="M480 320C501.217 320 521.566 311.571 536.569 296.569C551.571 281.566 560 261.217 560 240C560 218.783 551.571 198.434 536.569 183.431C521.566 168.429 501.217 160 480 160L480 200C490.609 200 500.783 204.214 508.284 211.716C515.786 219.217 520 229.391 520 240C520 250.609 515.786 260.783 508.284 268.284C500.783 275.786 490.609 280 480 280L480 320Z" fill="#27313F" fill-opacity="0.5"/>
<path d="M560 320C581.217 320 601.566 311.571 616.569 296.569C631.571 281.566 640 261.217 640 240C640 218.783 631.571 198.434 616.569 183.431C601.566 168.429 581.217 160 560 160L560 200C570.609 200 580.783 204.214 588.284 211.716C595.786 219.217 600 229.391 600 240C600 250.609 595.786 260.783 588.284 268.284C580.783 275.786 570.609 280 560 280L560 320Z" fill="#27313F"/>
<path fill-rule="evenodd" clip-rule="evenodd" d="M560 1040C604.183 1040 640 1075.82 640 1120C595.817 1120 560 1084.18 560 1040Z" fill="#27313F" fill-opacity="0.5"/>
<path fill-rule="evenodd" clip-rule="evenodd" d="M480 1040C524.183 1040 560 1075.82 560 1120C515.817 1120 480 1084.18 480 1040Z" fill="#27313F" fill-opacity="0.5"/>
<path fill-rule="evenodd" clip-rule="evenodd" d="M560 960C604.183 960 640 995.817 640 1040C595.817 1040 560 1004.18 560 960Z" fill="#27313F"/>
<path fill-rule="evenodd" clip-rule="evenodd" d="M480 960C524.183 960 560 995.817 560 1040C515.817 1040 480 1004.18 480 960Z" fill="#27313F"/>
<path d="M1440 160C1418.72 160 1398.31 168.429 1383.26 183.431C1368.21 198.434 1359.76 218.783 1359.76 240C1359.76 261.217 1368.21 281.566 1383.26 296.569C1398.31 311.571 1418.72 320 1440 320L1440 240V160Z" fill="#27313F" fill-opacity="0.5"/>
<path d="M1280 320C1301.28 320 1321.69 311.571 1336.74 296.569C1351.79 281.566 1360.24 261.217 1360.24 240C1360.24 218.783 1351.79 198.434 1336.74 183.431C1321.69 168.429 1301.28 160 1280 160L1280 240L1280 320Z" fill="#27313F"/>
<path d="M1280 960C1280 981.217 1288.43 1001.57 1303.43 1016.57C1318.43 1031.57 1338.78 1040 1360 1040C1381.22 1040 1401.57 1031.57 1416.57 1016.57C1431.57 1001.57 1440 981.217 1440 960L1400 960C1400 970.609 1395.79 980.783 1388.28 988.284C1380.78 995.786 1370.61 1000 1360 1000C1349.39 1000 1339.22 995.786 1331.72 988.284C1324.21 980.783 1320 970.609 1320 960L1280 960Z" fill="#27313F" fill-opacity="0.5"/>
<path d="M1280 1040C1280 1061.22 1288.43 1081.57 1303.43 1096.57C1318.43 1111.57 1338.78 1120 1360 1120C1381.22 1120 1401.57 1111.57 1416.57 1096.57C1431.57 1081.57 1440 1061.22 1440 1040L1400 1040C1400 1050.61 1395.79 1060.78 1388.28 1068.28C1380.78 1075.79 1370.61 1080 1360 1080C1349.39 1080 1339.22 1075.79 1331.72 1068.28C1324.21 1060.78 1320 1050.61 1320 1040L1280 1040Z" fill="#27313F"/>
<path fill-rule="evenodd" clip-rule="evenodd" d="M2080 240C2124.18 240 2160 275.817 2160 320C2115.82 320 2080 284.183 2080 240Z" fill="#27313F"/>
<path fill-rule="evenodd" clip-rule="evenodd" d="M2160 160C2160 204.183 2124.18 240 2080 240C2080 195.817 2115.82 160 2160 160Z" fill="#27313F"/>
<path fill-rule="evenodd" clip-rule="evenodd" d="M2160 240C2204.18 240 2240 275.817 2240 320C2195.82 320 2160 284.183 2160 240Z" fill="#27313F" fill-opacity="0.5"/>
<path fill-rule="evenodd" clip-rule="evenodd" d="M2240 160C2240 204.183 2204.18 240 2160 240C2160 195.817 2195.82 160 2240 160Z" fill="#27313F" fill-opacity="0.5"/>
<path d="M2240 960C2218.72 960 2198.31 968.429 2183.26 983.431C2168.21 998.434 2159.76 1018.78 2159.76 1040C2159.76 1061.22 2168.21 1081.57 2183.26 1096.57C2198.31 1111.57 2218.72 1120 2240 1120L2240 1040V960Z" fill="#27313F" fill-opacity="0.5"/>
<path d="M2080 1120C2101.28 1120 2121.69 1111.57 2136.74 1096.57C2151.79 1081.57 2160.24 1061.22 2160.24 1040C2160.24 1018.78 2151.79 998.434 2136.74 983.431C2121.69 968.429 2101.28 960 2080 960L2080 1040L2080 1120Z" fill="#27313F"/>
<path d="M2880 320C2901.22 320 2921.57 311.571 2936.57 296.569C2951.57 281.566 2960 261.217 2960 240C2960 218.783 2951.57 198.434 2936.57 183.431C2921.57 168.429 2901.22 160 2880 160L2880 200C2890.61 200 2900.78 204.214 2908.28 211.716C2915.79 219.217 2920 229.391 2920 240C2920 250.609 2915.79 260.783 2908.28 268.284C2900.78 275.786 2890.61 280 2880 280L2880 320Z" fill="#27313F" fill-opacity="0.5"/>
<path d="M2960 320C2981.22 320 3001.57 311.571 3016.57 296.569C3031.57 281.566 3040 261.217 3040 240C3040 218.783 3031.57 198.434 3016.57 183.431C3001.57 168.429 2981.22 160 2960 160L2960 200C2970.61 200 2980.78 204.214 2988.28 211.716C2995.79 219.217 3000 229.391 3000 240C3000 250.609 2995.79 260.783 2988.28 268.284C2980.78 275.786 2970.61 280 2960 280L2960 320Z" fill="#27313F"/>
<path fill-rule="evenodd" clip-rule="evenodd" d="M2960 960C2960 1004.18 2924.18 1040 2880 1040C2880 995.817 2915.82 960 2960 960Z" fill="#27313F"/>
<path fill-rule="evenodd" clip-rule="evenodd" d="M3040 1040C2995.82 1040 2960 1004.18 2960 960C3004.18 960 3040 995.817 3040 1040Z" fill="#27313F"/>
<path fill-rule="evenodd" clip-rule="evenodd" d="M2960 1040C2960 1084.18 2924.18 1120 2880 1120C2880 1075.82 2915.82 1040 2960 1040Z" fill="#27313F" fill-opacity="0.5"/>
<path fill-rule="evenodd" clip-rule="evenodd" d="M3040 1120C2995.82 1120 2960 1084.18 2960 1040C3004.18 1040 3040 1075.82 3040 1120Z" fill="#27313F" fill-opacity="0.5"/>
<path fill-rule="evenodd" clip-rule="evenodd" d="M560 400V320C515.817 320 480 355.817 480 400V480C524.183 480 560 444.183 560 400Z" fill="#27313F"/>
<path fill-rule="evenodd" clip-rule="evenodd" d="M640 400V320C595.817 320 560 355.817 560 400V480C604.183 480 640 444.183 640 400Z" fill="#27313F" fill-opacity="0.5"/>
<path d="M480 1280C501.217 1280 521.566 1271.57 536.569 1256.57C551.571 1241.57 560 1221.22 560 1200C560 1178.78 551.571 1158.43 536.569 1143.43C521.566 1128.43 501.217 1120 480 1120L480 1160C490.609 1160 500.783 1164.21 508.284 1171.72C515.786 1179.22 520 1189.39 520 1200C520 1210.61 515.786 1220.78 508.284 1228.28C500.783 1235.79 490.609 1240 480 1240L480 1280Z" fill="#27313F"/>
<path d="M640 1120C618.783 1120 598.434 1128.43 583.431 1143.43C568.429 1158.43 560 1178.78 560 1200C560 1221.22 568.429 1241.57 583.431 1256.57C598.434 1271.57 618.783 1280 640 1280L640 1240C629.391 1240 619.217 1235.79 611.716 1228.28C604.214 1220.78 600 1210.61 600 1200C600 1189.39 604.214 1179.22 611.716 1171.72C619.217 1164.21 629.391 1160 640 1160V1120Z" fill="#27313F" fill-opacity="0.5"/>
<path fill-rule="evenodd" clip-rule="evenodd" d="M1360 480C1315.82 480 1280 444.183 1280 400C1324.18 400 1360 435.817 1360 480Z" fill="#27313F" fill-opacity="0.5"/>
<path fill-rule="evenodd" clip-rule="evenodd" d="M1360 320C1360 364.183 1324.18 400 1280 400C1280 355.817 1315.82 320 1360 320Z" fill="#27313F"/>
<path fill-rule="evenodd" clip-rule="evenodd" d="M1440 400C1440 444.183 1404.18 480 1360 480C1360 435.817 1395.82 400 1440 400Z" fill="#27313F"/>
<path fill-rule="evenodd" clip-rule="evenodd" d="M1440 400C1395.82 400 1360 364.183 1360 320C1404.18 320 1440 355.817 1440 400Z" fill="#27313F" fill-opacity="0.5"/>
<path fill-rule="evenodd" clip-rule="evenodd" d="M1360 1200V1120C1315.82 1120 1280 1155.82 1280 1200V1280C1324.18 1280 1360 1244.18 1360 1200Z" fill="#27313F"/>
<path fill-rule="evenodd" clip-rule="evenodd" d="M1440 1200V1120C1395.82 1120 1360 1155.82 1360 1200V1280C1404.18 1280 1440 1244.18 1440 1200Z" fill="#27313F" fill-opacity="0.5"/>
<path d="M2240 400C2240 444.183 2204.18 480 2160 480C2115.82 480 2080 444.183 2080 400C2080 355.817 2115.82 320 2160 320C2204.18 320 2240 355.817 2240 400ZM2120 400C2120 422.091 2137.91 440 2160 440C2182.09 440 2200 422.091 2200 400C2200 377.909 2182.09 360 2160 360C2137.91 360 2120 377.909 2120 400Z" fill="#27313F"/>
<path fill-rule="evenodd" clip-rule="evenodd" d="M2160 1280C2115.82 1280 2080 1244.18 2080 1200C2124.18 1200 2160 1235.82 2160 1280Z" fill="#27313F" fill-opacity="0.5"/>
<path fill-rule="evenodd" clip-rule="evenodd" d="M2160 1120C2160 1164.18 2124.18 1200 2080 1200C2080 1155.82 2115.82 1120 2160 1120Z" fill="#27313F"/>
<path fill-rule="evenodd" clip-rule="evenodd" d="M2240 1200C2240 1244.18 2204.18 1280 2160 1280C2160 1235.82 2195.82 1200 2240 1200Z" fill="#27313F"/>
<path fill-rule="evenodd" clip-rule="evenodd" d="M2240 1200C2195.82 1200 2160 1164.18 2160 1120C2204.18 1120 2240 1155.82 2240 1200Z" fill="#27313F" fill-opacity="0.5"/>
<path fill-rule="evenodd" clip-rule="evenodd" d="M2960 400V320C2915.82 320 2880 355.817 2880 400V480C2924.18 480 2960 444.183 2960 400Z" fill="#27313F"/>
<path fill-rule="evenodd" clip-rule="evenodd" d="M3040 400V320C2995.82 320 2960 355.817 2960 400V480C3004.18 480 3040 444.183 3040 400Z" fill="#27313F" fill-opacity="0.5"/>
<path d="M3040 1200C3040 1244.18 3004.18 1280 2960 1280C2915.82 1280 2880 1244.18 2880 1200C2880 1155.82 2915.82 1120 2960 1120C3004.18 1120 3040 1155.82 3040 1200ZM2920 1200C2920 1222.09 2937.91 1240 2960 1240C2982.09 1240 3000 1222.09 3000 1200C3000 1177.91 2982.09 1160 2960 1160C2937.91 1160 2920 1177.91 2920 1200Z" fill="#27313F"/>
<path fill-rule="evenodd" clip-rule="evenodd" d="M560 560C560 604.183 524.183 640 480 640C480 595.817 515.817 560 560 560Z" fill="#27313F"/>
<path fill-rule="evenodd" clip-rule="evenodd" d="M560 560C515.817 560 480 524.183 480 480C524.183 480 560 515.817 560 560Z" fill="#27313F" fill-opacity="0.5"/>
<path fill-rule="evenodd" clip-rule="evenodd" d="M640 640C595.817 640 560 604.183 560 560C604.183 560 640 595.817 640 640Z" fill="#27313F" fill-opacity="0.5"/>
<path fill-rule="evenodd" clip-rule="evenodd" d="M640 480C640 524.183 604.183 560 560 560C560 515.817 595.817 480 640 480Z" fill="#27313F"/>
<path d="M480 1280C480 1301.28 488.429 1321.69 503.431 1336.74C518.434 1351.79 538.783 1360.24 560 1360.24C581.217 1360.24 601.566 1351.79 616.569 1336.74C631.571 1321.69 640 1301.28 640 1280L560 1280L480 1280Z" fill="#27313F" fill-opacity="0.5"/>
<path d="M640 1440C640 1418.72 631.571 1398.31 616.569 1383.26C601.566 1368.21 581.217 1359.76 560 1359.76C538.783 1359.76 518.434 1368.21 503.431 1383.26C488.429 1398.31 480 1418.72 480 1440L560 1440L640 1440Z" fill="#27313F"/>
<path d="M1440 480C1418.78 480 1398.43 488.429 1383.43 503.431C1368.43 518.434 1360 538.783 1360 560C1360 581.217 1368.43 601.566 1383.43 616.569C1398.43 631.571 1418.78 640 1440 640L1440 600C1429.39 600 1419.22 595.786 1411.72 588.284C1404.21 580.783 1400 570.609 1400 560C1400 549.391 1404.21 539.217 1411.72 531.716C1419.22 524.214 1429.39 520 1440 520L1440 480Z" fill="#27313F" fill-opacity="0.5"/>
<path d="M1360 480C1338.78 480 1318.43 488.429 1303.43 503.431C1288.43 518.434 1280 538.783 1280 560C1280 581.217 1288.43 601.566 1303.43 616.569C1318.43 631.571 1338.78 640 1360 640L1360 600C1349.39 600 1339.22 595.786 1331.72 588.284C1324.21 580.783 1320 570.609 1320 560C1320 549.391 1324.21 539.217 1331.72 531.716C1339.22 524.214 1349.39 520 1360 520L1360 480Z" fill="#27313F"/>
<path fill-rule="evenodd" clip-rule="evenodd" d="M1360 1360C1360 1404.18 1324.18 1440 1280 1440C1280 1395.82 1315.82 1360 1360 1360Z" fill="#27313F"/>
<path fill-rule="evenodd" clip-rule="evenodd" d="M1360 1360C1315.82 1360 1280 1324.18 1280 1280C1324.18 1280 1360 1315.82 1360 1360Z" fill="#27313F" fill-opacity="0.5"/>
<path fill-rule="evenodd" clip-rule="evenodd" d="M1440 1440C1395.82 1440 1360 1404.18 1360 1360C1404.18 1360 1440 1395.82 1440 1440Z" fill="#27313F" fill-opacity="0.5"/>
<path fill-rule="evenodd" clip-rule="evenodd" d="M1440 1280C1440 1324.18 1404.18 1360 1360 1360C1360 1315.82 1395.82 1280 1440 1280Z" fill="#27313F"/>
<path fill-rule="evenodd" clip-rule="evenodd" d="M2160 560L2160 640C2204.18 640 2240 604.183 2240 560L2240 480C2195.82 480 2160 515.817 2160 560Z" fill="#27313F"/>
<path fill-rule="evenodd" clip-rule="evenodd" d="M2160 560L2160 640C2115.82 640 2080 604.183 2080 560L2080 480C2124.18 480 2160 515.817 2160 560Z" fill="#27313F" fill-opacity="0.5"/>
<path d="M2080 1440C2101.22 1440 2121.57 1431.57 2136.57 1416.57C2151.57 1401.57 2160 1381.22 2160 1360C2160 1338.78 2151.57 1318.43 2136.57 1303.43C2121.57 1288.43 2101.22 1280 2080 1280L2080 1320C2090.61 1320 2100.78 1324.21 2108.28 1331.72C2115.79 1339.22 2120 1349.39 2120 1360C2120 1370.61 2115.79 1380.78 2108.28 1388.28C2100.78 1395.79 2090.61 1400 2080 1400L2080 1440Z" fill="#27313F" fill-opacity="0.5"/>
<path d="M2160 1440C2181.22 1440 2201.57 1431.57 2216.57 1416.57C2231.57 1401.57 2240 1381.22 2240 1360C2240 1338.78 2231.57 1318.43 2216.57 1303.43C2201.57 1288.43 2181.22 1280 2160 1280L2160 1320C2170.61 1320 2180.78 1324.21 2188.28 1331.72C2195.79 1339.22 2200 1349.39 2200 1360C2200 1370.61 2195.79 1380.78 2188.28 1388.28C2180.78 1395.79 2170.61 1400 2160 1400L2160 1440Z" fill="#27313F"/>
<path fill-rule="evenodd" clip-rule="evenodd" d="M2960 560C2960 604.183 2924.18 640 2880 640C2880 595.817 2915.82 560 2960 560Z" fill="#27313F"/>
<path fill-rule="evenodd" clip-rule="evenodd" d="M2960 560C2915.82 560 2880 524.183 2880 480C2924.18 480 2960 515.817 2960 560Z" fill="#27313F" fill-opacity="0.5"/>
<path fill-rule="evenodd" clip-rule="evenodd" d="M3040 640C2995.82 640 2960 604.183 2960 560C3004.18 560 3040 595.817 3040 640Z" fill="#27313F" fill-opacity="0.5"/>
<path fill-rule="evenodd" clip-rule="evenodd" d="M3040 480C3040 524.183 3004.18 560 2960 560C2960 515.817 2995.82 480 3040 480Z" fill="#27313F"/>
<path fill-rule="evenodd" clip-rule="evenodd" d="M2960 1360L3040 1360C3040 1315.82 3004.18 1280 2960 1280L2880 1280C2880 1324.18 2915.82 1360 2960 1360Z" fill="#27313F"/>
<path fill-rule="evenodd" clip-rule="evenodd" d="M2960 1360L3040 1360C3040 1404.18 3004.18 1440 2960 1440L2880 1440C2880 1395.82 2915.82 1360 2960 1360Z" fill="#27313F" fill-opacity="0.5"/>
<circle cx="560" cy="720" r="80" fill="#27313F"/>
<path fill-rule="evenodd" clip-rule="evenodd" d="M560 1600C515.817 1600 480 1564.18 480 1520C524.183 1520 560 1555.82 560 1600Z" fill="#27313F" fill-opacity="0.5"/>
<path fill-rule="evenodd" clip-rule="evenodd" d="M560 1440C560 1484.18 524.183 1520 480 1520C480 1475.82 515.817 1440 560 1440Z" fill="#27313F"/>
<path fill-rule="evenodd" clip-rule="evenodd" d="M640 1520C640 1564.18 604.183 1600 560 1600C560 1555.82 595.817 1520 640 1520Z" fill="#27313F"/>
<path fill-rule="evenodd" clip-rule="evenodd" d="M640 1520C595.817 1520 560 1484.18 560 1440C604.183 1440 640 1475.82 640 1520Z" fill="#27313F" fill-opacity="0.5"/>
<path fill-rule="evenodd" clip-rule="evenodd" d="M1360 720V640C1315.82 640 1280 675.817 1280 720V800C1324.18 800 1360 764.183 1360 720Z" fill="#27313F"/>
<path fill-rule="evenodd" clip-rule="evenodd" d="M1440 720V640C1395.82 640 1360 675.817 1360 720V800C1404.18 800 1440 764.183 1440 720Z" fill="#27313F" fill-opacity="0.5"/>
<circle cx="1360" cy="1520" r="80" fill="#27313F"/>
<path fill-rule="evenodd" clip-rule="evenodd" d="M2240 800C2151.63 800 2080 728.366 2080 640C2168.37 640 2240 711.634 2240 800Z" fill="#27313F"/>
<path fill-rule="evenodd" clip-rule="evenodd" d="M2160 1520L2240 1520C2240 1475.82 2204.18 1440 2160 1440L2080 1440C2080 1484.18 2115.82 1520 2160 1520Z" fill="#27313F"/>
<path fill-rule="evenodd" clip-rule="evenodd" d="M2160 1600L2240 1600C2240 1555.82 2204.18 1520 2160 1520L2080 1520C2080 1564.18 2115.82 1600 2160 1600Z" fill="#27313F" fill-opacity="0.5"/>
<circle cx="2920" cy="760" r="40" fill="#27313F" fill-opacity="0.5"/>
<circle cx="3000" cy="680" r="40" fill="#27313F" fill-opacity="0.5"/>
<circle cx="3000" cy="760" r="40" fill="#27313F"/>
<circle cx="2920" cy="680" r="40" fill="#27313F"/>
<path fill-rule="evenodd" clip-rule="evenodd" d="M3040 1440C3040 1528.37 2968.37 1600 2880 1600C2880 1511.63 2951.63 1440 3040 1440Z" fill="#27313F"/>
<path d="M800 0C778.988 -2.5056e-07 758.183 4.13852 738.771 12.1793C719.359 20.22 701.72 32.0055 686.863 46.8629C672.006 61.7203 660.22 79.3586 652.179 98.7707C644.139 118.183 640 138.989 640 160L800 160V0Z" fill="#27313F"/>
<path d="M640 960C661.217 960 681.566 951.571 696.569 936.569C711.571 921.566 720 901.217 720 880C720 858.783 711.571 838.434 696.569 823.431C681.566 808.429 661.217 800 640 800L640 840C650.609 840 660.783 844.214 668.284 851.716C675.786 859.217 680 869.391 680 880C680 890.609 675.786 900.783 668.284 908.284C660.783 915.786 650.609 920 640 920L640 960Z" fill="#27313F" fill-opacity="0.5"/>
<path d="M720 960C741.217 960 761.566 951.571 776.569 936.569C791.571 921.566 800 901.217 800 880C800 858.783 791.571 838.434 776.569 823.431C761.566 808.429 741.217 800 720 800L720 840C730.609 840 740.783 844.214 748.284 851.716C755.786 859.217 760 869.391 760 880C760 890.609 755.786 900.783 748.284 908.284C740.783 915.786 730.609 920 720 920L720 960Z" fill="#27313F"/>
<path fill-rule="evenodd" clip-rule="evenodd" d="M1520 160C1475.82 160 1440 124.183 1440 80C1484.18 80 1520 115.817 1520 160Z" fill="#27313F" fill-opacity="0.5"/>
<path fill-rule="evenodd" clip-rule="evenodd" d="M1520 0C1520 44.1828 1484.18 80 1440 80C1440 35.8172 1475.82 0 1520 0Z" fill="#27313F"/>
<path fill-rule="evenodd" clip-rule="evenodd" d="M1600 80C1600 124.183 1564.18 160 1520 160C1520 115.817 1555.82 80 1600 80Z" fill="#27313F"/>
<path fill-rule="evenodd" clip-rule="evenodd" d="M1600 80C1555.82 80 1520 44.1828 1520 -3.49691e-06C1564.18 -1.56562e-06 1600 35.8172 1600 80Z" fill="#27313F" fill-opacity="0.5"/>
<path d="M1440 800C1440 821.012 1444.14 841.817 1452.18 861.229C1460.22 880.641 1472.01 898.28 1486.86 913.137C1501.72 927.994 1519.36 939.78 1538.77 947.821C1558.18 955.861 1578.99 960 1600 960L1600 800L1440 800Z" fill="#27313F"/>
<path d="M2400 80C2400 124.183 2364.18 160 2320 160C2275.82 160 2240 124.183 2240 80C2240 35.8172 2275.82 0 2320 0C2364.18 0 2400 35.8172 2400 80ZM2280 80C2280 102.091 2297.91 120 2320 120C2342.09 120 2360 102.091 2360 80C2360 57.9086 2342.09 40 2320 40C2297.91 40 2280 57.9086 2280 80Z" fill="#27313F"/>
<path fill-rule="evenodd" clip-rule="evenodd" d="M2320 960C2275.82 960 2240 924.183 2240 880C2284.18 880 2320 915.817 2320 960Z" fill="#27313F" fill-opacity="0.5"/>
<path fill-rule="evenodd" clip-rule="evenodd" d="M2320 800C2320 844.183 2284.18 880 2240 880C2240 835.817 2275.82 800 2320 800Z" fill="#27313F"/>
<path fill-rule="evenodd" clip-rule="evenodd" d="M2400 880C2400 924.183 2364.18 960 2320 960C2320 915.817 2355.82 880 2400 880Z" fill="#27313F"/>
<path fill-rule="evenodd" clip-rule="evenodd" d="M2400 880C2355.82 880 2320 844.183 2320 800C2364.18 800 2400 835.817 2400 880Z" fill="#27313F" fill-opacity="0.5"/>
<path fill-rule="evenodd" clip-rule="evenodd" d="M3120 80L3120 160C3164.18 160 3200 124.183 3200 80L3200 0C3155.82 -3.86258e-06 3120 35.8172 3120 80Z" fill="#27313F"/>
<path fill-rule="evenodd" clip-rule="evenodd" d="M3120 80L3120 160C3075.82 160 3040 124.183 3040 80L3040 0C3084.18 3.86258e-06 3120 35.8172 3120 80Z" fill="#27313F" fill-opacity="0.5"/>
<path d="M3200 880C3200 924.183 3164.18 960 3120 960C3075.82 960 3040 924.183 3040 880C3040 835.817 3075.82 800 3120 800C3164.18 800 3200 835.817 3200 880ZM3080 880C3080 902.091 3097.91 920 3120 920C3142.09 920 3160 902.091 3160 880C3160 857.909 3142.09 840 3120 840C3097.91 840 3080 857.909 3080 880Z" fill="#27313F"/>
<path fill-rule="evenodd" clip-rule="evenodd" d="M720 320C720 275.817 755.817 240 800 240C800 284.183 764.183 320 720 320Z" fill="#27313F"/>
<path fill-rule="evenodd" clip-rule="evenodd" d="M640 240C684.183 240 720 275.817 720 320C675.817 320 640 284.183 640 240Z" fill="#27313F"/>
<path fill-rule="evenodd" clip-rule="evenodd" d="M720 240C720 195.817 755.817 160 800 160C800 204.183 764.183 240 720 240Z" fill="#27313F" fill-opacity="0.5"/>
<path fill-rule="evenodd" clip-rule="evenodd" d="M640 160C684.183 160 720 195.817 720 240C675.817 240 640 204.183 640 160Z" fill="#27313F" fill-opacity="0.5"/>
<path fill-rule="evenodd" clip-rule="evenodd" d="M720 1040V960C675.817 960 640 995.817 640 1040V1120C684.183 1120 720 1084.18 720 1040Z" fill="#27313F"/>
<path fill-rule="evenodd" clip-rule="evenodd" d="M800 1040V960C755.817 960 720 995.817 720 1040V1120C764.183 1120 800 1084.18 800 1040Z" fill="#27313F" fill-opacity="0.5"/>
<circle cx="1520" cy="240" r="80" fill="#27313F"/>
<path fill-rule="evenodd" clip-rule="evenodd" d="M1600 1120C1511.63 1120 1440 1048.37 1440 960C1528.37 960 1600 1031.63 1600 1120Z" fill="#27313F"/>
<path fill-rule="evenodd" clip-rule="evenodd" d="M2320 240L2320 320C2364.18 320 2400 284.183 2400 240L2400 160C2355.82 160 2320 195.817 2320 240Z" fill="#27313F"/>
<path fill-rule="evenodd" clip-rule="evenodd" d="M2320 240L2320 320C2275.82 320 2240 284.183 2240 240L2240 160C2284.18 160 2320 195.817 2320 240Z" fill="#27313F" fill-opacity="0.5"/>
<circle cx="2320" cy="1040" r="80" fill="#27313F"/>
<path fill-rule="evenodd" clip-rule="evenodd" d="M3200 160C3200 248.366 3128.37 320 3040 320C3040 231.634 3111.63 160 3200 160Z" fill="#27313F"/>
<path fill-rule="evenodd" clip-rule="evenodd" d="M3120 1040L3120 960C3075.82 960 3040 995.817 3040 1040L3040 1120C3084.18 1120 3120 1084.18 3120 1040Z" fill="#27313F"/>
<path fill-rule="evenodd" clip-rule="evenodd" d="M3120 1040L3120 960C3164.18 960 3200 995.817 3200 1040L3200 1120C3155.82 1120 3120 1084.18 3120 1040Z" fill="#27313F" fill-opacity="0.5"/>
<circle cx="680" cy="440" r="40" fill="#27313F" fill-opacity="0.5"/>
<circle cx="760" cy="360" r="40" fill="#27313F" fill-opacity="0.5"/>
<circle cx="760" cy="440" r="40" fill="#27313F"/>
<circle cx="680" cy="360" r="40" fill="#27313F"/>
<path fill-rule="evenodd" clip-rule="evenodd" d="M720 1200C720 1244.18 684.183 1280 640 1280C640 1235.82 675.817 1200 720 1200Z" fill="#27313F"/>
<path fill-rule="evenodd" clip-rule="evenodd" d="M720 1200C675.817 1200 640 1164.18 640 1120C684.183 1120 720 1155.82 720 1200Z" fill="#27313F" fill-opacity="0.5"/>
<path fill-rule="evenodd" clip-rule="evenodd" d="M800 1280C755.817 1280 720 1244.18 720 1200C764.183 1200 800 1235.82 800 1280Z" fill="#27313F" fill-opacity="0.5"/>
<path fill-rule="evenodd" clip-rule="evenodd" d="M800 1120C800 1164.18 764.183 1200 720 1200C720 1155.82 755.817 1120 800 1120Z" fill="#27313F"/>
<path d="M1600 400C1600 389.494 1597.93 379.091 1593.91 369.385C1589.89 359.679 1584 350.86 1576.57 343.431C1569.14 336.003 1560.32 330.11 1550.61 326.09C1540.91 322.069 1530.51 320 1520 320L1520 400L1600 400Z" fill="#27313F" fill-opacity="0.5"/>
<path d="M1440 400C1440 410.506 1442.07 420.909 1446.09 430.615C1450.11 440.321 1456 449.14 1463.43 456.569C1470.86 463.997 1479.68 469.89 1489.39 473.91C1499.09 477.931 1509.49 480 1520 480L1520 400L1440 400Z" fill="#27313F"/>
<circle cx="1480" cy="1240" r="40" fill="#27313F" fill-opacity="0.5"/>
<circle cx="1560" cy="1160" r="40" fill="#27313F" fill-opacity="0.5"/>
<circle cx="1560" cy="1240" r="40" fill="#27313F"/>
<circle cx="1480" cy="1160" r="40" fill="#27313F"/>
<path fill-rule="evenodd" clip-rule="evenodd" d="M2400 320C2400 408.366 2328.37 480 2240 480C2240 391.634 2311.63 320 2400 320Z" fill="#27313F"/>
<path d="M2400 1200C2400 1189.49 2397.93 1179.09 2393.91 1169.39C2389.89 1159.68 2384 1150.86 2376.57 1143.43C2369.14 1136 2360.32 1130.11 2350.61 1126.09C2340.91 1122.07 2330.51 1120 2320 1120L2320 1200L2400 1200Z" fill="#27313F" fill-opacity="0.5"/>
<path d="M2240 1200C2240 1210.51 2242.07 1220.91 2246.09 1230.61C2250.11 1240.32 2256 1249.14 2263.43 1256.57C2270.86 1264 2279.68 1269.89 2289.39 1273.91C2299.09 1277.93 2309.49 1280 2320 1280L2320 1200L2240 1200Z" fill="#27313F"/>
<circle cx="3080" cy="440" r="40" fill="#27313F" fill-opacity="0.5"/>
<circle cx="3160" cy="360" r="40" fill="#27313F" fill-opacity="0.5"/>
<circle cx="3160" cy="440" r="40" fill="#27313F"/>
<circle cx="3080" cy="360" r="40" fill="#27313F"/>
<path fill-rule="evenodd" clip-rule="evenodd" d="M3200 1280C3111.63 1280 3040 1208.37 3040 1120C3128.37 1120 3200 1191.63 3200 1280Z" fill="#27313F"/>
<path d="M800 640C800 618.988 795.861 598.183 787.821 578.771C779.78 559.359 767.994 541.72 753.137 526.863C738.28 512.006 720.641 500.22 701.229 492.179C681.817 484.139 661.011 480 640 480L640 640L800 640Z" fill="#27313F"/>
<circle cx="720" cy="1360" r="80" fill="#27313F"/>
<path fill-rule="evenodd" clip-rule="evenodd" d="M1520 560C1475.82 560 1440 524.183 1440 480C1484.18 480 1520 515.817 1520 560Z" fill="#27313F" fill-opacity="0.5"/>
<path fill-rule="evenodd" clip-rule="evenodd" d="M1600 560C1555.82 560 1520 524.183 1520 480C1564.18 480 1600 515.817 1600 560Z" fill="#27313F" fill-opacity="0.5"/>
<path fill-rule="evenodd" clip-rule="evenodd" d="M1520 640C1475.82 640 1440 604.183 1440 560C1484.18 560 1520 595.817 1520 640Z" fill="#27313F"/>
<path fill-rule="evenodd" clip-rule="evenodd" d="M1600 640C1555.82 640 1520 604.183 1520 560C1564.18 560 1600 595.817 1600 640Z" fill="#27313F"/>
<path d="M1600 1280C1578.99 1280 1558.18 1284.14 1538.77 1292.18C1519.36 1300.22 1501.72 1312.01 1486.86 1326.86C1472.01 1341.72 1460.22 1359.36 1452.18 1378.77C1444.14 1398.18 1440 1418.99 1440 1440L1600 1440V1280Z" fill="#27313F"/>
<path d="M2240 640C2261.22 640 2281.57 631.571 2296.57 616.569C2311.57 601.566 2320 581.217 2320 560C2320 538.783 2311.57 518.434 2296.57 503.431C2281.57 488.429 2261.22 480 2240 480L2240 520C2250.61 520 2260.78 524.214 2268.28 531.716C2275.79 539.217 2280 549.391 2280 560C2280 570.609 2275.79 580.783 2268.28 588.284C2260.78 595.786 2250.61 600 2240 600L2240 640Z" fill="#27313F"/>
<path d="M2400 480C2378.78 480 2358.43 488.429 2343.43 503.431C2328.43 518.434 2320 538.783 2320 560C2320 581.217 2328.43 601.566 2343.43 616.569C2358.43 631.571 2378.78 640 2400 640L2400 600C2389.39 600 2379.22 595.786 2371.72 588.284C2364.21 580.783 2360 570.609 2360 560C2360 549.391 2364.21 539.217 2371.72 531.716C2379.22 524.214 2389.39 520 2400 520V480Z" fill="#27313F" fill-opacity="0.5"/>
<path fill-rule="evenodd" clip-rule="evenodd" d="M2320 1360C2364.18 1360 2400 1395.82 2400 1440C2355.82 1440 2320 1404.18 2320 1360Z" fill="#27313F" fill-opacity="0.5"/>
<path fill-rule="evenodd" clip-rule="evenodd" d="M2240 1360C2284.18 1360 2320 1395.82 2320 1440C2275.82 1440 2240 1404.18 2240 1360Z" fill="#27313F" fill-opacity="0.5"/>
<path fill-rule="evenodd" clip-rule="evenodd" d="M2320 1280C2364.18 1280 2400 1315.82 2400 1360C2355.82 1360 2320 1324.18 2320 1280Z" fill="#27313F"/>
<path fill-rule="evenodd" clip-rule="evenodd" d="M2240 1280C2284.18 1280 2320 1315.82 2320 1360C2275.82 1360 2240 1324.18 2240 1280Z" fill="#27313F"/>
<path d="M3200 480C3178.99 480 3158.18 484.139 3138.77 492.179C3119.36 500.22 3101.72 512.006 3086.86 526.863C3072.01 541.72 3060.22 559.359 3052.18 578.771C3044.14 598.183 3040 618.989 3040 640L3200 640V480Z" fill="#27313F"/>
<path d="M3040 1440C3061.22 1440 3081.57 1431.57 3096.57 1416.57C3111.57 1401.57 3120 1381.22 3120 1360C3120 1338.78 3111.57 1318.43 3096.57 1303.43C3081.57 1288.43 3061.22 1280 3040 1280L3040 1320C3050.61 1320 3060.78 1324.21 3068.28 1331.72C3075.79 1339.22 3080 1349.39 3080 1360C3080 1370.61 3075.79 1380.78 3068.28 1388.28C3060.78 1395.79 3050.61 1400 3040 1400L3040 1440Z" fill="#27313F"/>
<path d="M3200 1280C3178.78 1280 3158.43 1288.43 3143.43 1303.43C3128.43 1318.43 3120 1338.78 3120 1360C3120 1381.22 3128.43 1401.57 3143.43 1416.57C3158.43 1431.57 3178.78 1440 3200 1440L3200 1400C3189.39 1400 3179.22 1395.79 3171.72 1388.28C3164.21 1380.78 3160 1370.61 3160 1360C3160 1349.39 3164.21 1339.22 3171.72 1331.72C3179.22 1324.21 3189.39 1320 3200 1320V1280Z" fill="#27313F" fill-opacity="0.5"/>
<path fill-rule="evenodd" clip-rule="evenodd" d="M640 720C684.183 720 720 755.817 720 800C675.817 800 640 764.183 640 720Z" fill="#27313F"/>
<path fill-rule="evenodd" clip-rule="evenodd" d="M720 640C720 684.183 684.183 720 640 720C640 675.817 675.817 640 720 640Z" fill="#27313F"/>
<path fill-rule="evenodd" clip-rule="evenodd" d="M720 720C764.183 720 800 755.817 800 800C755.817 800 720 764.183 720 720Z" fill="#27313F" fill-opacity="0.5"/>
<path fill-rule="evenodd" clip-rule="evenodd" d="M800 640C800 684.183 764.183 720 720 720C720 675.817 755.817 640 800 640Z" fill="#27313F" fill-opacity="0.5"/>
<path d="M800 1520C800 1509.49 797.931 1499.09 793.91 1489.39C789.89 1479.68 783.997 1470.86 776.569 1463.43C769.14 1456 760.321 1450.11 750.615 1446.09C740.909 1442.07 730.506 1440 720 1440L720 1520L800 1520Z" fill="#27313F" fill-opacity="0.5"/>
<path d="M640 1520C640 1530.51 642.069 1540.91 646.09 1550.61C650.11 1560.32 656.003 1569.14 663.431 1576.57C670.86 1584 679.679 1589.89 689.385 1593.91C699.091 1597.93 709.494 1600 720 1600L720 1520L640 1520Z" fill="#27313F"/>
<circle cx="1480" cy="760" r="40" fill="#27313F" fill-opacity="0.5"/>
<circle cx="1560" cy="680" r="40" fill="#27313F" fill-opacity="0.5"/>
<circle cx="1560" cy="760" r="40" fill="#27313F"/>
<circle cx="1480" cy="680" r="40" fill="#27313F"/>
<path fill-rule="evenodd" clip-rule="evenodd" d="M1440 1520C1484.18 1520 1520 1555.82 1520 1600C1475.82 1600 1440 1564.18 1440 1520Z" fill="#27313F"/>
<path fill-rule="evenodd" clip-rule="evenodd" d="M1520 1440C1520 1484.18 1484.18 1520 1440 1520C1440 1475.82 1475.82 1440 1520 1440Z" fill="#27313F"/>
<path fill-rule="evenodd" clip-rule="evenodd" d="M1520 1520C1564.18 1520 1600 1555.82 1600 1600C1555.82 1600 1520 1564.18 1520 1520Z" fill="#27313F" fill-opacity="0.5"/>
<path fill-rule="evenodd" clip-rule="evenodd" d="M1600 1440C1600 1484.18 1564.18 1520 1520 1520C1520 1475.82 1555.82 1440 1600 1440Z" fill="#27313F" fill-opacity="0.5"/>
<path d="M2400 640C2378.72 640 2358.31 648.429 2343.26 663.431C2328.21 678.434 2319.76 698.783 2319.76 720C2319.76 741.217 2328.21 761.566 2343.26 776.569C2358.31 791.571 2378.72 800 2400 800L2400 720V640Z" fill="#27313F" fill-opacity="0.5"/>
<path d="M2240 800C2261.28 800 2281.69 791.571 2296.74 776.569C2311.79 761.566 2320.24 741.217 2320.24 720C2320.24 698.783 2311.79 678.434 2296.74 663.431C2281.69 648.429 2261.28 640 2240 640L2240 720L2240 800Z" fill="#27313F"/>
<circle cx="2280" cy="1560" r="40" fill="#27313F" fill-opacity="0.5"/>
<circle cx="2360" cy="1480" r="40" fill="#27313F" fill-opacity="0.5"/>
<circle cx="2360" cy="1560" r="40" fill="#27313F"/>
<circle cx="2280" cy="1480" r="40" fill="#27313F"/>
<path fill-rule="evenodd" clip-rule="evenodd" d="M3040 720C3084.18 720 3120 755.817 3120 800C3075.82 800 3040 764.183 3040 720Z" fill="#27313F"/>
<path fill-rule="evenodd" clip-rule="evenodd" d="M3120 640C3120 684.183 3084.18 720 3040 720C3040 675.817 3075.82 640 3120 640Z" fill="#27313F"/>
<path fill-rule="evenodd" clip-rule="evenodd" d="M3120 720C3164.18 720 3200 755.817 3200 800C3155.82 800 3120 764.183 3120 720Z" fill="#27313F" fill-opacity="0.5"/>
<path fill-rule="evenodd" clip-rule="evenodd" d="M3200 640C3200 684.183 3164.18 720 3120 720C3120 675.817 3155.82 640 3200 640Z" fill="#27313F" fill-opacity="0.5"/>
<path d="M3200 1440C3178.72 1440 3158.31 1448.43 3143.26 1463.43C3128.21 1478.43 3119.76 1498.78 3119.76 1520C3119.76 1541.22 3128.21 1561.57 3143.26 1576.57C3158.31 1591.57 3178.72 1600 3200 1600L3200 1520V1440Z" fill="#27313F" fill-opacity="0.5"/>
<path d="M3040 1600C3061.28 1600 3081.69 1591.57 3096.74 1576.57C3111.79 1561.57 3120.24 1541.22 3120.24 1520C3120.24 1498.78 3111.79 1478.43 3096.74 1463.43C3081.69 1448.43 3061.28 1440 3040 1440L3040 1520L3040 1600Z" fill="#27313F"/>
</svg>
