<svg width="516" height="80" viewBox="0 0 516 80" fill="none"
  xmlns="http://www.w3.org/2000/svg">
  <path d="M48.788 78.8406H0V1.15942H46.5861C62.4625 1.15942 71.038 7.88406 71.038 20.058C71.038 29.6812 65.9391 36.6377 52.9598 37.5652V38.6087C67.3297 39.6522 74.2829 46.8406 74.2829 57.2754C74.2829 70.4928 66.1708 78.8406 48.788 78.8406ZM17.3829 16.8116V32H44.6161C50.9898 32 53.6552 29.7971 53.6552 24.4638C53.6552 19.1304 50.8739 16.8116 44.3843 16.8116H17.3829ZM17.3829 46.3768V63.1884H46.702C53.7711 63.1884 56.6682 60.9855 56.6682 54.7246C56.6682 48.5797 53.7711 46.3768 46.702 46.3768H17.3829Z" fill="#fbfbfb"/>
  <path d="M111.524 80C92.1709 80 78.9599 70.4928 78.9599 49.8551C78.9599 31.3043 92.055 19.5942 111.176 19.5942C130.181 19.5942 142.813 29.5652 142.813 47.7681C142.813 49.8551 142.581 51.3623 142.35 53.3333H95.0681C95.5316 62.2609 99.7035 66.087 110.944 66.087C121.258 66.087 124.851 63.4203 124.851 58.4348V57.2754H142.234V58.5507C142.234 71.1884 129.95 80 111.524 80ZM110.829 33.1594C100.515 33.1594 96.111 36.6377 95.2998 44.1739H126.125C125.662 36.5217 121.027 33.1594 110.829 33.1594Z" fill="#fbfbfb"/>
  <path d="M167.567 78.8406H150.184V20.7536H166.293V38.6087H167.336C168.842 28.8696 175.795 19.5942 190.976 19.5942C206.853 19.5942 214.385 29.7971 214.385 42.6667V78.8406H197.002V48.4638C197.002 39.1884 193.178 35.2464 182.517 35.2464C171.507 35.2464 167.567 39.6522 167.567 49.5072V78.8406Z" fill="#fbfbfb"/>
  <path d="M264.087 78.8406H249.717C236.158 78.8406 227.93 72.4638 227.93 57.8551V35.1304H218.775V20.7536H227.93V9.50724H245.313V20.7536H264.087V35.1304H245.313V55.8841C245.313 61.6812 247.515 63.1884 253.657 63.1884H264.087V78.8406Z" fill="#fbfbfb"/>
  <path d="M301.539 80C281.722 80 268.395 68.1739 268.395 49.8551C268.395 31.3043 281.722 19.5942 301.539 19.5942C321.355 19.5942 334.682 31.3043 334.682 49.8551C334.682 68.1739 321.355 80 301.539 80ZM301.539 64.5797C313.243 64.5797 317.415 60.058 317.415 49.8551C317.415 39.6522 313.243 34.8986 301.539 34.8986C289.718 34.8986 285.662 39.6522 285.662 49.8551C285.662 60.058 289.718 64.5797 301.539 64.5797Z" fill="#fbfbfb"/>
  <path d="M398.02 78.8406H360.589V1.15942H398.02C422.935 1.15942 438.696 15.6522 438.696 40C438.696 64.3478 422.935 78.8406 398.02 78.8406ZM398.02 16.8116H377.972V63.1884H398.02C413.78 63.1884 420.154 58.6667 420.154 40C420.154 21.3333 413.78 16.8116 398.02 16.8116Z" fill="#fbfbfb"/>
  <path d="M481.466 80C457.941 80 444.73 70.7246 444.73 52.6377V51.942H462.113V54.029C462.113 61.2174 465.706 64.1159 481.466 64.1159C495.372 64.1159 498.617 62.029 498.617 56.8116C498.617 52.058 495.952 50.3188 487.956 48.9275L466.169 45.7971C452.263 43.5942 444.035 36.6377 444.035 24C444.035 12.2899 453.537 0 479.612 0C503.484 0 514.609 11.0145 514.609 27.3623V28.058H497.111V26.4348C497.111 19.0145 493.286 15.8841 477.874 15.8841C465.358 15.8841 461.534 18.3188 461.534 23.3043C461.534 27.8261 464.083 29.4493 470.573 30.6087L492.359 34.087C509.742 36.8696 516 45.3333 516 56C516 68.6377 506.15 80 481.466 80Z" fill="#fbfbfb"/>
</svg>
