<svg width="67" height="80" viewBox="0 0 67 80" fill="none"
  xmlns="http://www.w3.org/2000/svg">
  <path d="M66.1177 80H0.117647V71.6471C0.117647 57.0588 5.88235 49.7647 22.1176 44.2353L40.9412 37.7647C50.3529 34.3529 53.6471 31.1765 53.6471 24.2353C53.6471 15.8824 48.2353 11.6471 34.1176 11.6471C18.3529 11.6471 12.4706 17.1765 12.4706 27.5294V28.9412H0V27.7647C0 13.1765 10 0 34.5882 0C56.9412 0 66.3529 10.5882 66.3529 24.4706C66.3529 37.4118 58 44.2353 44.1176 48.4706L27.5294 53.5294C16.9412 57.1765 13.2941 60.9412 13.2941 69.8824L32.3529 68.5882H66.1177V80Z" fill="#1A212B"/>
</svg>
