<svg width="70" height="80" viewBox="0 0 70 80" fill="none"
  xmlns="http://www.w3.org/2000/svg">
  <path d="M35.0145 80C10.6667 80 0 69.2174 0 53.4493V51.5942H13.2174V53.2174C13.2174 63.4203 17.3913 68.1739 34.5507 68.1739C50.6667 68.1739 56.4638 64.4638 56.4638 55.3043C56.4638 47.4203 51.1304 43.8261 41.3913 43.8261H19.7101V33.3913H39.6522C49.0435 33.3913 53.9131 29.913 53.9131 22.9565C53.9131 15.4203 49.2754 11.8261 34.2029 11.8261C18.3188 11.8261 13.2174 16.5797 13.2174 26.7826V27.5942H0V26.5507C0 11.3623 11.1304 0 35.2464 0C55.0725 0 66.3188 7.30435 66.3188 20.5217C66.3188 29.3333 61.1015 35.5942 51.1304 37.2174V38.1449C62.3768 40.1159 69.1015 46.3768 69.1015 57.1594C69.1015 71.8841 56.2319 80 35.0145 80Z" fill="#1A212B"/>
</svg>
