<svg xmlns="http://www.w3.org/2000/svg" width="185" height="40" fill="none">
  <rect width="40" height="40" fill="#D2D6FB" rx="20" />
  <path fill="#5C5CCB" d="m8.415 11.888 5.909-1.042 3.473 19.696-5.91 1.042zM16.294 10.499l11.818-2.084 1.042 5.91-11.818 2.083zM17.683 18.378l11.818-2.084 2.084 11.818-11.818 2.084z" />
  <path fill="#242424" d="M68.197 29.71H56V10.29h11.647c3.969 0 6.112 1.681 6.112 4.725 0 2.405-1.274 4.144-4.519 4.376v.261c3.592.261 5.33 2.058 5.33 4.667 0 3.304-2.027 5.391-6.373 5.391Zm-7.851-15.507V18h6.808c1.593 0 2.26-.55 2.26-1.884 0-1.333-.695-1.913-2.318-1.913h-6.75Zm0 7.391v4.203h7.33c1.767 0 2.491-.55 2.491-2.116 0-1.536-.724-2.087-2.492-2.087h-7.33ZM83.881 30c-4.838 0-8.141-2.377-8.141-7.536 0-4.638 3.274-7.565 8.054-7.565 4.751 0 7.91 2.492 7.91 7.043 0 .522-.059.899-.117 1.391h-11.82c.116 2.232 1.159 3.189 3.97 3.189 2.578 0 3.476-.667 3.476-1.913v-.29h4.345v.319c0 3.16-3.07 5.362-7.677 5.362Zm-.174-11.71c-2.578 0-3.68.87-3.882 2.754h7.706c-.116-1.914-1.274-2.754-3.824-2.754ZM97.892 29.71h-4.346V15.188h4.027v4.464h.26c.377-2.435 2.116-4.754 5.911-4.754 3.969 0 5.852 2.551 5.852 5.769v9.043h-4.345v-7.594c0-2.319-.956-3.304-3.622-3.304-2.752 0-3.737 1.101-3.737 3.565v7.333ZM122.022 29.71h-3.593c-3.389 0-5.446-1.594-5.446-5.246v-5.681h-2.289v-3.595h2.289v-2.811h4.345v2.811h4.694v3.595h-4.694v5.188c0 1.45.551 1.826 2.086 1.826h2.608v3.913ZM131.385 30c-4.954 0-8.286-2.956-8.286-7.536 0-4.638 3.332-7.565 8.286-7.565s8.286 2.927 8.286 7.565c0 4.58-3.332 7.536-8.286 7.536Zm0-3.855c2.926 0 3.969-1.13 3.969-3.681s-1.043-3.74-3.969-3.74c-2.955 0-3.969 1.189-3.969 3.74 0 2.55 1.014 3.68 3.969 3.68ZM155.505 29.71h-9.358V10.29h9.358c6.229 0 10.169 3.623 10.169 9.71 0 6.087-3.94 9.71-10.169 9.71Zm0-15.507h-5.012v11.594h5.012c3.94 0 5.534-1.13 5.534-5.797s-1.594-5.797-5.534-5.797ZM176.366 30c-5.881 0-9.183-2.319-9.183-6.84v-.175h4.345v.522c0 1.797.898 2.522 4.838 2.522 3.477 0 4.288-.522 4.288-1.826 0-1.188-.666-1.623-2.665-1.971l-5.447-.783c-3.476-.55-5.533-2.29-5.533-5.449 0-2.928 2.375-6 8.894-6 5.968 0 8.749 2.754 8.749 6.84v.175h-4.374v-.406c0-1.855-.956-2.638-4.81-2.638-3.129 0-4.085.609-4.085 1.855 0 1.13.638 1.536 2.26 1.826l5.447.87c4.346.695 5.91 2.811 5.91 5.478 0 3.16-2.463 6-8.634 6Z" />
</svg>
