<svg width="314" height="215" viewBox="0 0 314 215" fill="none"
  xmlns="http://www.w3.org/2000/svg">
  <path d="M0 0H314V215H3.99999C1.79085 215 0 213.209 0 211V0Z" fill="#4D62CB"/>
  <g clip-path="url(#clip0_131_4035)">
    <line x1="57" y1="116.5" x2="72" y2="116.5" stroke="white" stroke-opacity="0.6"/>
    <line x1="64.5" y1="140.286" x2="64.5" y2="116.286" stroke="white" stroke-opacity="0.6"/>
    <line x1="57" y1="139.5" x2="72" y2="139.5" stroke="white" stroke-opacity="0.6"/>
  </g>
  <path d="M41.806 133H40.1586V125.07L37.6087 126.007V124.564L41.7035 123.047H41.806V133ZM50.5322 122.999V124.387H50.4229C49.8805 124.387 49.4089 124.462 49.0078 124.612C48.6113 124.758 48.2764 124.963 48.0029 125.228C47.7249 125.492 47.5085 125.809 47.3535 126.178C47.2031 126.547 47.1097 126.943 47.0732 127.367C47.1826 127.244 47.3102 127.126 47.4561 127.012C47.6019 126.893 47.7637 126.788 47.9414 126.697C48.11 126.611 48.2969 126.542 48.502 126.492C48.707 126.438 48.9235 126.41 49.1514 126.41C49.6344 126.41 50.0537 126.501 50.4092 126.684C50.7692 126.866 51.0654 127.112 51.2979 127.422C51.5348 127.732 51.708 128.087 51.8174 128.488C51.9313 128.889 51.9883 129.306 51.9883 129.739C51.9883 130.213 51.9154 130.658 51.7695 131.072C51.6283 131.482 51.4209 131.84 51.1475 132.146C50.8695 132.455 50.5299 132.699 50.1289 132.877C49.7324 133.05 49.279 133.137 48.7686 133.137C48.2445 133.137 47.7773 133.036 47.3672 132.836C46.957 132.635 46.6107 132.364 46.3281 132.022C46.0273 131.667 45.7995 131.25 45.6445 130.771C45.4896 130.288 45.4121 129.78 45.4121 129.247V128.57C45.4121 127.768 45.5146 127.005 45.7197 126.28C45.9294 125.551 46.2757 124.924 46.7588 124.4C47.1689 123.949 47.6748 123.603 48.2764 123.361C48.8779 123.12 49.5661 122.999 50.3408 122.999H50.5322ZM48.748 127.736C48.5521 127.736 48.3652 127.766 48.1875 127.825C48.0098 127.884 47.8457 127.966 47.6953 128.071C47.5586 128.176 47.4355 128.297 47.3262 128.434C47.2168 128.57 47.1257 128.723 47.0527 128.892V129.397C47.0527 129.794 47.096 130.143 47.1826 130.443C47.2738 130.744 47.3968 130.995 47.5518 131.195C47.7067 131.396 47.8867 131.549 48.0918 131.653C48.2969 131.758 48.5156 131.811 48.748 131.811C49.0033 131.811 49.2311 131.76 49.4316 131.66C49.6322 131.555 49.8031 131.414 49.9443 131.236C50.0856 131.054 50.1927 130.84 50.2656 130.594C50.3385 130.343 50.375 130.072 50.375 129.78C50.375 129.502 50.3385 129.24 50.2656 128.994C50.1973 128.743 50.0947 128.525 49.958 128.338C49.8213 128.151 49.6504 128.005 49.4453 127.9C49.2448 127.791 49.0124 127.736 48.748 127.736Z" fill="white" fill-opacity="0.8"/>
  <g clip-path="url(#clip1_131_4035)">
    <line x1="57" y1="56.5" x2="72" y2="56.5" stroke="white" stroke-opacity="0.6"/>
    <line x1="64.5" y1="80.2857" x2="64.5" y2="56.2857" stroke="white" stroke-opacity="0.6"/>
    <line x1="57" y1="79.5" x2="72" y2="79.5" stroke="white" stroke-opacity="0.6"/>
  </g>
  <path d="M41.806 73H40.1586V65.0703L37.6087 66.0068V64.5645L41.7035 63.0469H41.806V73ZM50.5322 62.999V64.3867H50.4229C49.8805 64.3867 49.4089 64.4619 49.0078 64.6123C48.6113 64.7581 48.2764 64.9632 48.0029 65.2275C47.7249 65.4919 47.5085 65.8086 47.3535 66.1777C47.2031 66.5469 47.1097 66.9434 47.0732 67.3672C47.1826 67.2441 47.3102 67.1257 47.4561 67.0117C47.6019 66.8932 47.7637 66.7884 47.9414 66.6973C48.11 66.6107 48.2969 66.5423 48.502 66.4922C48.707 66.4375 48.9235 66.4102 49.1514 66.4102C49.6344 66.4102 50.0537 66.5013 50.4092 66.6836C50.7692 66.8659 51.0654 67.112 51.2979 67.4219C51.5348 67.7318 51.708 68.0872 51.8174 68.4883C51.9313 68.8893 51.9883 69.3063 51.9883 69.7393C51.9883 70.2132 51.9154 70.6576 51.7695 71.0723C51.6283 71.4824 51.4209 71.8402 51.1475 72.1455C50.8695 72.4554 50.5299 72.6992 50.1289 72.877C49.7324 73.0501 49.279 73.1367 48.7686 73.1367C48.2445 73.1367 47.7773 73.0365 47.3672 72.8359C46.957 72.6354 46.6107 72.3643 46.3281 72.0225C46.0273 71.667 45.7995 71.25 45.6445 70.7715C45.4896 70.2884 45.4121 69.7803 45.4121 69.2471V68.5703C45.4121 67.7682 45.5146 67.0049 45.7197 66.2803C45.9294 65.5511 46.2757 64.9245 46.7588 64.4004C47.1689 63.9492 47.6748 63.6029 48.2764 63.3613C48.8779 63.1198 49.5661 62.999 50.3408 62.999H50.5322ZM48.748 67.7363C48.5521 67.7363 48.3652 67.766 48.1875 67.8252C48.0098 67.8844 47.8457 67.9665 47.6953 68.0713C47.5586 68.1761 47.4355 68.2969 47.3262 68.4336C47.2168 68.5703 47.1257 68.723 47.0527 68.8916V69.3975C47.0527 69.7939 47.096 70.1426 47.1826 70.4434C47.2738 70.7441 47.3968 70.9948 47.5518 71.1953C47.7067 71.3958 47.8867 71.5485 48.0918 71.6533C48.2969 71.7581 48.5156 71.8105 48.748 71.8105C49.0033 71.8105 49.2311 71.7604 49.4316 71.6602C49.6322 71.5553 49.8031 71.4141 49.9443 71.2363C50.0856 71.054 50.1927 70.8398 50.2656 70.5938C50.3385 70.3431 50.375 70.0719 50.375 69.7803C50.375 69.5023 50.3385 69.2402 50.2656 68.9941C50.1973 68.7435 50.0947 68.5247 49.958 68.3379C49.8213 68.151 49.6504 68.0052 49.4453 67.9004C49.2448 67.791 49.0124 67.7363 48.748 67.7363Z" fill="white" fill-opacity="0.8"/>
  <rect x="182" y="16" width="116" height="24" rx="12" fill="white" fill-opacity="0.2"/>
  <path d="M195.829 22.5H199.814V31.6465H202.056V33H195.829V31.6465H198.167V23.8604H195.829V22.5ZM208.506 33C208.456 32.9089 208.415 32.7995 208.383 32.6719C208.356 32.5397 208.331 32.403 208.308 32.2617C208.194 32.3802 208.064 32.4941 207.918 32.6035C207.777 32.7083 207.618 32.7995 207.44 32.877C207.262 32.959 207.071 33.0228 206.866 33.0684C206.661 33.1139 206.44 33.1367 206.203 33.1367C205.82 33.1367 205.469 33.082 205.15 32.9727C204.835 32.8587 204.567 32.7038 204.343 32.5078C204.115 32.3164 203.938 32.0863 203.81 31.8174C203.687 31.5439 203.625 31.25 203.625 30.9355C203.625 30.5299 203.705 30.1722 203.865 29.8623C204.029 29.5479 204.266 29.2881 204.576 29.083C204.863 28.8916 205.216 28.7458 205.635 28.6455C206.059 28.5452 206.538 28.4951 207.071 28.4951H208.26V27.9961C208.26 27.8047 208.226 27.6315 208.158 27.4766C208.094 27.3216 208 27.1872 207.877 27.0732C207.745 26.9593 207.583 26.8727 207.392 26.8135C207.205 26.7497 206.989 26.7178 206.743 26.7178C206.519 26.7178 206.323 26.7451 206.155 26.7998C205.991 26.8545 205.854 26.9297 205.745 27.0254C205.635 27.112 205.553 27.2191 205.498 27.3467C205.448 27.4697 205.423 27.6019 205.423 27.7432H203.783C203.787 27.4469 203.858 27.1621 203.995 26.8887C204.131 26.6152 204.332 26.3737 204.596 26.1641C204.851 25.9499 205.166 25.7812 205.539 25.6582C205.918 25.5306 206.348 25.4668 206.831 25.4668C207.264 25.4668 207.668 25.5215 208.041 25.6309C208.42 25.7357 208.746 25.8929 209.019 26.1025C209.292 26.3122 209.507 26.5788 209.662 26.9023C209.817 27.2214 209.894 27.5905 209.894 28.0098V31.2979C209.894 31.6305 209.917 31.9313 209.962 32.2002C210.012 32.4645 210.083 32.6924 210.174 32.8838V33H208.506ZM206.517 31.8242C206.731 31.8242 206.929 31.7969 207.112 31.7422C207.299 31.6875 207.467 31.6169 207.618 31.5303C207.768 31.4437 207.898 31.3457 208.007 31.2363C208.117 31.127 208.201 31.013 208.26 30.8945V29.5273H207.207C206.852 29.5273 206.544 29.5615 206.285 29.6299C206.025 29.6937 205.817 29.7871 205.663 29.9102C205.526 30.015 205.423 30.1403 205.355 30.2861C205.291 30.432 205.259 30.596 205.259 30.7783C205.259 30.9287 205.287 31.07 205.341 31.2021C205.396 31.3298 205.476 31.4391 205.581 31.5303C205.685 31.6214 205.815 31.6943 205.97 31.749C206.125 31.7992 206.307 31.8242 206.517 31.8242ZM218.552 29.377C218.552 29.7188 218.527 30.0446 218.477 30.3545C218.427 30.6644 218.354 30.9515 218.258 31.2158C218.149 31.5303 218.003 31.8151 217.82 32.0703C217.638 32.3255 217.419 32.5374 217.164 32.7061C216.959 32.8428 216.729 32.9476 216.474 33.0205C216.223 33.098 215.95 33.1367 215.653 33.1367C215.353 33.1367 215.079 33.1003 214.833 33.0273C214.587 32.9544 214.366 32.8473 214.17 32.7061C214.07 32.6331 213.974 32.5557 213.883 32.4736C213.796 32.387 213.712 32.2936 213.63 32.1934L213.555 33H212.078V22.5H213.712V26.3281C213.808 26.2096 213.913 26.1025 214.026 26.0068C214.14 25.9111 214.263 25.8268 214.396 25.7539C214.569 25.6582 214.758 25.5876 214.963 25.542C215.173 25.4919 215.398 25.4668 215.64 25.4668C215.959 25.4668 216.25 25.5101 216.515 25.5967C216.784 25.6787 217.025 25.7972 217.239 25.9521C217.422 26.0798 217.583 26.237 217.725 26.4238C217.871 26.6061 217.998 26.8066 218.108 27.0254C218.253 27.3307 218.363 27.6702 218.436 28.0439C218.513 28.4176 218.552 28.8141 218.552 29.2334V29.377ZM216.918 29.2334C216.918 29.0238 216.904 28.821 216.877 28.625C216.854 28.4245 216.82 28.2376 216.774 28.0645C216.711 27.8548 216.626 27.6657 216.522 27.4971C216.421 27.3239 216.285 27.1781 216.111 27.0596C215.997 26.9775 215.868 26.916 215.722 26.875C215.576 26.834 215.412 26.8135 215.23 26.8135C215.006 26.8135 214.806 26.8454 214.628 26.9092C214.45 26.9684 214.295 27.055 214.163 27.1689C214.067 27.2464 213.981 27.3376 213.903 27.4424C213.83 27.5426 213.767 27.652 213.712 27.7705V30.833C213.776 30.9697 213.851 31.0951 213.938 31.209C214.029 31.3184 214.131 31.4163 214.245 31.5029C214.373 31.5941 214.519 31.667 214.683 31.7217C214.851 31.7718 215.038 31.7969 215.243 31.7969C215.43 31.7969 215.599 31.7741 215.749 31.7285C215.899 31.6784 216.034 31.6123 216.152 31.5303C216.312 31.4163 216.442 31.2728 216.542 31.0996C216.647 30.9219 216.727 30.7236 216.781 30.5049C216.827 30.3408 216.861 30.1631 216.884 29.9717C216.907 29.7803 216.918 29.582 216.918 29.377V29.2334ZM223.771 33.1367C223.224 33.1367 222.723 33.0456 222.267 32.8633C221.816 32.681 221.429 32.4281 221.105 32.1045C220.782 31.7855 220.531 31.4095 220.353 30.9766C220.18 30.5391 220.093 30.0674 220.093 29.5615V29.2812C220.093 28.7025 220.185 28.1784 220.367 27.709C220.549 27.2396 220.8 26.8385 221.119 26.5059C221.438 26.1732 221.807 25.918 222.226 25.7402C222.65 25.5579 223.101 25.4668 223.58 25.4668C224.113 25.4668 224.585 25.5579 224.995 25.7402C225.405 25.918 225.749 26.1663 226.027 26.4854C226.305 26.8089 226.515 27.194 226.656 27.6406C226.797 28.0872 226.868 28.5749 226.868 29.1035V29.8076H221.741V29.8418C221.791 30.1654 221.869 30.4365 221.973 30.6553C222.078 30.874 222.222 31.07 222.404 31.2432C222.586 31.4255 222.801 31.5667 223.047 31.667C223.297 31.7673 223.571 31.8174 223.867 31.8174C224.273 31.8174 224.651 31.7399 225.002 31.585C225.353 31.4255 225.642 31.1999 225.87 30.9082L226.745 31.7559C226.499 32.1113 226.12 32.4303 225.61 32.7129C225.104 32.9954 224.491 33.1367 223.771 33.1367ZM223.573 26.793C223.341 26.793 223.124 26.8363 222.924 26.9229C222.728 27.0049 222.552 27.1234 222.397 27.2783C222.242 27.4378 222.112 27.6292 222.008 27.8525C221.903 28.0758 221.825 28.3288 221.775 28.6113H225.255V28.502C225.255 28.2878 225.216 28.0758 225.138 27.8662C225.061 27.652 224.952 27.4652 224.81 27.3057C224.674 27.1507 224.5 27.0277 224.291 26.9365C224.086 26.8408 223.846 26.793 223.573 26.793ZM228.902 22.5H232.887V31.6465H235.129V33H228.902V31.6465H231.24V23.8604H228.902V22.5ZM242.003 30.4365C242.003 30.2041 241.955 29.999 241.859 29.8213C241.764 29.6436 241.629 29.484 241.456 29.3428C241.274 29.2106 241.057 29.0921 240.807 28.9873C240.561 28.8779 240.285 28.7799 239.979 28.6934C239.51 28.5612 239.077 28.3994 238.681 28.208C238.289 28.012 237.954 27.7933 237.676 27.5518C237.398 27.3057 237.179 27.0277 237.02 26.7178C236.865 26.4033 236.787 26.0501 236.787 25.6582C236.787 25.2344 236.878 24.8538 237.061 24.5166C237.243 24.1748 237.489 23.8831 237.799 23.6416C238.109 23.4046 238.469 23.2246 238.879 23.1016C239.294 22.974 239.729 22.9102 240.185 22.9102C240.668 22.9102 241.117 22.9854 241.531 23.1357C241.951 23.2816 242.315 23.4867 242.625 23.751C242.935 24.0199 243.179 24.3411 243.356 24.7148C243.539 25.084 243.63 25.4941 243.63 25.9453H242.003C241.98 25.6947 241.925 25.4668 241.839 25.2617C241.757 25.0521 241.641 24.8721 241.49 24.7217C241.335 24.5758 241.146 24.4619 240.923 24.3799C240.704 24.2933 240.451 24.25 240.164 24.25C239.913 24.25 239.681 24.2842 239.467 24.3525C239.257 24.4163 239.075 24.5075 238.92 24.626C238.765 24.749 238.644 24.8971 238.558 25.0703C238.471 25.2435 238.428 25.4372 238.428 25.6514C238.432 25.8792 238.492 26.0798 238.605 26.2529C238.719 26.4215 238.872 26.5697 239.063 26.6973C239.259 26.8249 239.483 26.9365 239.733 27.0322C239.989 27.1279 240.255 27.2168 240.533 27.2988C240.884 27.3991 241.226 27.5244 241.559 27.6748C241.896 27.8206 242.206 27.9984 242.488 28.208C242.839 28.4723 243.119 28.7891 243.329 29.1582C243.543 29.5228 243.65 29.9443 243.65 30.4229C243.65 30.8649 243.557 31.2546 243.37 31.5918C243.188 31.929 242.942 32.2093 242.632 32.4326C242.317 32.665 241.953 32.8405 241.538 32.959C241.123 33.0729 240.686 33.1299 240.226 33.1299C239.738 33.1299 239.257 33.0547 238.783 32.9043C238.309 32.7493 237.897 32.526 237.546 32.2344C237.222 31.9609 236.965 31.6396 236.773 31.2705C236.587 30.9014 236.491 30.4775 236.486 29.999H238.127C238.15 30.3044 238.214 30.571 238.318 30.7988C238.428 31.0221 238.576 31.2067 238.763 31.3525C238.945 31.5029 239.159 31.6146 239.405 31.6875C239.656 31.7604 239.929 31.7969 240.226 31.7969C240.476 31.7969 240.709 31.7673 240.923 31.708C241.142 31.6488 241.331 31.5599 241.49 31.4414C241.645 31.3275 241.768 31.1862 241.859 31.0176C241.955 30.849 242.003 30.6553 242.003 30.4365ZM245.5 25.6035H249.423V31.6465H251.597V33H245.5V31.6465H247.776V26.9639H245.5V25.6035ZM247.626 23.6895C247.626 23.5573 247.648 23.4365 247.694 23.3271C247.74 23.2132 247.806 23.1152 247.892 23.0332C247.974 22.9557 248.072 22.8965 248.186 22.8555C248.305 22.8099 248.437 22.7871 248.583 22.7871C248.829 22.7871 249.027 22.8509 249.177 22.9785C249.332 23.1016 249.421 23.2611 249.444 23.457C249.476 23.6576 249.442 23.833 249.341 23.9834C249.241 24.1292 249.095 24.2272 248.904 24.2773C248.808 24.3639 248.694 24.4209 248.562 24.4482C248.43 24.4756 248.284 24.4642 248.125 24.4141C247.961 24.3639 247.835 24.2751 247.749 24.1475C247.667 24.0153 247.626 23.8626 247.626 23.6895ZM255.443 31.6807H259.948V33H253.262V31.9268L257.514 26.9365H253.344V25.6035H259.742V26.6426L255.443 31.6807ZM265.112 33.1367C264.565 33.1367 264.064 33.0456 263.608 32.8633C263.157 32.681 262.77 32.4281 262.446 32.1045C262.123 31.7855 261.872 31.4095 261.694 30.9766C261.521 30.5391 261.434 30.0674 261.434 29.5615V29.2812C261.434 28.7025 261.526 28.1784 261.708 27.709C261.89 27.2396 262.141 26.8385 262.46 26.5059C262.779 26.1732 263.148 25.918 263.567 25.7402C263.991 25.5579 264.442 25.4668 264.921 25.4668C265.454 25.4668 265.926 25.5579 266.336 25.7402C266.746 25.918 267.09 26.1663 267.368 26.4854C267.646 26.8089 267.856 27.194 267.997 27.6406C268.138 28.0872 268.209 28.5749 268.209 29.1035V29.8076H263.082V29.8418C263.132 30.1654 263.21 30.4365 263.314 30.6553C263.419 30.874 263.563 31.07 263.745 31.2432C263.927 31.4255 264.142 31.5667 264.388 31.667C264.638 31.7673 264.912 31.8174 265.208 31.8174C265.614 31.8174 265.992 31.7399 266.343 31.585C266.694 31.4255 266.983 31.1999 267.211 30.9082L268.086 31.7559C267.84 32.1113 267.462 32.4303 266.951 32.7129C266.445 32.9954 265.832 33.1367 265.112 33.1367ZM264.914 26.793C264.682 26.793 264.465 26.8363 264.265 26.9229C264.069 27.0049 263.893 27.1234 263.738 27.2783C263.583 27.4378 263.453 27.6292 263.349 27.8525C263.244 28.0758 263.166 28.3288 263.116 28.6113H266.596V28.502C266.596 28.2878 266.557 28.0758 266.479 27.8662C266.402 27.652 266.293 27.4652 266.151 27.3057C266.015 27.1507 265.841 27.0277 265.632 26.9365C265.427 26.8408 265.187 26.793 264.914 26.793ZM272.164 32.0156C272.164 31.7012 272.264 31.4323 272.464 31.209C272.669 30.9857 272.963 30.874 273.346 30.874C273.72 30.874 274.012 30.9857 274.221 31.209C274.431 31.4277 274.536 31.6966 274.536 32.0156C274.536 32.3346 274.429 32.6012 274.214 32.8154C274.005 33.0296 273.715 33.1367 273.346 33.1367C272.973 33.1367 272.681 33.0296 272.471 32.8154C272.266 32.5967 272.164 32.3301 272.164 32.0156ZM272.164 26.2256C272.164 25.9111 272.264 25.6423 272.464 25.4189C272.669 25.1956 272.963 25.084 273.346 25.084C273.72 25.084 274.012 25.1956 274.221 25.4189C274.431 25.6377 274.536 25.9066 274.536 26.2256C274.536 26.5446 274.429 26.8112 274.214 27.0254C274.005 27.2396 273.715 27.3467 273.346 27.3467C272.973 27.3467 272.681 27.2396 272.471 27.0254C272.266 26.8066 272.164 26.54 272.164 26.2256ZM280.104 23.0469L281.334 27.3057L282.695 23.0469H284.738V33H283.194V29.623L283.289 25.1797L281.758 29.9307H280.904L279.516 25.3438L279.605 29.623V33H278.067V23.0469H280.104Z" fill="white" fill-opacity="0.8"/>
  <rect x="181.5" y="15.5" width="117" height="25" rx="12.5" stroke="white" stroke-opacity="0.6"/>
  <rect x="58" y="16" width="116" height="24" rx="12" fill="white" fill-opacity="0.2"/>
  <path d="M71.8904 25.6035H75.8143V31.6465H77.9881V33H71.8904V31.6465H74.1668V26.9639H71.8904V25.6035ZM74.0164 23.6895C74.0164 23.5573 74.0392 23.4365 74.0848 23.3271C74.1303 23.2132 74.1964 23.1152 74.283 23.0332C74.365 22.9557 74.463 22.8965 74.577 22.8555C74.6954 22.8099 74.8276 22.7871 74.9734 22.7871C75.2195 22.7871 75.4178 22.8509 75.5682 22.9785C75.7231 23.1016 75.812 23.2611 75.8348 23.457C75.8667 23.6576 75.8325 23.833 75.7322 23.9834C75.632 24.1292 75.4861 24.2272 75.2947 24.2773C75.199 24.3639 75.0851 24.4209 74.9529 24.4482C74.8208 24.4756 74.6749 24.4642 74.5154 24.4141C74.3514 24.3639 74.226 24.2751 74.1395 24.1475C74.0574 24.0153 74.0164 23.8626 74.0164 23.6895ZM83.0024 31.8242C83.2075 31.8242 83.4034 31.7946 83.5903 31.7354C83.7817 31.6715 83.9503 31.5827 84.0961 31.4688C84.2374 31.3548 84.3491 31.2204 84.4311 31.0654C84.5177 30.9105 84.561 30.7396 84.561 30.5527H86.0991C86.1036 30.9128 86.0216 31.2523 85.853 31.5713C85.6889 31.8857 85.4656 32.1569 85.183 32.3848C84.8959 32.6217 84.5655 32.8086 84.1918 32.9453C83.8227 33.0775 83.433 33.1436 83.0229 33.1436C82.4532 33.1436 81.9542 33.0456 81.5258 32.8496C81.102 32.6491 80.7488 32.3802 80.4663 32.043C80.1791 31.7057 79.9627 31.3138 79.8168 30.8672C79.671 30.416 79.5981 29.9352 79.5981 29.4248V29.1855C79.5981 28.6797 79.6687 28.2012 79.81 27.75C79.9558 27.2988 80.1723 26.9046 80.4594 26.5674C80.7465 26.2301 81.102 25.9635 81.5258 25.7676C81.9542 25.5671 82.451 25.4668 83.0161 25.4668C83.4627 25.4668 83.8751 25.5352 84.2534 25.6719C84.6362 25.8086 84.9643 26 85.2377 26.2461C85.5112 26.4922 85.7231 26.7861 85.8735 27.1279C86.0284 27.4697 86.1036 27.8457 86.0991 28.2559H84.561C84.561 28.0553 84.5222 27.8662 84.4448 27.6885C84.3718 27.5107 84.267 27.3558 84.1303 27.2236C83.989 27.0915 83.8204 26.9867 83.6245 26.9092C83.433 26.8317 83.2257 26.793 83.0024 26.793C82.6606 26.793 82.3758 26.8636 82.1479 27.0049C81.9246 27.1416 81.7468 27.3216 81.6147 27.5449C81.4734 27.7682 81.3732 28.0234 81.3139 28.3105C81.2592 28.5977 81.2319 28.8893 81.2319 29.1855V29.4248C81.2319 29.7256 81.2592 30.0218 81.3139 30.3135C81.3732 30.6006 81.4711 30.8535 81.6079 31.0723C81.74 31.3001 81.92 31.4824 82.1479 31.6191C82.3758 31.7559 82.6606 31.8242 83.0024 31.8242ZM87.7501 29.2334C87.7501 28.6956 87.8276 28.1989 87.9825 27.7432C88.1374 27.2829 88.363 26.8841 88.6593 26.5469C88.9509 26.2096 89.3087 25.9453 89.7325 25.7539C90.1563 25.5625 90.6394 25.4668 91.1817 25.4668C91.724 25.4668 92.2071 25.5625 92.6309 25.7539C93.0593 25.9453 93.4216 26.2096 93.7179 26.5469C94.0095 26.8841 94.2328 27.2829 94.3878 27.7432C94.5427 28.1989 94.6202 28.6956 94.6202 29.2334V29.377C94.6202 29.9193 94.5427 30.4183 94.3878 30.874C94.2328 31.3298 94.0095 31.7262 93.7179 32.0635C93.4262 32.4007 93.0662 32.665 92.6378 32.8564C92.2139 33.0479 91.7332 33.1436 91.1954 33.1436C90.6531 33.1436 90.1677 33.0479 89.7393 32.8564C89.311 32.665 88.9509 32.4007 88.6593 32.0635C88.363 31.7262 88.1374 31.3298 87.9825 30.874C87.8276 30.4183 87.7501 29.9193 87.7501 29.377V29.2334ZM89.3839 29.377C89.3839 29.7096 89.418 30.0241 89.4864 30.3203C89.5593 30.6165 89.671 30.8763 89.8214 31.0996C89.9672 31.3229 90.154 31.5007 90.3819 31.6328C90.6098 31.7604 90.8809 31.8242 91.1954 31.8242C91.5007 31.8242 91.7673 31.7604 91.9952 31.6328C92.2231 31.5007 92.4099 31.3229 92.5557 31.0996C92.7016 30.8763 92.8087 30.6165 92.877 30.3203C92.9499 30.0241 92.9864 29.7096 92.9864 29.377V29.2334C92.9864 28.9098 92.9499 28.5999 92.877 28.3037C92.8041 28.0075 92.697 27.7477 92.5557 27.5244C92.4054 27.3011 92.2162 27.1234 91.9884 26.9912C91.7651 26.859 91.4962 26.793 91.1817 26.793C90.8718 26.793 90.6029 26.859 90.3751 26.9912C90.1518 27.1234 89.9672 27.3011 89.8214 27.5244C89.671 27.7477 89.5593 28.0075 89.4864 28.3037C89.418 28.5999 89.3839 28.9098 89.3839 29.2334V29.377ZM96.3191 33V25.6035H97.7956L97.8982 26.6562C97.9984 26.515 98.1078 26.3851 98.2263 26.2666C98.3493 26.1436 98.4792 26.0342 98.6159 25.9385C98.8347 25.7881 99.0739 25.6719 99.3337 25.5898C99.5935 25.5078 99.8669 25.4668 100.154 25.4668C100.532 25.4668 100.879 25.5215 101.193 25.6309C101.508 25.7402 101.776 25.9134 102 26.1504C102.223 26.3874 102.396 26.6904 102.519 27.0596C102.642 27.4242 102.704 27.8662 102.704 28.3857V33H101.07V28.4131C101.07 28.1077 101.036 27.8525 100.968 27.6475C100.899 27.4424 100.799 27.2783 100.667 27.1553C100.535 27.0322 100.375 26.9456 100.188 26.8955C100.001 26.8408 99.7872 26.8135 99.5456 26.8135C99.3451 26.8135 99.1583 26.8408 98.9851 26.8955C98.8119 26.9456 98.6547 27.0186 98.5134 27.1143C98.404 27.1872 98.3015 27.276 98.2058 27.3809C98.1101 27.4857 98.0258 27.5996 97.9529 27.7227V33H96.3191ZM109.735 30.4365C109.735 30.2041 109.687 29.999 109.591 29.8213C109.495 29.6436 109.361 29.484 109.188 29.3428C109.006 29.2106 108.789 29.0921 108.538 28.9873C108.292 28.8779 108.017 28.7799 107.711 28.6934C107.242 28.5612 106.809 28.3994 106.412 28.208C106.021 28.012 105.686 27.7933 105.408 27.5518C105.13 27.3057 104.911 27.0277 104.751 26.7178C104.596 26.4033 104.519 26.0501 104.519 25.6582C104.519 25.2344 104.61 24.8538 104.792 24.5166C104.975 24.1748 105.221 23.8831 105.531 23.6416C105.841 23.4046 106.201 23.2246 106.611 23.1016C107.025 22.974 107.461 22.9102 107.916 22.9102C108.399 22.9102 108.848 22.9854 109.263 23.1357C109.682 23.2816 110.047 23.4867 110.357 23.751C110.667 24.0199 110.911 24.3411 111.088 24.7148C111.271 25.084 111.362 25.4941 111.362 25.9453H109.735C109.712 25.6947 109.657 25.4668 109.571 25.2617C109.489 25.0521 109.372 24.8721 109.222 24.7217C109.067 24.5758 108.878 24.4619 108.655 24.3799C108.436 24.2933 108.183 24.25 107.896 24.25C107.645 24.25 107.413 24.2842 107.199 24.3525C106.989 24.4163 106.807 24.5075 106.652 24.626C106.497 24.749 106.376 24.8971 106.289 25.0703C106.203 25.2435 106.16 25.4372 106.16 25.6514C106.164 25.8792 106.223 26.0798 106.337 26.2529C106.451 26.4215 106.604 26.5697 106.795 26.6973C106.991 26.8249 107.215 26.9365 107.465 27.0322C107.72 27.1279 107.987 27.2168 108.265 27.2988C108.616 27.3991 108.958 27.5244 109.29 27.6748C109.628 27.8206 109.938 27.9984 110.22 28.208C110.571 28.4723 110.851 28.7891 111.061 29.1582C111.275 29.5228 111.382 29.9443 111.382 30.4229C111.382 30.8649 111.289 31.2546 111.102 31.5918C110.92 31.929 110.674 32.2093 110.364 32.4326C110.049 32.665 109.685 32.8405 109.27 32.959C108.855 33.0729 108.418 33.1299 107.957 33.1299C107.47 33.1299 106.989 33.0547 106.515 32.9043C106.041 32.7493 105.629 32.526 105.278 32.2344C104.954 31.9609 104.697 31.6396 104.505 31.2705C104.318 30.9014 104.223 30.4775 104.218 29.999H105.859C105.882 30.3044 105.945 30.571 106.05 30.7988C106.16 31.0221 106.308 31.2067 106.494 31.3525C106.677 31.5029 106.891 31.6146 107.137 31.6875C107.388 31.7604 107.661 31.7969 107.957 31.7969C108.208 31.7969 108.44 31.7673 108.655 31.708C108.873 31.6488 109.063 31.5599 109.222 31.4414C109.377 31.3275 109.5 31.1862 109.591 31.0176C109.687 30.849 109.735 30.6553 109.735 30.4365ZM113.231 25.6035H117.155V31.6465H119.329V33H113.231V31.6465H115.508V26.9639H113.231V25.6035ZM115.357 23.6895C115.357 23.5573 115.38 23.4365 115.426 23.3271C115.471 23.2132 115.537 23.1152 115.624 23.0332C115.706 22.9557 115.804 22.8965 115.918 22.8555C116.036 22.8099 116.169 22.7871 116.314 22.7871C116.561 22.7871 116.759 22.8509 116.909 22.9785C117.064 23.1016 117.153 23.2611 117.176 23.457C117.208 23.6576 117.174 23.833 117.073 23.9834C116.973 24.1292 116.827 24.2272 116.636 24.2773C116.54 24.3639 116.426 24.4209 116.294 24.4482C116.162 24.4756 116.016 24.4642 115.856 24.4141C115.692 24.3639 115.567 24.2751 115.48 24.1475C115.398 24.0153 115.357 23.8626 115.357 23.6895ZM123.174 31.6807H127.679V33H120.994V31.9268L125.246 26.9365H121.076V25.6035H127.474V26.6426L123.174 31.6807ZM132.844 33.1367C132.297 33.1367 131.796 33.0456 131.34 32.8633C130.889 32.681 130.502 32.4281 130.178 32.1045C129.854 31.7855 129.604 31.4095 129.426 30.9766C129.253 30.5391 129.166 30.0674 129.166 29.5615V29.2812C129.166 28.7025 129.257 28.1784 129.44 27.709C129.622 27.2396 129.873 26.8385 130.192 26.5059C130.511 26.1732 130.88 25.918 131.299 25.7402C131.723 25.5579 132.174 25.4668 132.653 25.4668C133.186 25.4668 133.658 25.5579 134.068 25.7402C134.478 25.918 134.822 26.1663 135.1 26.4854C135.378 26.8089 135.588 27.194 135.729 27.6406C135.87 28.0872 135.941 28.5749 135.941 29.1035V29.8076H130.814V29.8418C130.864 30.1654 130.941 30.4365 131.046 30.6553C131.151 30.874 131.295 31.07 131.477 31.2432C131.659 31.4255 131.873 31.5667 132.119 31.667C132.37 31.7673 132.644 31.8174 132.94 31.8174C133.345 31.8174 133.724 31.7399 134.074 31.585C134.425 31.4255 134.715 31.1999 134.943 30.9082L135.818 31.7559C135.572 32.1113 135.193 32.4303 134.683 32.7129C134.177 32.9954 133.564 33.1367 132.844 33.1367ZM132.646 26.793C132.413 26.793 132.197 26.8363 131.996 26.9229C131.8 27.0049 131.625 27.1234 131.47 27.2783C131.315 27.4378 131.185 27.6292 131.08 27.8525C130.976 28.0758 130.898 28.3288 130.848 28.6113H134.327V28.502C134.327 28.2878 134.289 28.0758 134.211 27.8662C134.134 27.652 134.024 27.4652 133.883 27.3057C133.746 27.1507 133.573 27.0277 133.364 26.9365C133.158 26.8408 132.919 26.793 132.646 26.793ZM139.895 32.0156C139.895 31.7012 139.996 31.4323 140.196 31.209C140.401 30.9857 140.695 30.874 141.078 30.874C141.452 30.874 141.743 30.9857 141.953 31.209C142.163 31.4277 142.268 31.6966 142.268 32.0156C142.268 32.3346 142.16 32.6012 141.946 32.8154C141.737 33.0296 141.447 33.1367 141.078 33.1367C140.704 33.1367 140.413 33.0296 140.203 32.8154C139.998 32.5967 139.895 32.3301 139.895 32.0156ZM139.895 26.2256C139.895 25.9111 139.996 25.6423 140.196 25.4189C140.401 25.1956 140.695 25.084 141.078 25.084C141.452 25.084 141.743 25.1956 141.953 25.4189C142.163 25.6377 142.268 25.9066 142.268 26.2256C142.268 26.5446 142.16 26.8112 141.946 27.0254C141.737 27.2396 141.447 27.3467 141.078 27.3467C140.704 27.3467 140.413 27.2396 140.203 27.0254C139.998 26.8066 139.895 26.54 139.895 26.2256ZM152.265 33H145.586V31.8652L148.827 28.3379C149.096 28.0417 149.321 27.7773 149.503 27.5449C149.686 27.3079 149.834 27.0915 149.948 26.8955C150.057 26.6995 150.135 26.5173 150.18 26.3486C150.23 26.1755 150.255 26.0023 150.255 25.8291C150.255 25.5967 150.221 25.3848 150.153 25.1934C150.085 25.002 149.984 24.8379 149.852 24.7012C149.72 24.5645 149.56 24.4574 149.374 24.3799C149.191 24.3024 148.986 24.2637 148.758 24.2637C148.467 24.2637 148.214 24.3047 148 24.3867C147.785 24.4688 147.608 24.585 147.466 24.7354C147.321 24.8949 147.211 25.0885 147.138 25.3164C147.065 25.5397 147.029 25.7949 147.029 26.082H145.388C145.388 25.6491 145.468 25.2412 145.628 24.8584C145.787 24.471 146.015 24.1338 146.311 23.8467C146.603 23.5596 146.958 23.3317 147.378 23.1631C147.801 22.9945 148.273 22.9102 148.793 22.9102C149.28 22.9102 149.715 22.9808 150.098 23.1221C150.486 23.2633 150.811 23.4593 151.076 23.71C151.336 23.9606 151.534 24.2614 151.67 24.6123C151.807 24.9587 151.876 25.3415 151.876 25.7607C151.876 26.0752 151.823 26.3805 151.718 26.6768C151.618 26.9684 151.479 27.2578 151.301 27.5449C151.119 27.832 150.903 28.1214 150.652 28.4131C150.406 28.7048 150.137 29.0055 149.845 29.3154L147.63 31.6807H152.265V33ZM159.57 29.4521H160.821V30.7783H159.57V33H157.936V30.7783H153.629L153.588 29.7734L157.888 23.0469H159.57V29.4521ZM155.256 29.4521H157.936V25.2344L157.744 25.5898L155.256 29.4521Z" fill="white" fill-opacity="0.8"/>
  <rect x="57.5" y="15.5" width="117" height="25" rx="12.5" stroke="white" stroke-opacity="0.6"/>
  <rect x="81" y="57" width="194" height="82" rx="23" stroke="white" stroke-width="2"/>
  <path d="M162.256 107V90.2H169.408C170.512 90.2 171.44 90.36 172.192 90.68C172.96 91 173.536 91.48 173.92 92.12C174.32 92.744 174.52 93.504 174.52 94.4C174.52 95.328 174.272 96.112 173.776 96.752C173.28 97.392 172.584 97.832 171.688 98.072L171.664 97.592C172.416 97.752 173.072 98.04 173.632 98.456C174.192 98.856 174.624 99.36 174.928 99.968C175.248 100.56 175.408 101.24 175.408 102.008C175.408 102.824 175.272 103.544 175 104.168C174.744 104.792 174.36 105.312 173.848 105.728C173.336 106.144 172.728 106.464 172.024 106.688C171.32 106.896 170.528 107 169.648 107H162.256ZM165.304 104.192H169.504C170.096 104.192 170.592 104.104 170.992 103.928C171.408 103.752 171.72 103.496 171.928 103.16C172.152 102.808 172.264 102.392 172.264 101.912C172.264 101.464 172.144 101.08 171.904 100.76C171.68 100.44 171.352 100.2 170.92 100.04C170.488 99.864 169.976 99.776 169.384 99.776H165.304V104.192ZM165.304 97.088H169.12C169.584 97.088 169.984 97 170.32 96.824C170.672 96.648 170.944 96.408 171.136 96.104C171.328 95.8 171.424 95.448 171.424 95.048C171.424 94.408 171.208 93.912 170.776 93.56C170.344 93.192 169.712 93.008 168.88 93.008H165.304V97.088ZM182.643 107.24C181.731 107.24 180.939 107.04 180.267 106.64C179.595 106.224 179.083 105.64 178.731 104.888C178.379 104.12 178.203 103.208 178.203 102.152V94.352H181.155V101.528C181.155 102.2 181.259 102.776 181.467 103.256C181.675 103.72 181.979 104.08 182.379 104.336C182.779 104.592 183.259 104.72 183.819 104.72C184.235 104.72 184.611 104.656 184.947 104.528C185.299 104.384 185.603 104.192 185.859 103.952C186.115 103.696 186.315 103.4 186.459 103.064C186.603 102.712 186.675 102.336 186.675 101.936V94.352H189.627V107H186.747L186.699 104.36L187.227 104.072C187.035 104.68 186.707 105.224 186.243 105.704C185.795 106.168 185.259 106.544 184.635 106.832C184.011 107.104 183.347 107.24 182.643 107.24ZM194.455 107V91.136H197.407V107H194.455ZM191.959 97.088V94.352H200.167V97.088H191.959ZM203.784 107V91.136H206.736V107H203.784ZM201.288 97.088V94.352H209.496V97.088H201.288ZM217.41 107.24C216.146 107.24 215.018 106.96 214.026 106.4C213.034 105.824 212.25 105.04 211.674 104.048C211.098 103.056 210.81 101.928 210.81 100.664C210.81 99.4 211.098 98.272 211.674 97.28C212.25 96.288 213.034 95.512 214.026 94.952C215.018 94.376 216.146 94.088 217.41 94.088C218.658 94.088 219.778 94.376 220.77 94.952C221.762 95.512 222.538 96.288 223.098 97.28C223.674 98.272 223.962 99.4 223.962 100.664C223.962 101.928 223.674 103.056 223.098 104.048C222.538 105.04 221.762 105.824 220.77 106.4C219.778 106.96 218.658 107.24 217.41 107.24ZM217.41 104.624C218.098 104.624 218.706 104.448 219.234 104.096C219.778 103.744 220.202 103.272 220.506 102.68C220.826 102.088 220.978 101.416 220.962 100.664C220.978 99.896 220.826 99.216 220.506 98.624C220.202 98.032 219.778 97.568 219.234 97.232C218.706 96.88 218.098 96.704 217.41 96.704C216.722 96.704 216.098 96.88 215.538 97.232C214.994 97.568 214.57 98.04 214.266 98.648C213.962 99.24 213.81 99.912 213.81 100.664C213.81 101.416 213.962 102.088 214.266 102.68C214.57 103.272 214.994 103.744 215.538 104.096C216.098 104.448 216.722 104.624 217.41 104.624ZM226.603 107V94.352H229.483L229.531 96.944L228.979 97.232C229.139 96.656 229.451 96.136 229.915 95.672C230.379 95.192 230.931 94.808 231.571 94.52C232.211 94.232 232.867 94.088 233.539 94.088C234.499 94.088 235.299 94.28 235.939 94.664C236.595 95.048 237.083 95.624 237.403 96.392C237.739 97.16 237.907 98.12 237.907 99.272V107H234.955V99.488C234.955 98.848 234.867 98.32 234.691 97.904C234.515 97.472 234.243 97.16 233.875 96.968C233.507 96.76 233.059 96.664 232.531 96.68C232.099 96.68 231.699 96.752 231.331 96.896C230.979 97.024 230.667 97.216 230.395 97.472C230.139 97.712 229.931 97.992 229.771 98.312C229.627 98.632 229.555 98.984 229.555 99.368V107H228.091C227.803 107 227.531 107 227.275 107C227.035 107 226.811 107 226.603 107Z" fill="white"/>
  <g clip-path="url(#clip2_131_4035)">
    <line x1="80.5" y1="163" x2="80.5" y2="148" stroke="white" stroke-opacity="0.6"/>
    <line x1="80" y1="155.5" x2="116" y2="155.5" stroke="white" stroke-opacity="0.6"/>
    <line x1="115.5" y1="163" x2="115.5" y2="148" stroke="white" stroke-opacity="0.6"/>
  </g>
  <path d="M96.852 180H90.1733V178.865L93.4135 175.338C93.6824 175.042 93.908 174.777 94.0903 174.545C94.2726 174.308 94.4207 174.091 94.5346 173.896C94.644 173.7 94.7214 173.517 94.767 173.349C94.8172 173.175 94.8422 173.002 94.8422 172.829C94.8422 172.597 94.808 172.385 94.7397 172.193C94.6713 172.002 94.5711 171.838 94.4389 171.701C94.3067 171.564 94.1472 171.457 93.9604 171.38C93.7781 171.302 93.573 171.264 93.3451 171.264C93.0535 171.264 92.8005 171.305 92.5864 171.387C92.3722 171.469 92.1944 171.585 92.0532 171.735C91.9073 171.895 91.7979 172.089 91.725 172.316C91.6521 172.54 91.6157 172.795 91.6157 173.082H89.975C89.975 172.649 90.0548 172.241 90.2143 171.858C90.3738 171.471 90.6017 171.134 90.8979 170.847C91.1895 170.56 91.545 170.332 91.9643 170.163C92.3881 169.994 92.8598 169.91 93.3793 169.91C93.867 169.91 94.3022 169.981 94.685 170.122C95.0724 170.263 95.3982 170.459 95.6625 170.71C95.9223 170.961 96.1205 171.261 96.2573 171.612C96.394 171.959 96.4623 172.341 96.4623 172.761C96.4623 173.075 96.4099 173.381 96.3051 173.677C96.2048 173.968 96.0658 174.258 95.8881 174.545C95.7058 174.832 95.4894 175.121 95.2387 175.413C94.9926 175.705 94.7237 176.006 94.4321 176.315L92.2172 178.681H96.852V180ZM104.156 176.452H105.407V177.778H104.156V180H102.523V177.778H98.2159L98.1749 176.773L102.475 170.047H104.156V176.452ZM99.8428 176.452H102.523V172.234L102.331 172.59L99.8428 176.452Z" fill="white" fill-opacity="0.8"/>
  <g clip-path="url(#clip3_131_4035)">
    <line x1="148.5" y1="163" x2="148.5" y2="148" stroke="white" stroke-opacity="0.6"/>
    <line x1="148" y1="155.5" x2="160" y2="155.5" stroke="white" stroke-opacity="0.6"/>
    <line x1="159.5" y1="163" x2="159.5" y2="148" stroke="white" stroke-opacity="0.6"/>
  </g>
  <path d="M156.98 172.672C156.98 172.973 156.93 173.253 156.83 173.513C156.734 173.772 156.597 174.005 156.419 174.21C156.31 174.342 156.185 174.465 156.043 174.579C155.902 174.693 155.745 174.793 155.572 174.88C155.777 174.976 155.966 175.087 156.139 175.215C156.317 175.338 156.472 175.481 156.604 175.646C156.791 175.864 156.937 176.113 157.042 176.391C157.146 176.669 157.199 176.969 157.199 177.293C157.199 177.753 157.114 178.161 156.946 178.517C156.777 178.872 156.547 179.168 156.255 179.405C155.959 179.647 155.613 179.829 155.216 179.952C154.824 180.075 154.401 180.137 153.945 180.137C153.48 180.137 153.047 180.075 152.646 179.952C152.25 179.829 151.905 179.647 151.614 179.405C151.318 179.168 151.085 178.874 150.917 178.523C150.752 178.168 150.67 177.758 150.67 177.293C150.67 177.02 150.707 176.76 150.78 176.514C150.857 176.268 150.967 176.04 151.108 175.83C151.249 175.63 151.418 175.45 151.614 175.29C151.814 175.126 152.038 174.987 152.284 174.873C152.074 174.768 151.883 174.641 151.709 174.49C151.541 174.34 151.397 174.174 151.279 173.991C151.156 173.804 151.06 173.599 150.992 173.376C150.923 173.153 150.889 172.918 150.889 172.672C150.889 172.23 150.964 171.838 151.115 171.496C151.27 171.154 151.482 170.865 151.75 170.628C152.015 170.391 152.332 170.213 152.701 170.095C153.074 169.972 153.482 169.91 153.924 169.91C154.362 169.91 154.765 169.972 155.134 170.095C155.508 170.213 155.834 170.391 156.112 170.628C156.381 170.86 156.593 171.15 156.748 171.496C156.903 171.838 156.98 172.23 156.98 172.672ZM155.565 177.204C155.565 176.958 155.524 176.735 155.442 176.534C155.364 176.329 155.255 176.151 155.114 176.001C154.968 175.86 154.795 175.75 154.594 175.673C154.394 175.595 154.173 175.557 153.931 175.557C153.681 175.557 153.455 175.595 153.254 175.673C153.058 175.75 152.89 175.86 152.749 176.001C152.607 176.151 152.498 176.329 152.42 176.534C152.347 176.735 152.311 176.96 152.311 177.211C152.311 177.466 152.35 177.696 152.427 177.901C152.505 178.102 152.616 178.271 152.762 178.407C152.903 178.539 153.072 178.642 153.268 178.715C153.469 178.783 153.694 178.817 153.945 178.817C154.182 178.817 154.398 178.781 154.594 178.708C154.795 178.635 154.968 178.53 155.114 178.394C155.25 178.252 155.36 178.084 155.442 177.888C155.524 177.687 155.565 177.459 155.565 177.204ZM155.353 172.733C155.353 172.51 155.317 172.307 155.244 172.125C155.175 171.943 155.08 171.783 154.957 171.646C154.829 171.519 154.679 171.419 154.505 171.346C154.332 171.273 154.136 171.236 153.917 171.236C153.703 171.236 153.51 171.273 153.336 171.346C153.168 171.414 153.022 171.512 152.899 171.64C152.78 171.767 152.689 171.924 152.625 172.111C152.562 172.298 152.53 172.506 152.53 172.733C152.53 172.957 152.562 173.162 152.625 173.349C152.689 173.531 152.785 173.686 152.913 173.813C153.036 173.946 153.184 174.048 153.357 174.121C153.53 174.194 153.724 174.23 153.938 174.23C154.152 174.23 154.346 174.194 154.519 174.121C154.692 174.048 154.84 173.946 154.963 173.813C155.086 173.686 155.182 173.531 155.25 173.349C155.319 173.162 155.353 172.957 155.353 172.733Z" fill="white" fill-opacity="0.8"/>
  <g clip-path="url(#clip4_131_4035)">
    <line x1="196.5" y1="163" x2="196.5" y2="148" stroke="white" stroke-opacity="0.6"/>
    <line x1="196" y1="155.5" x2="232" y2="155.5" stroke="white" stroke-opacity="0.6"/>
    <line x1="231.5" y1="163" x2="231.5" y2="148" stroke="white" stroke-opacity="0.6"/>
  </g>
  <path d="M212.852 180H206.173V178.865L209.414 175.338C209.682 175.042 209.908 174.777 210.09 174.545C210.273 174.308 210.421 174.091 210.535 173.896C210.644 173.7 210.721 173.517 210.767 173.349C210.817 173.175 210.842 173.002 210.842 172.829C210.842 172.597 210.808 172.385 210.74 172.193C210.671 172.002 210.571 171.838 210.439 171.701C210.307 171.564 210.147 171.457 209.96 171.38C209.778 171.302 209.573 171.264 209.345 171.264C209.053 171.264 208.801 171.305 208.586 171.387C208.372 171.469 208.194 171.585 208.053 171.735C207.907 171.895 207.798 172.089 207.725 172.316C207.652 172.54 207.616 172.795 207.616 173.082H205.975C205.975 172.649 206.055 172.241 206.214 171.858C206.374 171.471 206.602 171.134 206.898 170.847C207.19 170.56 207.545 170.332 207.964 170.163C208.388 169.994 208.86 169.91 209.379 169.91C209.867 169.91 210.302 169.981 210.685 170.122C211.072 170.263 211.398 170.459 211.663 170.71C211.922 170.961 212.121 171.261 212.257 171.612C212.394 171.959 212.462 172.341 212.462 172.761C212.462 173.075 212.41 173.381 212.305 173.677C212.205 173.968 212.066 174.258 211.888 174.545C211.706 174.832 211.489 175.121 211.239 175.413C210.993 175.705 210.724 176.006 210.432 176.315L208.217 178.681H212.852V180ZM220.156 176.452H221.407V177.778H220.156V180H218.523V177.778H214.216L214.175 176.773L218.475 170.047H220.156V176.452ZM215.843 176.452H218.523V172.234L218.331 172.59L215.843 176.452Z" fill="white" fill-opacity="0.8"/>
  <g clip-path="url(#clip5_131_4035)">
    <line x1="250.5" y1="163" x2="250.5" y2="148" stroke="white" stroke-opacity="0.6"/>
    <line x1="250" y1="155.5" x2="274" y2="155.5" stroke="white" stroke-opacity="0.6"/>
    <line x1="273.5" y1="163" x2="273.5" y2="148" stroke="white" stroke-opacity="0.6"/>
  </g>
  <path d="M250.762 172.467C251.027 172.467 251.282 172.485 251.528 172.521C251.779 172.558 251.974 172.601 252.116 172.651L251.883 174.265C251.633 174.21 251.384 174.169 251.138 174.142C250.897 174.114 250.655 174.101 250.414 174.101C250.14 174.101 249.894 174.128 249.675 174.183C249.457 174.237 249.263 174.322 249.094 174.436C248.912 174.545 248.757 174.684 248.629 174.853C248.502 175.021 248.395 175.215 248.308 175.434V180H246.674V172.604H248.206L248.274 173.629L248.281 173.8C248.582 173.385 248.942 173.059 249.361 172.822C249.785 172.585 250.252 172.467 250.762 172.467ZM256.153 179.016C256.153 178.701 256.253 178.432 256.453 178.209C256.658 177.986 256.952 177.874 257.335 177.874C257.709 177.874 258.001 177.986 258.21 178.209C258.42 178.428 258.525 178.697 258.525 179.016C258.525 179.335 258.417 179.601 258.203 179.815C257.994 180.03 257.704 180.137 257.335 180.137C256.961 180.137 256.67 180.03 256.46 179.815C256.255 179.597 256.153 179.33 256.153 179.016ZM256.153 173.226C256.153 172.911 256.253 172.642 256.453 172.419C256.658 172.196 256.952 172.084 257.335 172.084C257.709 172.084 258.001 172.196 258.21 172.419C258.42 172.638 258.525 172.907 258.525 173.226C258.525 173.545 258.417 173.811 258.203 174.025C257.994 174.24 257.704 174.347 257.335 174.347C256.961 174.347 256.67 174.24 256.46 174.025C256.255 173.807 256.153 173.54 256.153 173.226ZM266.608 180H264.961V172.07L262.411 173.007V171.564L266.506 170.047H266.608V180ZM275.334 169.999V171.387H275.225C274.683 171.387 274.211 171.462 273.81 171.612C273.414 171.758 273.079 171.963 272.805 172.228C272.527 172.492 272.311 172.809 272.156 173.178C272.005 173.547 271.912 173.943 271.875 174.367C271.985 174.244 272.112 174.126 272.258 174.012C272.404 173.893 272.566 173.788 272.744 173.697C272.912 173.611 273.099 173.542 273.304 173.492C273.509 173.438 273.726 173.41 273.954 173.41C274.437 173.41 274.856 173.501 275.211 173.684C275.571 173.866 275.868 174.112 276.1 174.422C276.337 174.732 276.51 175.087 276.62 175.488C276.734 175.889 276.79 176.306 276.79 176.739C276.79 177.213 276.718 177.658 276.572 178.072C276.43 178.482 276.223 178.84 275.95 179.146C275.672 179.455 275.332 179.699 274.931 179.877C274.535 180.05 274.081 180.137 273.571 180.137C273.047 180.137 272.58 180.036 272.169 179.836C271.759 179.635 271.413 179.364 271.13 179.022C270.83 178.667 270.602 178.25 270.447 177.771C270.292 177.288 270.214 176.78 270.214 176.247V175.57C270.214 174.768 270.317 174.005 270.522 173.28C270.732 172.551 271.078 171.924 271.561 171.4C271.971 170.949 272.477 170.603 273.079 170.361C273.68 170.12 274.368 169.999 275.143 169.999H275.334ZM273.55 174.736C273.354 174.736 273.167 174.766 272.99 174.825C272.812 174.884 272.648 174.966 272.498 175.071C272.361 175.176 272.238 175.297 272.128 175.434C272.019 175.57 271.928 175.723 271.855 175.892V176.397C271.855 176.794 271.898 177.143 271.985 177.443C272.076 177.744 272.199 177.995 272.354 178.195C272.509 178.396 272.689 178.549 272.894 178.653C273.099 178.758 273.318 178.811 273.55 178.811C273.805 178.811 274.033 178.76 274.234 178.66C274.434 178.555 274.605 178.414 274.747 178.236C274.888 178.054 274.995 177.84 275.068 177.594C275.141 177.343 275.177 177.072 275.177 176.78C275.177 176.502 275.141 176.24 275.068 175.994C274.999 175.743 274.897 175.525 274.76 175.338C274.623 175.151 274.453 175.005 274.248 174.9C274.047 174.791 273.815 174.736 273.55 174.736Z" fill="white" fill-opacity="0.8"/>
  <path d="M214.833 87C214.833 88.4728 216.027 89.6667 217.5 89.6667C218.973 89.6667 220.167 88.4728 220.167 87C220.167 85.5272 218.973 84.3333 217.5 84.3333C216.027 84.3333 214.833 85.5272 214.833 87ZM217 41L217 87L218 87L218 41L217 41Z" fill="white" fill-opacity="0.6"/>
  <path d="M129.333 79C129.333 80.4728 130.527 81.6667 132 81.6667C133.473 81.6667 134.667 80.4728 134.667 79C134.667 77.5272 133.473 76.3333 132 76.3333C130.527 76.3333 129.333 77.5272 129.333 79ZM131.5 41L131.5 79L132.5 79L132.5 41L131.5 41Z" fill="white" fill-opacity="0.6"/>
  <path d="M20 0V195H314" stroke="white" stroke-opacity="0.8"/>
  <path d="M144.5 98C144.5 98.3978 144.342 98.7794 144.061 99.0607C143.779 99.342 143.398 99.5 143 99.5H133.5V109C133.5 109.398 133.342 109.779 133.061 110.061C132.779 110.342 132.398 110.5 132 110.5C131.602 110.5 131.221 110.342 130.939 110.061C130.658 109.779 130.5 109.398 130.5 109V99.5H121C120.602 99.5 120.221 99.342 119.939 99.0607C119.658 98.7794 119.5 98.3978 119.5 98C119.5 97.6022 119.658 97.2206 119.939 96.9393C120.221 96.658 120.602 96.5 121 96.5H130.5V87C130.5 86.6022 130.658 86.2206 130.939 85.9393C131.221 85.658 131.602 85.5 132 85.5C132.398 85.5 132.779 85.658 133.061 85.9393C133.342 86.2206 133.5 86.6022 133.5 87V96.5H143C143.398 96.5 143.779 96.658 144.061 96.9393C144.342 97.2206 144.5 97.6022 144.5 98Z" fill="white"/>
  <rect x="80" y="56" width="36" height="84" fill="white" fill-opacity="0.2"/>
  <rect x="240" y="56" width="36" height="84" fill="white" fill-opacity="0.2"/>
  <rect x="80" y="116" width="196" height="24" fill="white" fill-opacity="0.2"/>
  <rect x="80" y="56" width="196" height="24" fill="white" fill-opacity="0.2"/>
  <rect x="148" y="56" width="12" height="84" fill="white" fill-opacity="0.2"/>
  <defs>
    <clipPath id="clip0_131_4035">
      <rect width="15" height="24" fill="white" transform="translate(57 116)"/>
    </clipPath>
    <clipPath id="clip1_131_4035">
      <rect width="15" height="24" fill="white" transform="translate(57 56)"/>
    </clipPath>
    <clipPath id="clip2_131_4035">
      <rect width="36" height="15" fill="white" transform="translate(80 148)"/>
    </clipPath>
    <clipPath id="clip3_131_4035">
      <rect width="12" height="15" fill="white" transform="translate(148 148)"/>
    </clipPath>
    <clipPath id="clip4_131_4035">
      <rect width="36" height="15" fill="white" transform="translate(196 148)"/>
    </clipPath>
    <clipPath id="clip5_131_4035">
      <rect width="24" height="15" fill="white" transform="translate(250 148)"/>
    </clipPath>
  </defs>
</svg>
