<svg width="314" height="215" viewBox="0 0 314 215" fill="none"
  xmlns="http://www.w3.org/2000/svg">
  <rect x="80" y="56" width="196" height="84" rx="24" fill="#5C17E5"/>
  <path d="M144.5 98C144.5 98.3978 144.342 98.7794 144.061 99.0607C143.779 99.342 143.398 99.5 143 99.5H133.5V109C133.5 109.398 133.342 109.779 133.061 110.061C132.779 110.342 132.398 110.5 132 110.5C131.602 110.5 131.221 110.342 130.939 110.061C130.658 109.779 130.5 109.398 130.5 109V99.5H121C120.602 99.5 120.221 99.342 119.939 99.0607C119.658 98.7794 119.5 98.3978 119.5 98C119.5 97.6022 119.658 97.2206 119.939 96.9393C120.221 96.658 120.602 96.5 121 96.5H130.5V87C130.5 86.6022 130.658 86.2206 130.939 85.9393C131.221 85.658 131.602 85.5 132 85.5C132.398 85.5 132.779 85.658 133.061 85.9393C133.342 86.2206 133.5 86.6022 133.5 87V96.5H143C143.398 96.5 143.779 96.658 144.061 96.9393C144.342 97.2206 144.5 97.6022 144.5 98Z" fill="white"/>
  <path d="M162.256 107V90.2H169.408C170.512 90.2 171.44 90.36 172.192 90.68C172.96 91 173.536 91.48 173.92 92.12C174.32 92.744 174.52 93.504 174.52 94.4C174.52 95.328 174.272 96.112 173.776 96.752C173.28 97.392 172.584 97.832 171.688 98.072L171.664 97.592C172.416 97.752 173.072 98.04 173.632 98.456C174.192 98.856 174.624 99.36 174.928 99.968C175.248 100.56 175.408 101.24 175.408 102.008C175.408 102.824 175.272 103.544 175 104.168C174.744 104.792 174.36 105.312 173.848 105.728C173.336 106.144 172.728 106.464 172.024 106.688C171.32 106.896 170.528 107 169.648 107H162.256ZM165.304 104.192H169.504C170.096 104.192 170.592 104.104 170.992 103.928C171.408 103.752 171.72 103.496 171.928 103.16C172.152 102.808 172.264 102.392 172.264 101.912C172.264 101.464 172.144 101.08 171.904 100.76C171.68 100.44 171.352 100.2 170.92 100.04C170.488 99.864 169.976 99.776 169.384 99.776H165.304V104.192ZM165.304 97.088H169.12C169.584 97.088 169.984 97 170.32 96.824C170.672 96.648 170.944 96.408 171.136 96.104C171.328 95.8 171.424 95.448 171.424 95.048C171.424 94.408 171.208 93.912 170.776 93.56C170.344 93.192 169.712 93.008 168.88 93.008H165.304V97.088ZM182.643 107.24C181.731 107.24 180.939 107.04 180.267 106.64C179.595 106.224 179.083 105.64 178.731 104.888C178.379 104.12 178.203 103.208 178.203 102.152V94.352H181.155V101.528C181.155 102.2 181.259 102.776 181.467 103.256C181.675 103.72 181.979 104.08 182.379 104.336C182.779 104.592 183.259 104.72 183.819 104.72C184.235 104.72 184.611 104.656 184.947 104.528C185.299 104.384 185.603 104.192 185.859 103.952C186.115 103.696 186.315 103.4 186.459 103.064C186.603 102.712 186.675 102.336 186.675 101.936V94.352H189.627V107H186.747L186.699 104.36L187.227 104.072C187.035 104.68 186.707 105.224 186.243 105.704C185.795 106.168 185.259 106.544 184.635 106.832C184.011 107.104 183.347 107.24 182.643 107.24ZM194.455 107V91.136H197.407V107H194.455ZM191.959 97.088V94.352H200.167V97.088H191.959ZM203.784 107V91.136H206.736V107H203.784ZM201.288 97.088V94.352H209.496V97.088H201.288ZM217.41 107.24C216.146 107.24 215.018 106.96 214.026 106.4C213.034 105.824 212.25 105.04 211.674 104.048C211.098 103.056 210.81 101.928 210.81 100.664C210.81 99.4 211.098 98.272 211.674 97.28C212.25 96.288 213.034 95.512 214.026 94.952C215.018 94.376 216.146 94.088 217.41 94.088C218.658 94.088 219.778 94.376 220.77 94.952C221.762 95.512 222.538 96.288 223.098 97.28C223.674 98.272 223.962 99.4 223.962 100.664C223.962 101.928 223.674 103.056 223.098 104.048C222.538 105.04 221.762 105.824 220.77 106.4C219.778 106.96 218.658 107.24 217.41 107.24ZM217.41 104.624C218.098 104.624 218.706 104.448 219.234 104.096C219.778 103.744 220.202 103.272 220.506 102.68C220.826 102.088 220.978 101.416 220.962 100.664C220.978 99.896 220.826 99.216 220.506 98.624C220.202 98.032 219.778 97.568 219.234 97.232C218.706 96.88 218.098 96.704 217.41 96.704C216.722 96.704 216.098 96.88 215.538 97.232C214.994 97.568 214.57 98.04 214.266 98.648C213.962 99.24 213.81 99.912 213.81 100.664C213.81 101.416 213.962 102.088 214.266 102.68C214.57 103.272 214.994 103.744 215.538 104.096C216.098 104.448 216.722 104.624 217.41 104.624ZM226.603 107V94.352H229.483L229.531 96.944L228.979 97.232C229.139 96.656 229.451 96.136 229.915 95.672C230.379 95.192 230.931 94.808 231.571 94.52C232.211 94.232 232.867 94.088 233.539 94.088C234.499 94.088 235.299 94.28 235.939 94.664C236.595 95.048 237.083 95.624 237.403 96.392C237.739 97.16 237.907 98.12 237.907 99.272V107H234.955V99.488C234.955 98.848 234.867 98.32 234.691 97.904C234.515 97.472 234.243 97.16 233.875 96.968C233.507 96.76 233.059 96.664 232.531 96.68C232.099 96.68 231.699 96.752 231.331 96.896C230.979 97.024 230.667 97.216 230.395 97.472C230.139 97.712 229.931 97.992 229.771 98.312C229.627 98.632 229.555 98.984 229.555 99.368V107H228.091C227.803 107 227.531 107 227.275 107C227.035 107 226.811 107 226.603 107Z" fill="white"/>
  <path d="M109.333 74C109.333 75.4728 110.527 76.6667 112 76.6667C113.473 76.6667 114.667 75.4728 114.667 74C114.667 72.5272 113.473 71.3333 112 71.3333C110.527 71.3333 109.333 72.5272 109.333 74ZM111.5 41L111.5 74L112.5 74L112.5 41L111.5 41Z" fill="black" fill-opacity="0.6"/>
  <path d="M234.667 115C234.667 113.527 233.473 112.333 232 112.333C230.527 112.333 229.333 113.527 229.333 115C229.333 116.473 230.527 117.667 232 117.667C233.473 117.667 234.667 116.473 234.667 115ZM232.5 188L232.5 115L231.5 115L231.5 188L232.5 188Z" fill="black" fill-opacity="0.6"/>
  <path d="M134.667 118C134.667 116.527 133.473 115.333 132 115.333C130.527 115.333 129.333 116.527 129.333 118C129.333 119.473 130.527 120.667 132 120.667C133.473 120.667 134.667 119.473 134.667 118ZM132.5 155L132.5 118L131.5 118L131.5 155L132.5 155Z" fill="black" fill-opacity="0.6"/>
  <rect x="22" y="16" width="223" height="24" rx="12" fill="#6A25F4" fill-opacity="0.2"/>
  <circle cx="34" cy="28" r="8" fill="#5C17E5"/>
  <path d="M51.7444 23.0469H57.6096V24.4072H55.4837V31.6465H57.6096V33H51.7444V31.6465H53.8225V24.4072H51.7444V23.0469ZM59.8075 33V25.6035H61.2841L61.3866 26.6562C61.4869 26.515 61.5963 26.3851 61.7148 26.2666C61.8378 26.1436 61.9677 26.0342 62.1044 25.9385C62.3232 25.7881 62.5624 25.6719 62.8222 25.5898C63.082 25.5078 63.3554 25.4668 63.6425 25.4668C64.0208 25.4668 64.3671 25.5215 64.6816 25.6309C64.996 25.7402 65.2649 25.9134 65.4882 26.1504C65.7115 26.3874 65.8847 26.6904 66.0077 27.0596C66.1308 27.4242 66.1923 27.8662 66.1923 28.3857V33H64.5585V28.4131C64.5585 28.1077 64.5243 27.8525 64.456 27.6475C64.3876 27.4424 64.2874 27.2783 64.1552 27.1553C64.023 27.0322 63.8635 26.9456 63.6767 26.8955C63.4898 26.8408 63.2756 26.8135 63.0341 26.8135C62.8336 26.8135 62.6467 26.8408 62.4736 26.8955C62.3004 26.9456 62.1432 27.0186 62.0019 27.1143C61.8925 27.1872 61.79 27.276 61.6943 27.3809C61.5986 27.4857 61.5142 27.5996 61.4413 27.7227V33H59.8075ZM71.357 23.7988V25.6035H74.1392V26.8271H71.357V30.3613C71.357 30.6348 71.3889 30.8649 71.4527 31.0518C71.5211 31.234 71.6145 31.3776 71.733 31.4824C71.8515 31.5918 71.9927 31.6693 72.1568 31.7148C72.3209 31.7604 72.5009 31.7832 72.6968 31.7832C72.8381 31.7832 72.9839 31.7764 73.1343 31.7627C73.2847 31.749 73.4306 31.7308 73.5718 31.708C73.7086 31.6898 73.8362 31.6693 73.9546 31.6465C74.0777 31.6191 74.1802 31.5964 74.2623 31.5781L74.44 32.7061C74.3215 32.779 74.178 32.8428 74.0093 32.8975C73.8453 32.9476 73.6675 32.9909 73.4761 33.0273C73.2847 33.0638 73.0842 33.0911 72.8746 33.1094C72.6695 33.1322 72.4644 33.1436 72.2593 33.1436C71.8856 33.1436 71.5416 33.0934 71.2271 32.9932C70.9172 32.8883 70.6506 32.7266 70.4273 32.5078C70.204 32.2936 70.0285 32.0179 69.9009 31.6807C69.7779 31.3434 69.7164 30.9378 69.7164 30.4639V26.8271H67.9254V25.6035H69.7164V23.7988H71.357ZM79.7961 33.1367C79.2492 33.1367 78.7479 33.0456 78.2922 32.8633C77.841 32.681 77.4536 32.4281 77.1301 32.1045C76.8065 31.7855 76.5559 31.4095 76.3781 30.9766C76.2049 30.5391 76.1184 30.0674 76.1184 29.5615V29.2812C76.1184 28.7025 76.2095 28.1784 76.3918 27.709C76.5741 27.2396 76.8247 26.8385 77.1438 26.5059C77.4628 26.1732 77.8319 25.918 78.2512 25.7402C78.675 25.5579 79.1262 25.4668 79.6047 25.4668C80.1379 25.4668 80.6096 25.5579 81.0197 25.7402C81.4299 25.918 81.774 26.1663 82.052 26.4854C82.3299 26.8089 82.5396 27.194 82.6809 27.6406C82.8221 28.0872 82.8928 28.5749 82.8928 29.1035V29.8076H77.7658V29.8418C77.816 30.1654 77.8934 30.4365 77.9982 30.6553C78.1031 30.874 78.2466 31.07 78.4289 31.2432C78.6112 31.4255 78.8254 31.5667 79.0715 31.667C79.3221 31.7673 79.5956 31.8174 79.8918 31.8174C80.2974 31.8174 80.6757 31.7399 81.0266 31.585C81.3775 31.4255 81.6669 31.1999 81.8947 30.9082L82.7697 31.7559C82.5236 32.1113 82.1454 32.4303 81.635 32.7129C81.1291 32.9954 80.5161 33.1367 79.7961 33.1367ZM79.5979 26.793C79.3654 26.793 79.149 26.8363 78.9484 26.9229C78.7525 27.0049 78.577 27.1234 78.4221 27.2783C78.2671 27.4378 78.1372 27.6292 78.0324 27.8525C77.9276 28.0758 77.8501 28.3288 77.8 28.6113H81.2795V28.502C81.2795 28.2878 81.2408 28.0758 81.1633 27.8662C81.0858 27.652 80.9764 27.4652 80.8352 27.3057C80.6984 27.1507 80.5253 27.0277 80.3156 26.9365C80.1105 26.8408 79.8713 26.793 79.5979 26.793ZM89.7254 25.4668C89.9898 25.4668 90.245 25.485 90.4911 25.5215C90.7417 25.5579 90.9377 25.6012 91.0789 25.6514L90.8465 27.2646C90.5959 27.21 90.3475 27.1689 90.1014 27.1416C89.8599 27.1143 89.6183 27.1006 89.3768 27.1006C89.1034 27.1006 88.8573 27.1279 88.6385 27.1826C88.4198 27.2373 88.2261 27.3216 88.0575 27.4355C87.8752 27.5449 87.7202 27.6839 87.5926 27.8525C87.465 28.0212 87.3579 28.2148 87.2713 28.4336V33H85.6375V25.6035H87.1688L87.2371 26.6289L87.244 26.7998C87.5448 26.3851 87.9048 26.0592 88.3241 25.8223C88.7479 25.5853 89.215 25.4668 89.7254 25.4668ZM97.604 33C97.5539 32.9089 97.5128 32.7995 97.4809 32.6719C97.4536 32.5397 97.4285 32.403 97.4057 32.2617C97.2918 32.3802 97.1619 32.4941 97.0161 32.6035C96.8748 32.7083 96.7153 32.7995 96.5376 32.877C96.3598 32.959 96.1684 33.0228 95.9634 33.0684C95.7583 33.1139 95.5373 33.1367 95.3003 33.1367C94.9175 33.1367 94.5665 33.082 94.2475 32.9727C93.9331 32.8587 93.6642 32.7038 93.4409 32.5078C93.213 32.3164 93.0353 32.0863 92.9077 31.8174C92.7846 31.5439 92.7231 31.25 92.7231 30.9355C92.7231 30.5299 92.8029 30.1722 92.9624 29.8623C93.1264 29.5479 93.3634 29.2881 93.6733 29.083C93.9604 28.8916 94.3136 28.7458 94.7329 28.6455C95.1567 28.5452 95.6352 28.4951 96.1684 28.4951H97.3579V27.9961C97.3579 27.8047 97.3237 27.6315 97.2554 27.4766C97.1915 27.3216 97.0981 27.1872 96.9751 27.0732C96.8429 26.9593 96.6811 26.8727 96.4897 26.8135C96.3029 26.7497 96.0864 26.7178 95.8403 26.7178C95.617 26.7178 95.421 26.7451 95.2524 26.7998C95.0884 26.8545 94.9516 26.9297 94.8423 27.0254C94.7329 27.112 94.6509 27.2191 94.5962 27.3467C94.546 27.4697 94.521 27.6019 94.521 27.7432H92.8804C92.8849 27.4469 92.9555 27.1621 93.0923 26.8887C93.229 26.6152 93.4295 26.3737 93.6938 26.1641C93.949 25.9499 94.2635 25.7812 94.6372 25.6582C95.0154 25.5306 95.4461 25.4668 95.9292 25.4668C96.3621 25.4668 96.7654 25.5215 97.1391 25.6309C97.5174 25.7357 97.8432 25.8929 98.1167 26.1025C98.3901 26.3122 98.6043 26.5788 98.7593 26.9023C98.9142 27.2214 98.9917 27.5905 98.9917 28.0098V31.2979C98.9917 31.6305 99.0145 31.9313 99.06 32.2002C99.1102 32.4645 99.1808 32.6924 99.272 32.8838V33H97.604ZM95.6147 31.8242C95.8289 31.8242 96.0272 31.7969 96.2095 31.7422C96.3963 31.6875 96.5649 31.6169 96.7153 31.5303C96.8657 31.4437 96.9956 31.3457 97.105 31.2363C97.2143 31.127 97.2986 31.013 97.3579 30.8945V29.5273H96.3052C95.9497 29.5273 95.6421 29.5615 95.3823 29.6299C95.1225 29.6937 94.9152 29.7871 94.7602 29.9102C94.6235 30.015 94.521 30.1403 94.4526 30.2861C94.3888 30.432 94.3569 30.596 94.3569 30.7783C94.3569 30.9287 94.3843 31.07 94.4389 31.2021C94.4936 31.3298 94.5734 31.4391 94.6782 31.5303C94.783 31.6214 94.9129 31.6943 95.0679 31.749C95.2228 31.7992 95.4051 31.8242 95.6147 31.8242ZM104.368 31.8242C104.573 31.8242 104.769 31.7946 104.956 31.7354C105.148 31.6715 105.316 31.5827 105.462 31.4688C105.603 31.3548 105.715 31.2204 105.797 31.0654C105.884 30.9105 105.927 30.7396 105.927 30.5527H107.465C107.47 30.9128 107.387 31.2523 107.219 31.5713C107.055 31.8857 106.831 32.1569 106.549 32.3848C106.262 32.6217 105.931 32.8086 105.558 32.9453C105.189 33.0775 104.799 33.1436 104.389 33.1436C103.819 33.1436 103.32 33.0456 102.892 32.8496C102.468 32.6491 102.115 32.3802 101.832 32.043C101.545 31.7057 101.329 31.3138 101.183 30.8672C101.037 30.416 100.964 29.9352 100.964 29.4248V29.1855C100.964 28.6797 101.035 28.2012 101.176 27.75C101.322 27.2988 101.538 26.9046 101.825 26.5674C102.112 26.2301 102.468 25.9635 102.892 25.7676C103.32 25.5671 103.817 25.4668 104.382 25.4668C104.829 25.4668 105.241 25.5352 105.619 25.6719C106.002 25.8086 106.33 26 106.604 26.2461C106.877 26.4922 107.089 26.7861 107.239 27.1279C107.394 27.4697 107.47 27.8457 107.465 28.2559H105.927C105.927 28.0553 105.888 27.8662 105.811 27.6885C105.738 27.5107 105.633 27.3558 105.496 27.2236C105.355 27.0915 105.186 26.9867 104.99 26.9092C104.799 26.8317 104.592 26.793 104.368 26.793C104.026 26.793 103.742 26.8636 103.514 27.0049C103.29 27.1416 103.113 27.3216 102.981 27.5449C102.839 27.7682 102.739 28.0234 102.68 28.3105C102.625 28.5977 102.598 28.8893 102.598 29.1855V29.4248C102.598 29.7256 102.625 30.0218 102.68 30.3135C102.739 30.6006 102.837 30.8535 102.974 31.0723C103.106 31.3001 103.286 31.4824 103.514 31.6191C103.742 31.7559 104.026 31.8242 104.368 31.8242ZM112.698 23.7988V25.6035H115.48V26.8271H112.698V30.3613C112.698 30.6348 112.73 30.8649 112.794 31.0518C112.862 31.234 112.955 31.3776 113.074 31.4824C113.192 31.5918 113.334 31.6693 113.498 31.7148C113.662 31.7604 113.842 31.7832 114.038 31.7832C114.179 31.7832 114.325 31.7764 114.475 31.7627C114.626 31.749 114.772 31.7308 114.913 31.708C115.05 31.6898 115.177 31.6693 115.296 31.6465C115.419 31.6191 115.521 31.5964 115.603 31.5781L115.781 32.7061C115.663 32.779 115.519 32.8428 115.35 32.8975C115.186 32.9476 115.009 32.9909 114.817 33.0273C114.626 33.0638 114.425 33.0911 114.216 33.1094C114.011 33.1322 113.805 33.1436 113.6 33.1436C113.227 33.1436 112.883 33.0934 112.568 32.9932C112.258 32.8883 111.992 32.7266 111.768 32.5078C111.545 32.2936 111.37 32.0179 111.242 31.6807C111.119 31.3434 111.057 30.9378 111.057 30.4639V26.8271H109.266V25.6035H111.057V23.7988H112.698ZM118.061 25.6035H121.985V31.6465H124.159V33H118.061V31.6465H120.337V26.9639H118.061V25.6035ZM120.187 23.6895C120.187 23.5573 120.21 23.4365 120.255 23.3271C120.301 23.2132 120.367 23.1152 120.454 23.0332C120.536 22.9557 120.634 22.8965 120.747 22.8555C120.866 22.8099 120.998 22.7871 121.144 22.7871C121.39 22.7871 121.588 22.8509 121.739 22.9785C121.894 23.1016 121.982 23.2611 122.005 23.457C122.037 23.6576 122.003 23.833 121.903 23.9834C121.802 24.1292 121.657 24.2272 121.465 24.2773C121.37 24.3639 121.256 24.4209 121.123 24.4482C120.991 24.4756 120.845 24.4642 120.686 24.4141C120.522 24.3639 120.397 24.2751 120.31 24.1475C120.228 24.0153 120.187 23.8626 120.187 23.6895ZM128.373 33L125.461 25.6035H127.156L128.988 30.9697L129.098 31.4619L129.207 30.9697L131.019 25.6035H132.714L129.815 33H128.373ZM137.674 33.1367C137.127 33.1367 136.625 33.0456 136.17 32.8633C135.718 32.681 135.331 32.4281 135.007 32.1045C134.684 31.7855 134.433 31.4095 134.256 30.9766C134.082 30.5391 133.996 30.0674 133.996 29.5615V29.2812C133.996 28.7025 134.087 28.1784 134.269 27.709C134.452 27.2396 134.702 26.8385 135.021 26.5059C135.34 26.1732 135.709 25.918 136.129 25.7402C136.552 25.5579 137.004 25.4668 137.482 25.4668C138.015 25.4668 138.487 25.5579 138.897 25.7402C139.307 25.918 139.651 26.1663 139.929 26.4854C140.207 26.8089 140.417 27.194 140.558 27.6406C140.7 28.0872 140.77 28.5749 140.77 29.1035V29.8076H135.643V29.8418C135.693 30.1654 135.771 30.4365 135.876 30.6553C135.98 30.874 136.124 31.07 136.306 31.2432C136.489 31.4255 136.703 31.5667 136.949 31.667C137.2 31.7673 137.473 31.8174 137.769 31.8174C138.175 31.8174 138.553 31.7399 138.904 31.585C139.255 31.4255 139.544 31.1999 139.772 30.9082L140.647 31.7559C140.401 32.1113 140.023 32.4303 139.512 32.7129C139.007 32.9954 138.394 33.1367 137.674 33.1367ZM137.475 26.793C137.243 26.793 137.026 26.8363 136.826 26.9229C136.63 27.0049 136.454 27.1234 136.299 27.2783C136.145 27.4378 136.015 27.6292 135.91 27.8525C135.805 28.0758 135.728 28.3288 135.677 28.6113H139.157V28.502C139.157 28.2878 139.118 28.0758 139.041 27.8662C138.963 27.652 138.854 27.4652 138.713 27.3057C138.576 27.1507 138.403 27.0277 138.193 26.9365C137.988 26.8408 137.749 26.793 137.475 26.793ZM150.703 33V23.0469H153.889C154.372 23.0469 154.825 23.1016 155.249 23.2109C155.673 23.3158 156.04 23.4775 156.35 23.6963C156.659 23.915 156.901 24.1953 157.074 24.5371C157.252 24.8743 157.341 25.2754 157.341 25.7402C157.336 26.0228 157.286 26.2871 157.19 26.5332C157.099 26.7747 156.967 26.9889 156.794 27.1758C156.671 27.3125 156.532 27.4333 156.377 27.5381C156.227 27.6383 156.051 27.7295 155.851 27.8115V27.8252C156.147 27.9027 156.4 28.0166 156.609 28.167C156.819 28.3128 156.994 28.4792 157.136 28.666C157.282 28.8665 157.391 29.0898 157.464 29.3359C157.541 29.5775 157.58 29.8327 157.58 30.1016C157.585 30.5755 157.5 30.9925 157.327 31.3525C157.154 31.7126 156.915 32.0133 156.609 32.2549C156.304 32.501 155.939 32.6878 155.516 32.8154C155.096 32.9385 154.641 33 154.148 33H150.703ZM152.357 28.502V31.6465H154.162C154.422 31.6465 154.659 31.61 154.873 31.5371C155.087 31.4642 155.269 31.3639 155.42 31.2363C155.584 31.1042 155.709 30.9424 155.796 30.751C155.887 30.555 155.933 30.3385 155.933 30.1016C155.933 29.8509 155.896 29.6299 155.823 29.4385C155.75 29.2425 155.641 29.0762 155.495 28.9395C155.349 28.8027 155.172 28.6979 154.962 28.625C154.752 28.5475 154.513 28.5065 154.244 28.502H152.357ZM152.357 27.251H153.923C154.192 27.2464 154.438 27.21 154.661 27.1416C154.889 27.0732 155.08 26.973 155.235 26.8408C155.377 26.7223 155.488 26.5788 155.57 26.4102C155.652 26.2415 155.693 26.0479 155.693 25.8291C155.693 25.5967 155.655 25.3962 155.577 25.2275C155.504 25.0544 155.399 24.9131 155.263 24.8037C155.108 24.667 154.914 24.569 154.682 24.5098C154.449 24.446 154.192 24.4118 153.909 24.4072H152.357V27.251ZM163.75 33C163.699 32.9089 163.658 32.7995 163.627 32.6719C163.599 32.5397 163.574 32.403 163.551 32.2617C163.437 32.3802 163.308 32.4941 163.162 32.6035C163.02 32.7083 162.861 32.7995 162.683 32.877C162.505 32.959 162.314 33.0228 162.109 33.0684C161.904 33.1139 161.683 33.1367 161.446 33.1367C161.063 33.1367 160.712 33.082 160.393 32.9727C160.079 32.8587 159.81 32.7038 159.587 32.5078C159.359 32.3164 159.181 32.0863 159.053 31.8174C158.93 31.5439 158.869 31.25 158.869 30.9355C158.869 30.5299 158.949 30.1722 159.108 29.8623C159.272 29.5479 159.509 29.2881 159.819 29.083C160.106 28.8916 160.459 28.7458 160.879 28.6455C161.302 28.5452 161.781 28.4951 162.314 28.4951H163.504V27.9961C163.504 27.8047 163.469 27.6315 163.401 27.4766C163.337 27.3216 163.244 27.1872 163.121 27.0732C162.989 26.9593 162.827 26.8727 162.635 26.8135C162.449 26.7497 162.232 26.7178 161.986 26.7178C161.763 26.7178 161.567 26.7451 161.398 26.7998C161.234 26.8545 161.097 26.9297 160.988 27.0254C160.879 27.112 160.796 27.2191 160.742 27.3467C160.692 27.4697 160.667 27.6019 160.667 27.7432H159.026C159.031 27.4469 159.101 27.1621 159.238 26.8887C159.375 26.6152 159.575 26.3737 159.839 26.1641C160.095 25.9499 160.409 25.7812 160.783 25.6582C161.161 25.5306 161.592 25.4668 162.075 25.4668C162.508 25.4668 162.911 25.5215 163.285 25.6309C163.663 25.7357 163.989 25.8929 164.262 26.1025C164.536 26.3122 164.75 26.5788 164.905 26.9023C165.06 27.2214 165.137 27.5905 165.137 28.0098V31.2979C165.137 31.6305 165.16 31.9313 165.206 32.2002C165.256 32.4645 165.326 32.6924 165.418 32.8838V33H163.75ZM161.76 31.8242C161.975 31.8242 162.173 31.7969 162.355 31.7422C162.542 31.6875 162.711 31.6169 162.861 31.5303C163.011 31.4437 163.141 31.3457 163.251 31.2363C163.36 31.127 163.444 31.013 163.504 30.8945V29.5273H162.451C162.095 29.5273 161.788 29.5615 161.528 29.6299C161.268 29.6937 161.061 29.7871 160.906 29.9102C160.769 30.015 160.667 30.1403 160.598 30.2861C160.534 30.432 160.503 30.596 160.503 30.7783C160.503 30.9287 160.53 31.07 160.585 31.2021C160.639 31.3298 160.719 31.4391 160.824 31.5303C160.929 31.6214 161.059 31.6943 161.213 31.749C161.368 31.7992 161.551 31.8242 161.76 31.8242ZM170.514 31.8242C170.719 31.8242 170.915 31.7946 171.102 31.7354C171.293 31.6715 171.462 31.5827 171.608 31.4688C171.749 31.3548 171.861 31.2204 171.943 31.0654C172.029 30.9105 172.073 30.7396 172.073 30.5527H173.611C173.615 30.9128 173.533 31.2523 173.364 31.5713C173.2 31.8857 172.977 32.1569 172.695 32.3848C172.407 32.6217 172.077 32.8086 171.703 32.9453C171.334 33.0775 170.945 33.1436 170.534 33.1436C169.965 33.1436 169.466 33.0456 169.037 32.8496C168.614 32.6491 168.26 32.3802 167.978 32.043C167.691 31.7057 167.474 31.3138 167.328 30.8672C167.183 30.416 167.11 29.9352 167.11 29.4248V29.1855C167.11 28.6797 167.18 28.2012 167.322 27.75C167.467 27.2988 167.684 26.9046 167.971 26.5674C168.258 26.2301 168.614 25.9635 169.037 25.7676C169.466 25.5671 169.962 25.4668 170.528 25.4668C170.974 25.4668 171.387 25.5352 171.765 25.6719C172.148 25.8086 172.476 26 172.749 26.2461C173.023 26.4922 173.235 26.7861 173.385 27.1279C173.54 27.4697 173.615 27.8457 173.611 28.2559H172.073C172.073 28.0553 172.034 27.8662 171.956 27.6885C171.883 27.5107 171.779 27.3558 171.642 27.2236C171.501 27.0915 171.332 26.9867 171.136 26.9092C170.945 26.8317 170.737 26.793 170.514 26.793C170.172 26.793 169.887 26.8636 169.659 27.0049C169.436 27.1416 169.258 27.3216 169.126 27.5449C168.985 27.7682 168.885 28.0234 168.825 28.3105C168.771 28.5977 168.743 28.8893 168.743 29.1855V29.4248C168.743 29.7256 168.771 30.0218 168.825 30.3135C168.885 30.6006 168.983 30.8535 169.119 31.0723C169.252 31.3001 169.432 31.4824 169.659 31.6191C169.887 31.7559 170.172 31.8242 170.514 31.8242ZM178.105 29.7803L177.217 30.6211V33H175.576V22.5H177.217V28.6797L177.893 27.9277L180.101 25.6035H182.07L179.192 28.6865L182.487 33H180.464L178.105 29.7803ZM183.619 29.2471C183.619 28.6865 183.687 28.1761 183.824 27.7158C183.96 27.251 184.159 26.8522 184.418 26.5195C184.678 26.1868 184.99 25.9294 185.355 25.7471C185.724 25.5602 186.139 25.4668 186.599 25.4668C186.873 25.4668 187.121 25.4964 187.344 25.5557C187.568 25.6104 187.77 25.6924 187.953 25.8018C188.071 25.8701 188.183 25.9521 188.288 26.0479C188.392 26.139 188.49 26.2393 188.582 26.3486L188.65 25.6035H190.133V32.7949C190.133 33.2917 190.051 33.7314 189.887 34.1143C189.728 34.5016 189.502 34.8298 189.21 35.0986C188.914 35.363 188.559 35.5635 188.144 35.7002C187.734 35.8415 187.28 35.9121 186.784 35.9121C186.574 35.9121 186.344 35.8893 186.093 35.8438C185.843 35.7982 185.592 35.7275 185.341 35.6318C185.091 35.5361 184.851 35.4108 184.624 35.2559C184.396 35.1009 184.2 34.9141 184.036 34.6953L184.808 33.7041C184.94 33.8636 185.082 34.0003 185.232 34.1143C185.387 34.2327 185.544 34.3285 185.704 34.4014C185.863 34.4743 186.025 34.5267 186.189 34.5586C186.353 34.5951 186.519 34.6133 186.688 34.6133C186.98 34.6133 187.237 34.5723 187.46 34.4902C187.688 34.4082 187.882 34.2897 188.042 34.1348C188.187 33.9844 188.299 33.7998 188.376 33.5811C188.459 33.3623 188.5 33.1139 188.5 32.8359V32.3232C188.404 32.4235 188.304 32.5169 188.199 32.6035C188.098 32.6901 187.989 32.7653 187.871 32.8291C187.693 32.9294 187.497 33.0046 187.283 33.0547C187.069 33.1094 186.836 33.1367 186.585 33.1367C186.13 33.1367 185.72 33.0433 185.355 32.8564C184.99 32.665 184.678 32.4007 184.418 32.0635C184.163 31.7308 183.965 31.3366 183.824 30.8809C183.687 30.4206 183.619 29.9238 183.619 29.3906V29.2471ZM185.259 29.3906C185.259 29.7188 185.291 30.0286 185.355 30.3203C185.423 30.612 185.53 30.8649 185.676 31.0791C185.818 31.3024 185.998 31.4779 186.216 31.6055C186.435 31.7285 186.695 31.79 186.996 31.79C187.182 31.79 187.351 31.7695 187.501 31.7285C187.656 31.6875 187.795 31.6305 187.918 31.5576C188.042 31.4801 188.151 31.3867 188.247 31.2773C188.342 31.168 188.427 31.0472 188.5 30.915V27.6748C188.427 27.5381 188.338 27.415 188.233 27.3057C188.133 27.1963 188.016 27.1029 187.884 27.0254C187.766 26.9616 187.634 26.9115 187.488 26.875C187.342 26.834 187.182 26.8135 187.009 26.8135C186.704 26.8135 186.442 26.8773 186.223 27.0049C186.004 27.1325 185.824 27.3079 185.683 27.5312C185.537 27.7546 185.43 28.0143 185.362 28.3105C185.293 28.6022 185.259 28.9144 185.259 29.2471V29.3906ZM197.212 25.4668C197.476 25.4668 197.732 25.485 197.978 25.5215C198.228 25.5579 198.424 25.6012 198.566 25.6514L198.333 27.2646C198.083 27.21 197.834 27.1689 197.588 27.1416C197.347 27.1143 197.105 27.1006 196.863 27.1006C196.59 27.1006 196.344 27.1279 196.125 27.1826C195.906 27.2373 195.713 27.3216 195.544 27.4355C195.362 27.5449 195.207 27.6839 195.079 27.8525C194.952 28.0212 194.845 28.2148 194.758 28.4336V33H193.124V25.6035H194.655L194.724 26.6289L194.731 26.7998C195.031 26.3851 195.391 26.0592 195.811 25.8223C196.235 25.5853 196.702 25.4668 197.212 25.4668ZM200.066 29.2334C200.066 28.6956 200.144 28.1989 200.299 27.7432C200.454 27.2829 200.679 26.8841 200.975 26.5469C201.267 26.2096 201.625 25.9453 202.049 25.7539C202.472 25.5625 202.956 25.4668 203.498 25.4668C204.04 25.4668 204.523 25.5625 204.947 25.7539C205.375 25.9453 205.738 26.2096 206.034 26.5469C206.326 26.8841 206.549 27.2829 206.704 27.7432C206.859 28.1989 206.936 28.6956 206.936 29.2334V29.377C206.936 29.9193 206.859 30.4183 206.704 30.874C206.549 31.3298 206.326 31.7262 206.034 32.0635C205.742 32.4007 205.382 32.665 204.954 32.8564C204.53 33.0479 204.049 33.1436 203.512 33.1436C202.969 33.1436 202.484 33.0479 202.055 32.8564C201.627 32.665 201.267 32.4007 200.975 32.0635C200.679 31.7262 200.454 31.3298 200.299 30.874C200.144 30.4183 200.066 29.9193 200.066 29.377V29.2334ZM201.7 29.377C201.7 29.7096 201.734 30.0241 201.803 30.3203C201.875 30.6165 201.987 30.8763 202.137 31.0996C202.283 31.3229 202.47 31.5007 202.698 31.6328C202.926 31.7604 203.197 31.8242 203.512 31.8242C203.817 31.8242 204.083 31.7604 204.311 31.6328C204.539 31.5007 204.726 31.3229 204.872 31.0996C205.018 30.8763 205.125 30.6165 205.193 30.3203C205.266 30.0241 205.303 29.7096 205.303 29.377V29.2334C205.303 28.9098 205.266 28.5999 205.193 28.3037C205.12 28.0075 205.013 27.7477 204.872 27.5244C204.721 27.3011 204.532 27.1234 204.304 26.9912C204.081 26.859 203.812 26.793 203.498 26.793C203.188 26.793 202.919 26.859 202.691 26.9912C202.468 27.1234 202.283 27.3011 202.137 27.5244C201.987 27.7477 201.875 28.0075 201.803 28.3037C201.734 28.5999 201.7 28.9098 201.7 29.2334V29.377ZM213.482 33L213.386 31.9678C213.136 32.3369 212.83 32.6263 212.47 32.8359C212.11 33.041 211.707 33.1436 211.26 33.1436C210.877 33.1436 210.526 33.0843 210.207 32.9658C209.893 32.8428 209.622 32.6536 209.394 32.3984C209.171 32.1432 208.997 31.8174 208.874 31.4209C208.751 31.0199 208.69 30.5413 208.69 29.9854V25.6035H210.324V29.999C210.324 30.3408 210.349 30.6279 210.399 30.8604C210.449 31.0882 210.529 31.2705 210.638 31.4072C210.747 31.5485 210.886 31.6488 211.055 31.708C211.224 31.7673 211.422 31.7969 211.65 31.7969C211.887 31.7969 212.099 31.7718 212.286 31.7217C212.472 31.667 212.636 31.5941 212.778 31.5029C212.896 31.4209 213.001 31.3252 213.092 31.2158C213.183 31.1019 213.261 30.9766 213.325 30.8398V25.6035H214.965V33H213.482ZM216.903 33V25.6035H218.38L218.482 26.6562C218.583 26.515 218.692 26.3851 218.811 26.2666C218.934 26.1436 219.064 26.0342 219.2 25.9385C219.419 25.7881 219.658 25.6719 219.918 25.5898C220.178 25.5078 220.451 25.4668 220.738 25.4668C221.117 25.4668 221.463 25.5215 221.777 25.6309C222.092 25.7402 222.361 25.9134 222.584 26.1504C222.807 26.3874 222.981 26.6904 223.104 27.0596C223.227 27.4242 223.288 27.8662 223.288 28.3857V33H221.654V28.4131C221.654 28.1077 221.62 27.8525 221.552 27.6475C221.483 27.4424 221.383 27.2783 221.251 27.1553C221.119 27.0322 220.959 26.9456 220.773 26.8955C220.586 26.8408 220.371 26.8135 220.13 26.8135C219.929 26.8135 219.743 26.8408 219.569 26.8955C219.396 26.9456 219.239 27.0186 219.098 27.1143C218.988 27.1872 218.886 27.276 218.79 27.3809C218.694 27.4857 218.61 27.5996 218.537 27.7227V33H216.903ZM224.953 29.2471C224.953 28.6865 225.019 28.1761 225.151 27.7158C225.288 27.251 225.484 26.8522 225.739 26.5195C225.99 26.1868 226.295 25.9294 226.655 25.7471C227.02 25.5602 227.43 25.4668 227.885 25.4668C228.296 25.4668 228.653 25.5397 228.959 25.6855C229.269 25.8268 229.542 26.0296 229.779 26.2939V22.5H231.413V33H229.929L229.854 32.2275C229.617 32.5192 229.335 32.7448 229.007 32.9043C228.678 33.0592 228.3 33.1367 227.872 33.1367C227.421 33.1367 227.015 33.0433 226.655 32.8564C226.295 32.665 225.99 32.4007 225.739 32.0635C225.488 31.7308 225.295 31.3366 225.158 30.8809C225.021 30.4206 224.953 29.9238 224.953 29.3906V29.2471ZM226.587 29.3906C226.587 29.7188 226.619 30.0286 226.682 30.3203C226.746 30.612 226.846 30.8649 226.983 31.0791C227.12 31.3024 227.295 31.4779 227.509 31.6055C227.724 31.7285 227.981 31.79 228.282 31.79C228.651 31.79 228.956 31.7103 229.198 31.5508C229.44 31.3867 229.633 31.1657 229.779 30.8877V27.709C229.633 27.4355 229.44 27.2191 229.198 27.0596C228.961 26.8955 228.66 26.8135 228.296 26.8135C227.99 26.8135 227.728 26.8773 227.509 27.0049C227.295 27.1325 227.122 27.3079 226.99 27.5312C226.849 27.7546 226.746 28.0143 226.682 28.3105C226.619 28.6022 226.587 28.9144 226.587 29.2471V29.3906Z" fill="black" fill-opacity="0.8"/>
  <rect x="21.5" y="15.5" width="224" height="25" rx="12.5" stroke="black" stroke-opacity="0.6"/>
  <rect x="1" y="156" width="223" height="24" rx="12" fill="#6A25F4" fill-opacity="0.2"/>
  <circle cx="13" cy="168" r="8" fill="white"/>
  <path d="M30.7444 163.047H36.6096V164.407H34.4837V171.646H36.6096V173H30.7444V171.646H32.8225V164.407H30.7444V163.047ZM38.8075 173V165.604H40.2841L40.3866 166.656C40.4869 166.515 40.5963 166.385 40.7148 166.267C40.8378 166.144 40.9677 166.034 41.1044 165.938C41.3232 165.788 41.5624 165.672 41.8222 165.59C42.082 165.508 42.3554 165.467 42.6425 165.467C43.0208 165.467 43.3671 165.521 43.6816 165.631C43.996 165.74 44.2649 165.913 44.4882 166.15C44.7115 166.387 44.8847 166.69 45.0077 167.06C45.1308 167.424 45.1923 167.866 45.1923 168.386V173H43.5585V168.413C43.5585 168.108 43.5243 167.853 43.456 167.647C43.3876 167.442 43.2874 167.278 43.1552 167.155C43.023 167.032 42.8635 166.946 42.6767 166.896C42.4898 166.841 42.2756 166.813 42.0341 166.813C41.8336 166.813 41.6467 166.841 41.4736 166.896C41.3004 166.946 41.1432 167.019 41.0019 167.114C40.8925 167.187 40.79 167.276 40.6943 167.381C40.5986 167.486 40.5142 167.6 40.4413 167.723V173H38.8075ZM50.357 163.799V165.604H53.1392V166.827H50.357V170.361C50.357 170.635 50.3889 170.865 50.4527 171.052C50.5211 171.234 50.6145 171.378 50.733 171.482C50.8515 171.592 50.9927 171.669 51.1568 171.715C51.3209 171.76 51.5009 171.783 51.6968 171.783C51.8381 171.783 51.9839 171.776 52.1343 171.763C52.2847 171.749 52.4306 171.731 52.5718 171.708C52.7086 171.69 52.8362 171.669 52.9546 171.646C53.0777 171.619 53.1802 171.596 53.2623 171.578L53.44 172.706C53.3215 172.779 53.178 172.843 53.0093 172.897C52.8453 172.948 52.6675 172.991 52.4761 173.027C52.2847 173.064 52.0842 173.091 51.8746 173.109C51.6695 173.132 51.4644 173.144 51.2593 173.144C50.8856 173.144 50.5416 173.093 50.2271 172.993C49.9172 172.888 49.6506 172.727 49.4273 172.508C49.204 172.294 49.0285 172.018 48.9009 171.681C48.7779 171.343 48.7164 170.938 48.7164 170.464V166.827H46.9254V165.604H48.7164V163.799H50.357ZM58.7961 173.137C58.2492 173.137 57.7479 173.046 57.2922 172.863C56.841 172.681 56.4536 172.428 56.1301 172.104C55.8065 171.785 55.5559 171.41 55.3781 170.977C55.2049 170.539 55.1184 170.067 55.1184 169.562V169.281C55.1184 168.702 55.2095 168.178 55.3918 167.709C55.5741 167.24 55.8247 166.839 56.1438 166.506C56.4628 166.173 56.8319 165.918 57.2512 165.74C57.675 165.558 58.1262 165.467 58.6047 165.467C59.1379 165.467 59.6096 165.558 60.0197 165.74C60.4299 165.918 60.774 166.166 61.052 166.485C61.3299 166.809 61.5396 167.194 61.6809 167.641C61.8221 168.087 61.8928 168.575 61.8928 169.104V169.808H56.7658V169.842C56.816 170.165 56.8934 170.437 56.9982 170.655C57.1031 170.874 57.2466 171.07 57.4289 171.243C57.6112 171.425 57.8254 171.567 58.0715 171.667C58.3221 171.767 58.5956 171.817 58.8918 171.817C59.2974 171.817 59.6757 171.74 60.0266 171.585C60.3775 171.425 60.6669 171.2 60.8947 170.908L61.7697 171.756C61.5236 172.111 61.1454 172.43 60.635 172.713C60.1291 172.995 59.5161 173.137 58.7961 173.137ZM58.5979 166.793C58.3654 166.793 58.149 166.836 57.9484 166.923C57.7525 167.005 57.577 167.123 57.4221 167.278C57.2671 167.438 57.1372 167.629 57.0324 167.853C56.9276 168.076 56.8501 168.329 56.8 168.611H60.2795V168.502C60.2795 168.288 60.2408 168.076 60.1633 167.866C60.0858 167.652 59.9764 167.465 59.8352 167.306C59.6984 167.151 59.5253 167.028 59.3156 166.937C59.1105 166.841 58.8713 166.793 58.5979 166.793ZM68.7254 165.467C68.9898 165.467 69.245 165.485 69.4911 165.521C69.7417 165.558 69.9377 165.601 70.0789 165.651L69.8465 167.265C69.5959 167.21 69.3475 167.169 69.1014 167.142C68.8599 167.114 68.6183 167.101 68.3768 167.101C68.1034 167.101 67.8573 167.128 67.6385 167.183C67.4198 167.237 67.2261 167.322 67.0575 167.436C66.8752 167.545 66.7202 167.684 66.5926 167.853C66.465 168.021 66.3579 168.215 66.2713 168.434V173H64.6375V165.604H66.1688L66.2371 166.629L66.244 166.8C66.5448 166.385 66.9048 166.059 67.3241 165.822C67.7479 165.585 68.215 165.467 68.7254 165.467ZM76.604 173C76.5539 172.909 76.5128 172.799 76.4809 172.672C76.4536 172.54 76.4285 172.403 76.4057 172.262C76.2918 172.38 76.1619 172.494 76.0161 172.604C75.8748 172.708 75.7153 172.799 75.5376 172.877C75.3598 172.959 75.1684 173.023 74.9634 173.068C74.7583 173.114 74.5373 173.137 74.3003 173.137C73.9175 173.137 73.5665 173.082 73.2475 172.973C72.9331 172.859 72.6642 172.704 72.4409 172.508C72.213 172.316 72.0353 172.086 71.9077 171.817C71.7846 171.544 71.7231 171.25 71.7231 170.936C71.7231 170.53 71.8029 170.172 71.9624 169.862C72.1264 169.548 72.3634 169.288 72.6733 169.083C72.9604 168.892 73.3136 168.746 73.7329 168.646C74.1567 168.545 74.6352 168.495 75.1684 168.495H76.3579V167.996C76.3579 167.805 76.3237 167.632 76.2554 167.477C76.1915 167.322 76.0981 167.187 75.9751 167.073C75.8429 166.959 75.6811 166.873 75.4897 166.813C75.3029 166.75 75.0864 166.718 74.8403 166.718C74.617 166.718 74.421 166.745 74.2524 166.8C74.0884 166.854 73.9516 166.93 73.8423 167.025C73.7329 167.112 73.6509 167.219 73.5962 167.347C73.546 167.47 73.521 167.602 73.521 167.743H71.8804C71.8849 167.447 71.9555 167.162 72.0923 166.889C72.229 166.615 72.4295 166.374 72.6938 166.164C72.949 165.95 73.2635 165.781 73.6372 165.658C74.0154 165.531 74.4461 165.467 74.9292 165.467C75.3621 165.467 75.7654 165.521 76.1391 165.631C76.5174 165.736 76.8432 165.893 77.1167 166.103C77.3901 166.312 77.6043 166.579 77.7593 166.902C77.9142 167.221 77.9917 167.59 77.9917 168.01V171.298C77.9917 171.631 78.0145 171.931 78.06 172.2C78.1102 172.465 78.1808 172.692 78.272 172.884V173H76.604ZM74.6147 171.824C74.8289 171.824 75.0272 171.797 75.2095 171.742C75.3963 171.688 75.5649 171.617 75.7153 171.53C75.8657 171.444 75.9956 171.346 76.105 171.236C76.2143 171.127 76.2986 171.013 76.3579 170.895V169.527H75.3052C74.9497 169.527 74.6421 169.562 74.3823 169.63C74.1225 169.694 73.9152 169.787 73.7602 169.91C73.6235 170.015 73.521 170.14 73.4526 170.286C73.3888 170.432 73.3569 170.596 73.3569 170.778C73.3569 170.929 73.3843 171.07 73.4389 171.202C73.4936 171.33 73.5734 171.439 73.6782 171.53C73.783 171.621 73.9129 171.694 74.0679 171.749C74.2228 171.799 74.4051 171.824 74.6147 171.824ZM83.3683 171.824C83.5734 171.824 83.7693 171.795 83.9562 171.735C84.1476 171.672 84.3162 171.583 84.462 171.469C84.6033 171.355 84.715 171.22 84.797 171.065C84.8836 170.91 84.9269 170.74 84.9269 170.553H86.465C86.4695 170.913 86.3875 171.252 86.2189 171.571C86.0548 171.886 85.8315 172.157 85.5489 172.385C85.2618 172.622 84.9314 172.809 84.5577 172.945C84.1886 173.077 83.7989 173.144 83.3888 173.144C82.8191 173.144 82.3201 173.046 81.8917 172.85C81.4679 172.649 81.1147 172.38 80.8321 172.043C80.545 171.706 80.3286 171.314 80.1827 170.867C80.0369 170.416 79.964 169.935 79.964 169.425V169.186C79.964 168.68 80.0346 168.201 80.1759 167.75C80.3217 167.299 80.5382 166.905 80.8253 166.567C81.1124 166.23 81.4679 165.964 81.8917 165.768C82.3201 165.567 82.8169 165.467 83.382 165.467C83.8286 165.467 84.241 165.535 84.6193 165.672C85.0021 165.809 85.3302 166 85.6036 166.246C85.8771 166.492 86.089 166.786 86.2394 167.128C86.3943 167.47 86.4695 167.846 86.465 168.256H84.9269C84.9269 168.055 84.8881 167.866 84.8107 167.688C84.7377 167.511 84.6329 167.356 84.4962 167.224C84.3549 167.091 84.1863 166.987 83.9904 166.909C83.7989 166.832 83.5916 166.793 83.3683 166.793C83.0265 166.793 82.7417 166.864 82.5138 167.005C82.2905 167.142 82.1127 167.322 81.9806 167.545C81.8393 167.768 81.7391 168.023 81.6798 168.311C81.6251 168.598 81.5978 168.889 81.5978 169.186V169.425C81.5978 169.726 81.6251 170.022 81.6798 170.313C81.7391 170.601 81.837 170.854 81.9738 171.072C82.1059 171.3 82.2859 171.482 82.5138 171.619C82.7417 171.756 83.0265 171.824 83.3683 171.824ZM91.698 163.799V165.604H94.4802V166.827H91.698V170.361C91.698 170.635 91.7299 170.865 91.7937 171.052C91.8621 171.234 91.9555 171.378 92.074 171.482C92.1925 171.592 92.3338 171.669 92.4978 171.715C92.6619 171.76 92.8419 171.783 93.0379 171.783C93.1791 171.783 93.325 171.776 93.4754 171.763C93.6257 171.749 93.7716 171.731 93.9129 171.708C94.0496 171.69 94.1772 171.669 94.2957 171.646C94.4187 171.619 94.5213 171.596 94.6033 171.578L94.781 172.706C94.6625 172.779 94.519 172.843 94.3504 172.897C94.1863 172.948 94.0086 172.991 93.8172 173.027C93.6257 173.064 93.4252 173.091 93.2156 173.109C93.0105 173.132 92.8054 173.144 92.6004 173.144C92.2267 173.144 91.8826 173.093 91.5681 172.993C91.2582 172.888 90.9916 172.727 90.7683 172.508C90.545 172.294 90.3696 172.018 90.242 171.681C90.1189 171.343 90.0574 170.938 90.0574 170.464V166.827H88.2664V165.604H90.0574V163.799H91.698ZM97.0609 165.604H100.985V171.646H103.159V173H97.0609V171.646H99.3373V166.964H97.0609V165.604ZM99.1869 163.689C99.1869 163.557 99.2097 163.437 99.2553 163.327C99.3008 163.213 99.3669 163.115 99.4535 163.033C99.5355 162.956 99.6335 162.896 99.7475 162.855C99.8659 162.81 99.9981 162.787 100.144 162.787C100.39 162.787 100.588 162.851 100.739 162.979C100.894 163.102 100.982 163.261 101.005 163.457C101.037 163.658 101.003 163.833 100.903 163.983C100.802 164.129 100.657 164.227 100.465 164.277C100.37 164.364 100.256 164.421 100.123 164.448C99.9913 164.476 99.8454 164.464 99.6859 164.414C99.5219 164.364 99.3965 164.275 99.31 164.147C99.2279 164.015 99.1869 163.863 99.1869 163.689ZM107.373 173L104.461 165.604H106.156L107.988 170.97L108.098 171.462L108.207 170.97L110.019 165.604H111.714L108.815 173H107.373ZM116.674 173.137C116.127 173.137 115.625 173.046 115.17 172.863C114.718 172.681 114.331 172.428 114.007 172.104C113.684 171.785 113.433 171.41 113.256 170.977C113.082 170.539 112.996 170.067 112.996 169.562V169.281C112.996 168.702 113.087 168.178 113.269 167.709C113.452 167.24 113.702 166.839 114.021 166.506C114.34 166.173 114.709 165.918 115.129 165.74C115.552 165.558 116.004 165.467 116.482 165.467C117.015 165.467 117.487 165.558 117.897 165.74C118.307 165.918 118.651 166.166 118.929 166.485C119.207 166.809 119.417 167.194 119.558 167.641C119.7 168.087 119.77 168.575 119.77 169.104V169.808H114.643V169.842C114.693 170.165 114.771 170.437 114.876 170.655C114.98 170.874 115.124 171.07 115.306 171.243C115.489 171.425 115.703 171.567 115.949 171.667C116.2 171.767 116.473 171.817 116.769 171.817C117.175 171.817 117.553 171.74 117.904 171.585C118.255 171.425 118.544 171.2 118.772 170.908L119.647 171.756C119.401 172.111 119.023 172.43 118.512 172.713C118.007 172.995 117.394 173.137 116.674 173.137ZM116.475 166.793C116.243 166.793 116.026 166.836 115.826 166.923C115.63 167.005 115.454 167.123 115.299 167.278C115.145 167.438 115.015 167.629 114.91 167.853C114.805 168.076 114.728 168.329 114.677 168.611H118.157V168.502C118.157 168.288 118.118 168.076 118.041 167.866C117.963 167.652 117.854 167.465 117.713 167.306C117.576 167.151 117.403 167.028 117.193 166.937C116.988 166.841 116.749 166.793 116.475 166.793ZM135.705 168.762H131.494V173H129.84V163.047H136.307V164.407H131.494V167.408H135.705V168.762ZM137.725 169.233C137.725 168.696 137.803 168.199 137.958 167.743C138.113 167.283 138.338 166.884 138.634 166.547C138.926 166.21 139.284 165.945 139.708 165.754C140.131 165.562 140.615 165.467 141.157 165.467C141.699 165.467 142.182 165.562 142.606 165.754C143.034 165.945 143.397 166.21 143.693 166.547C143.985 166.884 144.208 167.283 144.363 167.743C144.518 168.199 144.595 168.696 144.595 169.233V169.377C144.595 169.919 144.518 170.418 144.363 170.874C144.208 171.33 143.985 171.726 143.693 172.063C143.401 172.401 143.041 172.665 142.613 172.856C142.189 173.048 141.708 173.144 141.171 173.144C140.628 173.144 140.143 173.048 139.714 172.856C139.286 172.665 138.926 172.401 138.634 172.063C138.338 171.726 138.113 171.33 137.958 170.874C137.803 170.418 137.725 169.919 137.725 169.377V169.233ZM139.359 169.377C139.359 169.71 139.393 170.024 139.462 170.32C139.534 170.617 139.646 170.876 139.796 171.1C139.942 171.323 140.129 171.501 140.357 171.633C140.585 171.76 140.856 171.824 141.171 171.824C141.476 171.824 141.742 171.76 141.97 171.633C142.198 171.501 142.385 171.323 142.531 171.1C142.677 170.876 142.784 170.617 142.852 170.32C142.925 170.024 142.962 169.71 142.962 169.377V169.233C142.962 168.91 142.925 168.6 142.852 168.304C142.779 168.007 142.672 167.748 142.531 167.524C142.38 167.301 142.191 167.123 141.963 166.991C141.74 166.859 141.471 166.793 141.157 166.793C140.847 166.793 140.578 166.859 140.35 166.991C140.127 167.123 139.942 167.301 139.796 167.524C139.646 167.748 139.534 168.007 139.462 168.304C139.393 168.6 139.359 168.91 139.359 169.233V169.377ZM151.407 165.467C151.672 165.467 151.927 165.485 152.173 165.521C152.424 165.558 152.62 165.601 152.761 165.651L152.529 167.265C152.278 167.21 152.03 167.169 151.783 167.142C151.542 167.114 151.3 167.101 151.059 167.101C150.785 167.101 150.539 167.128 150.321 167.183C150.102 167.237 149.908 167.322 149.739 167.436C149.557 167.545 149.402 167.684 149.275 167.853C149.147 168.021 149.04 168.215 148.953 168.434V173H147.32V165.604H148.851L148.919 166.629L148.926 166.8C149.227 166.385 149.587 166.059 150.006 165.822C150.43 165.585 150.897 165.467 151.407 165.467ZM158.015 173.137C157.468 173.137 156.966 173.046 156.511 172.863C156.059 172.681 155.672 172.428 155.349 172.104C155.025 171.785 154.774 171.41 154.597 170.977C154.423 170.539 154.337 170.067 154.337 169.562V169.281C154.337 168.702 154.428 168.178 154.61 167.709C154.793 167.24 155.043 166.839 155.362 166.506C155.681 166.173 156.05 165.918 156.47 165.74C156.893 165.558 157.345 165.467 157.823 165.467C158.356 165.467 158.828 165.558 159.238 165.74C159.648 165.918 159.992 166.166 160.27 166.485C160.548 166.809 160.758 167.194 160.899 167.641C161.041 168.087 161.111 168.575 161.111 169.104V169.808H155.984V169.842C156.034 170.165 156.112 170.437 156.217 170.655C156.322 170.874 156.465 171.07 156.647 171.243C156.83 171.425 157.044 171.567 157.29 171.667C157.541 171.767 157.814 171.817 158.11 171.817C158.516 171.817 158.894 171.74 159.245 171.585C159.596 171.425 159.885 171.2 160.113 170.908L160.988 171.756C160.742 172.111 160.364 172.43 159.853 172.713C159.348 172.995 158.735 173.137 158.015 173.137ZM157.816 166.793C157.584 166.793 157.367 166.836 157.167 166.923C156.971 167.005 156.795 167.123 156.641 167.278C156.486 167.438 156.356 167.629 156.251 167.853C156.146 168.076 156.069 168.329 156.018 168.611H159.498V168.502C159.498 168.288 159.459 168.076 159.382 167.866C159.304 167.652 159.195 167.465 159.054 167.306C158.917 167.151 158.744 167.028 158.534 166.937C158.329 166.841 158.09 166.793 157.816 166.793ZM162.619 169.247C162.619 168.687 162.687 168.176 162.824 167.716C162.96 167.251 163.159 166.852 163.418 166.52C163.678 166.187 163.99 165.929 164.355 165.747C164.724 165.56 165.139 165.467 165.599 165.467C165.873 165.467 166.121 165.496 166.344 165.556C166.568 165.61 166.77 165.692 166.953 165.802C167.071 165.87 167.183 165.952 167.288 166.048C167.392 166.139 167.49 166.239 167.582 166.349L167.65 165.604H169.133V172.795C169.133 173.292 169.051 173.731 168.887 174.114C168.728 174.502 168.502 174.83 168.21 175.099C167.914 175.363 167.559 175.563 167.144 175.7C166.734 175.841 166.28 175.912 165.784 175.912C165.574 175.912 165.344 175.889 165.093 175.844C164.843 175.798 164.592 175.728 164.341 175.632C164.091 175.536 163.851 175.411 163.624 175.256C163.396 175.101 163.2 174.914 163.036 174.695L163.808 173.704C163.94 173.864 164.082 174 164.232 174.114C164.387 174.233 164.544 174.328 164.704 174.401C164.863 174.474 165.025 174.527 165.189 174.559C165.353 174.595 165.519 174.613 165.688 174.613C165.98 174.613 166.237 174.572 166.46 174.49C166.688 174.408 166.882 174.29 167.042 174.135C167.187 173.984 167.299 173.8 167.376 173.581C167.459 173.362 167.5 173.114 167.5 172.836V172.323C167.404 172.424 167.304 172.517 167.199 172.604C167.098 172.69 166.989 172.765 166.871 172.829C166.693 172.929 166.497 173.005 166.283 173.055C166.069 173.109 165.836 173.137 165.585 173.137C165.13 173.137 164.72 173.043 164.355 172.856C163.99 172.665 163.678 172.401 163.418 172.063C163.163 171.731 162.965 171.337 162.824 170.881C162.687 170.421 162.619 169.924 162.619 169.391V169.247ZM164.259 169.391C164.259 169.719 164.291 170.029 164.355 170.32C164.423 170.612 164.53 170.865 164.676 171.079C164.818 171.302 164.998 171.478 165.216 171.605C165.435 171.729 165.695 171.79 165.996 171.79C166.182 171.79 166.351 171.77 166.501 171.729C166.656 171.688 166.795 171.631 166.918 171.558C167.042 171.48 167.151 171.387 167.247 171.277C167.342 171.168 167.427 171.047 167.5 170.915V167.675C167.427 167.538 167.338 167.415 167.233 167.306C167.133 167.196 167.016 167.103 166.884 167.025C166.766 166.962 166.634 166.911 166.488 166.875C166.342 166.834 166.182 166.813 166.009 166.813C165.704 166.813 165.442 166.877 165.223 167.005C165.004 167.132 164.824 167.308 164.683 167.531C164.537 167.755 164.43 168.014 164.362 168.311C164.293 168.602 164.259 168.914 164.259 169.247V169.391ZM176.212 165.467C176.476 165.467 176.732 165.485 176.978 165.521C177.228 165.558 177.424 165.601 177.566 165.651L177.333 167.265C177.083 167.21 176.834 167.169 176.588 167.142C176.347 167.114 176.105 167.101 175.863 167.101C175.59 167.101 175.344 167.128 175.125 167.183C174.906 167.237 174.713 167.322 174.544 167.436C174.362 167.545 174.207 167.684 174.079 167.853C173.952 168.021 173.845 168.215 173.758 168.434V173H172.124V165.604H173.655L173.724 166.629L173.731 166.8C174.031 166.385 174.391 166.059 174.811 165.822C175.235 165.585 175.702 165.467 176.212 165.467ZM179.066 169.233C179.066 168.696 179.144 168.199 179.299 167.743C179.454 167.283 179.679 166.884 179.975 166.547C180.267 166.21 180.625 165.945 181.049 165.754C181.472 165.562 181.956 165.467 182.498 165.467C183.04 165.467 183.523 165.562 183.947 165.754C184.375 165.945 184.738 166.21 185.034 166.547C185.326 166.884 185.549 167.283 185.704 167.743C185.859 168.199 185.936 168.696 185.936 169.233V169.377C185.936 169.919 185.859 170.418 185.704 170.874C185.549 171.33 185.326 171.726 185.034 172.063C184.742 172.401 184.382 172.665 183.954 172.856C183.53 173.048 183.049 173.144 182.512 173.144C181.969 173.144 181.484 173.048 181.055 172.856C180.627 172.665 180.267 172.401 179.975 172.063C179.679 171.726 179.454 171.33 179.299 170.874C179.144 170.418 179.066 169.919 179.066 169.377V169.233ZM180.7 169.377C180.7 169.71 180.734 170.024 180.803 170.32C180.875 170.617 180.987 170.876 181.137 171.1C181.283 171.323 181.47 171.501 181.698 171.633C181.926 171.76 182.197 171.824 182.512 171.824C182.817 171.824 183.083 171.76 183.311 171.633C183.539 171.501 183.726 171.323 183.872 171.1C184.018 170.876 184.125 170.617 184.193 170.32C184.266 170.024 184.303 169.71 184.303 169.377V169.233C184.303 168.91 184.266 168.6 184.193 168.304C184.12 168.007 184.013 167.748 183.872 167.524C183.721 167.301 183.532 167.123 183.304 166.991C183.081 166.859 182.812 166.793 182.498 166.793C182.188 166.793 181.919 166.859 181.691 166.991C181.468 167.123 181.283 167.301 181.137 167.524C180.987 167.748 180.875 168.007 180.803 168.304C180.734 168.6 180.7 168.91 180.7 169.233V169.377ZM192.482 173L192.386 171.968C192.136 172.337 191.83 172.626 191.47 172.836C191.11 173.041 190.707 173.144 190.26 173.144C189.877 173.144 189.526 173.084 189.207 172.966C188.893 172.843 188.622 172.654 188.394 172.398C188.171 172.143 187.997 171.817 187.874 171.421C187.751 171.02 187.69 170.541 187.69 169.985V165.604H189.324V169.999C189.324 170.341 189.349 170.628 189.399 170.86C189.449 171.088 189.529 171.271 189.638 171.407C189.747 171.549 189.886 171.649 190.055 171.708C190.224 171.767 190.422 171.797 190.65 171.797C190.887 171.797 191.099 171.772 191.286 171.722C191.472 171.667 191.636 171.594 191.778 171.503C191.896 171.421 192.001 171.325 192.092 171.216C192.183 171.102 192.261 170.977 192.325 170.84V165.604H193.965V173H192.482ZM195.903 173V165.604H197.38L197.482 166.656C197.583 166.515 197.692 166.385 197.811 166.267C197.934 166.144 198.064 166.034 198.2 165.938C198.419 165.788 198.658 165.672 198.918 165.59C199.178 165.508 199.451 165.467 199.738 165.467C200.117 165.467 200.463 165.521 200.777 165.631C201.092 165.74 201.361 165.913 201.584 166.15C201.807 166.387 201.981 166.69 202.104 167.06C202.227 167.424 202.288 167.866 202.288 168.386V173H200.654V168.413C200.654 168.108 200.62 167.853 200.552 167.647C200.483 167.442 200.383 167.278 200.251 167.155C200.119 167.032 199.959 166.946 199.773 166.896C199.586 166.841 199.371 166.813 199.13 166.813C198.929 166.813 198.743 166.841 198.569 166.896C198.396 166.946 198.239 167.019 198.098 167.114C197.988 167.187 197.886 167.276 197.79 167.381C197.694 167.486 197.61 167.6 197.537 167.723V173H195.903ZM203.953 169.247C203.953 168.687 204.019 168.176 204.151 167.716C204.288 167.251 204.484 166.852 204.739 166.52C204.99 166.187 205.295 165.929 205.655 165.747C206.02 165.56 206.43 165.467 206.885 165.467C207.296 165.467 207.653 165.54 207.959 165.686C208.269 165.827 208.542 166.03 208.779 166.294V162.5H210.413V173H208.929L208.854 172.228C208.617 172.519 208.335 172.745 208.007 172.904C207.678 173.059 207.3 173.137 206.872 173.137C206.421 173.137 206.015 173.043 205.655 172.856C205.295 172.665 204.99 172.401 204.739 172.063C204.488 171.731 204.295 171.337 204.158 170.881C204.021 170.421 203.953 169.924 203.953 169.391V169.247ZM205.587 169.391C205.587 169.719 205.619 170.029 205.682 170.32C205.746 170.612 205.846 170.865 205.983 171.079C206.12 171.302 206.295 171.478 206.509 171.605C206.724 171.729 206.981 171.79 207.282 171.79C207.651 171.79 207.956 171.71 208.198 171.551C208.44 171.387 208.633 171.166 208.779 170.888V167.709C208.633 167.436 208.44 167.219 208.198 167.06C207.961 166.896 207.66 166.813 207.296 166.813C206.99 166.813 206.728 166.877 206.509 167.005C206.295 167.132 206.122 167.308 205.99 167.531C205.849 167.755 205.746 168.014 205.682 168.311C205.619 168.602 205.587 168.914 205.587 169.247V169.391Z" fill="black" fill-opacity="0.8"/>
  <rect x="0.5" y="155.5" width="224" height="25" rx="12.5" stroke="black" stroke-opacity="0.6"/>
  <rect x="145" y="189" width="147" height="24" rx="12" fill="#6A25F4" fill-opacity="0.2"/>
  <path d="M153.315 206L157.151 196.2H159.027L162.849 206H160.693L158.719 200.722C158.663 200.573 158.593 200.381 158.509 200.148C158.434 199.915 158.355 199.667 158.271 199.406C158.187 199.145 158.108 198.897 158.033 198.664C157.958 198.421 157.902 198.221 157.865 198.062L158.243 198.048C158.187 198.263 158.122 198.487 158.047 198.72C157.982 198.944 157.912 199.177 157.837 199.42C157.762 199.653 157.683 199.882 157.599 200.106C157.515 200.33 157.436 200.549 157.361 200.764L155.387 206H153.315ZM155.093 203.942L155.779 202.248H160.273L160.973 203.942H155.093ZM166.444 206.14C165.828 206.14 165.272 205.972 164.778 205.636C164.283 205.3 163.891 204.843 163.602 204.264C163.312 203.685 163.168 203.023 163.168 202.276C163.168 201.529 163.312 200.871 163.602 200.302C163.9 199.723 164.302 199.271 164.806 198.944C165.31 198.608 165.884 198.44 166.528 198.44C166.892 198.44 167.223 198.496 167.522 198.608C167.83 198.711 168.096 198.855 168.32 199.042C168.553 199.229 168.749 199.443 168.908 199.686C169.066 199.929 169.178 200.19 169.244 200.47L168.824 200.4V198.594H170.798V206H168.796V204.222L169.244 204.18C169.169 204.441 169.048 204.689 168.88 204.922C168.712 205.155 168.502 205.365 168.25 205.552C168.007 205.729 167.732 205.874 167.424 205.986C167.116 206.089 166.789 206.14 166.444 206.14ZM166.99 204.418C167.363 204.418 167.69 204.329 167.97 204.152C168.25 203.975 168.464 203.727 168.614 203.41C168.772 203.083 168.852 202.705 168.852 202.276C168.852 201.856 168.772 201.487 168.614 201.17C168.464 200.853 168.25 200.605 167.97 200.428C167.69 200.241 167.363 200.148 166.99 200.148C166.626 200.148 166.304 200.241 166.024 200.428C165.753 200.605 165.538 200.853 165.38 201.17C165.221 201.487 165.142 201.856 165.142 202.276C165.142 202.705 165.221 203.083 165.38 203.41C165.538 203.727 165.753 203.975 166.024 204.152C166.304 204.329 166.626 204.418 166.99 204.418Z" fill="black"/>
  <path d="M183.13 204.646H187.881V206H181.483V196.047H183.13V204.646ZM194.372 206C194.322 205.909 194.281 205.799 194.249 205.672C194.222 205.54 194.197 205.403 194.174 205.262C194.06 205.38 193.93 205.494 193.784 205.604C193.643 205.708 193.484 205.799 193.306 205.877C193.128 205.959 192.937 206.023 192.732 206.068C192.526 206.114 192.305 206.137 192.068 206.137C191.686 206.137 191.335 206.082 191.016 205.973C190.701 205.859 190.432 205.704 190.209 205.508C189.981 205.316 189.804 205.086 189.676 204.817C189.553 204.544 189.491 204.25 189.491 203.936C189.491 203.53 189.571 203.172 189.731 202.862C189.895 202.548 190.132 202.288 190.442 202.083C190.729 201.892 191.082 201.746 191.501 201.646C191.925 201.545 192.403 201.495 192.937 201.495H194.126V200.996C194.126 200.805 194.092 200.632 194.024 200.477C193.96 200.322 193.866 200.187 193.743 200.073C193.611 199.959 193.449 199.873 193.258 199.813C193.071 199.75 192.855 199.718 192.609 199.718C192.385 199.718 192.189 199.745 192.021 199.8C191.857 199.854 191.72 199.93 191.61 200.025C191.501 200.112 191.419 200.219 191.364 200.347C191.314 200.47 191.289 200.602 191.289 200.743H189.649C189.653 200.447 189.724 200.162 189.86 199.889C189.997 199.615 190.198 199.374 190.462 199.164C190.717 198.95 191.032 198.781 191.405 198.658C191.784 198.531 192.214 198.467 192.697 198.467C193.13 198.467 193.534 198.521 193.907 198.631C194.286 198.736 194.611 198.893 194.885 199.103C195.158 199.312 195.373 199.579 195.527 199.902C195.682 200.221 195.76 200.59 195.76 201.01V204.298C195.76 204.631 195.783 204.931 195.828 205.2C195.878 205.465 195.949 205.692 196.04 205.884V206H194.372ZM192.383 204.824C192.597 204.824 192.795 204.797 192.978 204.742C193.165 204.688 193.333 204.617 193.484 204.53C193.634 204.444 193.764 204.346 193.873 204.236C193.983 204.127 194.067 204.013 194.126 203.895V202.527H193.073C192.718 202.527 192.41 202.562 192.151 202.63C191.891 202.694 191.683 202.787 191.528 202.91C191.392 203.015 191.289 203.14 191.221 203.286C191.157 203.432 191.125 203.596 191.125 203.778C191.125 203.929 191.152 204.07 191.207 204.202C191.262 204.33 191.342 204.439 191.446 204.53C191.551 204.621 191.681 204.694 191.836 204.749C191.991 204.799 192.173 204.824 192.383 204.824ZM204.418 202.377C204.418 202.719 204.393 203.045 204.343 203.354C204.292 203.664 204.219 203.951 204.124 204.216C204.014 204.53 203.869 204.815 203.686 205.07C203.504 205.326 203.285 205.537 203.03 205.706C202.825 205.843 202.595 205.948 202.34 206.021C202.089 206.098 201.816 206.137 201.519 206.137C201.219 206.137 200.945 206.1 200.699 206.027C200.453 205.954 200.232 205.847 200.036 205.706C199.936 205.633 199.84 205.556 199.749 205.474C199.662 205.387 199.578 205.294 199.496 205.193L199.421 206H197.944V195.5H199.578V199.328C199.674 199.21 199.778 199.103 199.892 199.007C200.006 198.911 200.129 198.827 200.261 198.754C200.435 198.658 200.624 198.588 200.829 198.542C201.039 198.492 201.264 198.467 201.506 198.467C201.825 198.467 202.116 198.51 202.381 198.597C202.65 198.679 202.891 198.797 203.105 198.952C203.288 199.08 203.449 199.237 203.591 199.424C203.736 199.606 203.864 199.807 203.973 200.025C204.119 200.331 204.229 200.67 204.302 201.044C204.379 201.418 204.418 201.814 204.418 202.233V202.377ZM202.784 202.233C202.784 202.024 202.77 201.821 202.743 201.625C202.72 201.424 202.686 201.238 202.64 201.064C202.577 200.855 202.492 200.666 202.387 200.497C202.287 200.324 202.15 200.178 201.977 200.06C201.863 199.978 201.733 199.916 201.588 199.875C201.442 199.834 201.278 199.813 201.095 199.813C200.872 199.813 200.672 199.845 200.494 199.909C200.316 199.968 200.161 200.055 200.029 200.169C199.933 200.246 199.847 200.338 199.769 200.442C199.696 200.543 199.633 200.652 199.578 200.771V203.833C199.642 203.97 199.717 204.095 199.803 204.209C199.895 204.318 199.997 204.416 200.111 204.503C200.239 204.594 200.385 204.667 200.549 204.722C200.717 204.772 200.904 204.797 201.109 204.797C201.296 204.797 201.465 204.774 201.615 204.729C201.765 204.678 201.9 204.612 202.018 204.53C202.178 204.416 202.308 204.273 202.408 204.1C202.513 203.922 202.593 203.724 202.647 203.505C202.693 203.341 202.727 203.163 202.75 202.972C202.773 202.78 202.784 202.582 202.784 202.377V202.233ZM209.637 206.137C209.09 206.137 208.589 206.046 208.133 205.863C207.682 205.681 207.295 205.428 206.971 205.104C206.648 204.785 206.397 204.41 206.219 203.977C206.046 203.539 205.959 203.067 205.959 202.562V202.281C205.959 201.702 206.051 201.178 206.233 200.709C206.415 200.24 206.666 199.839 206.985 199.506C207.304 199.173 207.673 198.918 208.092 198.74C208.516 198.558 208.967 198.467 209.446 198.467C209.979 198.467 210.451 198.558 210.861 198.74C211.271 198.918 211.615 199.166 211.893 199.485C212.171 199.809 212.381 200.194 212.522 200.641C212.663 201.087 212.734 201.575 212.734 202.104V202.808H207.607V202.842C207.657 203.165 207.734 203.437 207.839 203.655C207.944 203.874 208.088 204.07 208.27 204.243C208.452 204.425 208.666 204.567 208.913 204.667C209.163 204.767 209.437 204.817 209.733 204.817C210.138 204.817 210.517 204.74 210.868 204.585C211.218 204.425 211.508 204.2 211.736 203.908L212.611 204.756C212.365 205.111 211.986 205.43 211.476 205.713C210.97 205.995 210.357 206.137 209.637 206.137ZM209.439 199.793C209.206 199.793 208.99 199.836 208.789 199.923C208.593 200.005 208.418 200.123 208.263 200.278C208.108 200.438 207.978 200.629 207.873 200.853C207.769 201.076 207.691 201.329 207.641 201.611H211.121V201.502C211.121 201.288 211.082 201.076 211.004 200.866C210.927 200.652 210.817 200.465 210.676 200.306C210.539 200.151 210.366 200.028 210.157 199.937C209.952 199.841 209.712 199.793 209.439 199.793ZM214.768 195.5H218.753V204.646H220.995V206H214.768V204.646H217.106V196.86H214.768V195.5ZM232.897 196.047L234.127 200.306L235.488 196.047H237.532V206H235.987V202.623L236.082 198.18L234.551 202.931H233.697L232.309 198.344L232.398 202.623V206H230.86V196.047H232.897ZM242.71 206.137C242.163 206.137 241.662 206.046 241.206 205.863C240.755 205.681 240.367 205.428 240.044 205.104C239.72 204.785 239.47 204.41 239.292 203.977C239.119 203.539 239.032 203.067 239.032 202.562V202.281C239.032 201.702 239.123 201.178 239.306 200.709C239.488 200.24 239.739 199.839 240.058 199.506C240.377 199.173 240.746 198.918 241.165 198.74C241.589 198.558 242.04 198.467 242.519 198.467C243.052 198.467 243.523 198.558 243.934 198.74C244.344 198.918 244.688 199.166 244.966 199.485C245.244 199.809 245.453 200.194 245.595 200.641C245.736 201.087 245.807 201.575 245.807 202.104V202.808H240.68V202.842C240.73 203.165 240.807 203.437 240.912 203.655C241.017 203.874 241.16 204.07 241.343 204.243C241.525 204.425 241.739 204.567 241.985 204.667C242.236 204.767 242.509 204.817 242.806 204.817C243.211 204.817 243.589 204.74 243.94 204.585C244.291 204.425 244.581 204.2 244.809 203.908L245.684 204.756C245.437 205.111 245.059 205.43 244.549 205.713C244.043 205.995 243.43 206.137 242.71 206.137ZM242.512 199.793C242.279 199.793 242.063 199.836 241.862 199.923C241.666 200.005 241.491 200.123 241.336 200.278C241.181 200.438 241.051 200.629 240.946 200.853C240.841 201.076 240.764 201.329 240.714 201.611H244.193V201.502C244.193 201.288 244.155 201.076 244.077 200.866C244 200.652 243.89 200.465 243.749 200.306C243.612 200.151 243.439 200.028 243.229 199.937C243.024 199.841 242.785 199.793 242.512 199.793ZM247.307 202.247C247.307 201.687 247.373 201.176 247.505 200.716C247.642 200.251 247.838 199.852 248.093 199.52C248.344 199.187 248.649 198.929 249.009 198.747C249.374 198.56 249.784 198.467 250.24 198.467C250.65 198.467 251.008 198.54 251.313 198.686C251.623 198.827 251.896 199.03 252.133 199.294V195.5H253.767V206H252.284L252.209 205.228C251.972 205.519 251.689 205.745 251.361 205.904C251.033 206.059 250.655 206.137 250.226 206.137C249.775 206.137 249.369 206.043 249.009 205.856C248.649 205.665 248.344 205.401 248.093 205.063C247.843 204.731 247.649 204.337 247.512 203.881C247.376 203.421 247.307 202.924 247.307 202.391V202.247ZM248.941 202.391C248.941 202.719 248.973 203.029 249.037 203.32C249.101 203.612 249.201 203.865 249.337 204.079C249.474 204.302 249.65 204.478 249.864 204.605C250.078 204.729 250.336 204.79 250.636 204.79C251.005 204.79 251.311 204.71 251.552 204.551C251.794 204.387 251.988 204.166 252.133 203.888V200.709C251.988 200.436 251.794 200.219 251.552 200.06C251.315 199.896 251.015 199.813 250.65 199.813C250.345 199.813 250.083 199.877 249.864 200.005C249.65 200.132 249.476 200.308 249.344 200.531C249.203 200.755 249.101 201.014 249.037 201.311C248.973 201.602 248.941 201.914 248.941 202.247V202.391ZM256.17 198.604H260.094V204.646H262.268V206H256.17V204.646H258.447V199.964H256.17V198.604ZM258.296 196.689C258.296 196.557 258.319 196.437 258.364 196.327C258.41 196.213 258.476 196.115 258.563 196.033C258.645 195.956 258.743 195.896 258.857 195.855C258.975 195.81 259.107 195.787 259.253 195.787C259.499 195.787 259.697 195.851 259.848 195.979C260.003 196.102 260.092 196.261 260.114 196.457C260.146 196.658 260.112 196.833 260.012 196.983C259.912 197.129 259.766 197.227 259.574 197.277C259.479 197.364 259.365 197.421 259.233 197.448C259.1 197.476 258.955 197.464 258.795 197.414C258.631 197.364 258.506 197.275 258.419 197.147C258.337 197.015 258.296 196.863 258.296 196.689ZM268.909 206L268.813 204.968C268.563 205.337 268.257 205.626 267.897 205.836C267.537 206.041 267.134 206.144 266.687 206.144C266.305 206.144 265.954 206.084 265.635 205.966C265.32 205.843 265.049 205.654 264.821 205.398C264.598 205.143 264.425 204.817 264.302 204.421C264.179 204.02 264.117 203.541 264.117 202.985V198.604H265.751V202.999C265.751 203.341 265.776 203.628 265.826 203.86C265.876 204.088 265.956 204.271 266.065 204.407C266.175 204.549 266.314 204.649 266.482 204.708C266.651 204.767 266.849 204.797 267.077 204.797C267.314 204.797 267.526 204.772 267.713 204.722C267.9 204.667 268.064 204.594 268.205 204.503C268.323 204.421 268.428 204.325 268.519 204.216C268.611 204.102 268.688 203.977 268.752 203.84V198.604H270.392V206H268.909ZM273.26 198.604L273.308 199.417C273.449 199.121 273.643 198.888 273.889 198.72C274.14 198.551 274.441 198.467 274.792 198.467C274.974 198.467 275.138 198.487 275.284 198.528C275.43 198.569 275.555 198.633 275.66 198.72C275.742 198.784 275.815 198.861 275.878 198.952C275.942 199.039 275.997 199.139 276.042 199.253C276.106 199.148 276.179 199.05 276.261 198.959C276.343 198.868 276.432 198.79 276.528 198.727C276.651 198.645 276.788 198.581 276.938 198.535C277.093 198.49 277.262 198.467 277.444 198.467C277.681 198.467 277.897 198.508 278.093 198.59C278.294 198.667 278.467 198.788 278.613 198.952C278.759 199.125 278.87 199.351 278.948 199.629C279.03 199.902 279.071 200.233 279.071 200.62V206H277.567V200.606C277.567 200.461 277.551 200.338 277.519 200.237C277.487 200.132 277.442 200.048 277.382 199.984C277.323 199.925 277.25 199.882 277.164 199.854C277.082 199.827 276.99 199.813 276.89 199.813C276.785 199.813 276.694 199.827 276.617 199.854C276.539 199.882 276.471 199.921 276.412 199.971C276.357 200.016 276.311 200.071 276.275 200.135C276.238 200.194 276.211 200.262 276.193 200.34C276.193 200.358 276.193 200.381 276.193 200.408C276.193 200.431 276.193 200.465 276.193 200.511V206H274.716V200.6C274.716 200.454 274.7 200.331 274.668 200.23C274.641 200.126 274.598 200.044 274.539 199.984C274.479 199.925 274.409 199.882 274.327 199.854C274.249 199.827 274.16 199.813 274.06 199.813C273.951 199.813 273.853 199.829 273.766 199.861C273.684 199.889 273.613 199.932 273.554 199.991C273.509 200.032 273.468 200.08 273.431 200.135C273.399 200.189 273.37 200.251 273.342 200.319V206H271.838V198.604H273.26Z" fill="black" fill-opacity="0.8"/>
  <rect x="144.5" y="188.5" width="148" height="25" rx="12.5" stroke="black" stroke-opacity="0.6"/>
</svg>
